<?xml version="1.0" encoding="utf-8"?>
<!-- Generator: Adobe Illustrator 22.0.1, SVG Export Plug-In . SVG Version: 6.00 Build 0)  -->
<svg version="1.1" id="Layer_1" xmlns="http://www.w3.org/2000/svg" xmlns:xlink="http://www.w3.org/1999/xlink" x="0px" y="0px"
	 viewBox="0 0 430.8 190.9" style="enable-background:new 0 0 430.8 190.9;" xml:space="preserve">
<style type="text/css">
	.st0{fill:#010101;}
	.st1{fill:#FFFFFF;}
</style>
<title>allurez-logo-with-tag</title>
<path class="st0" d="M117.3,29.6c-0.7-0.7-1.5-1.3-2.4-1.8c-1.6-0.7-4.3-0.3-5.5,3.5c0,0,4.7-4.8,6.1,1.7c0,0-0.7,10-11.2,8.5
	s-8.5-14.3-4.9-15.1s4.4,3.2,4.4,3.2s2.9-2.7,0.5-5.6c-2.1-2.5-5.6-0.5-5.6-0.5s1.5-4.9-2.2-6.8c-2.2,1.2-3.6,3.5-3.6,6
	c0,0-1.9-2.1-3.8-2.1s-4.1,1.5-4.3,5.4c0,0,3.2-3.9,6.6,0.2c3,3.6-0.2,12.3-8.1,12.4c-7.9-0.1-11.1-8.8-8.1-12.4
	c3.3-4,6.5-0.2,6.5-0.2c-0.3-3.9-2.3-5.4-4.3-5.4s-3.8,2.1-3.8,2.1c0-2.5-1.4-4.8-3.6-6c-3.7,1.9-2.2,6.8-2.2,6.8s-3.5-2-5.6,0.5
	c-2.4,2.9,0.5,5.6,0.5,5.6s0.7-3.9,4.4-3.2s5.6,13.6-4.9,15.1S51.1,33,51.1,33c1.4-6.5,6.1-1.7,6.1-1.7c-1.2-3.8-3.9-4.2-5.5-3.5
	c-0.9,0.4-1.7,1-2.4,1.8c-2.9-3.2-6-1.4-6-1.4L57.9,52c7.4-5.1,23.5-5.5,25.4-5.6s17.5-0.2,25.4,5.6l14.6-23.8
	C123.3,28.2,120.3,26.5,117.3,29.6z"/>
<path class="st0" d="M84.9,12.4c1.6,1.5,4.5,1.8,4.5,1.8s-3.1,0.4-4.5,1.8c-1.4,1.4-1.8,4.5-1.8,4.5s-0.4-3.1-1.8-4.5
	s-4.5-1.8-4.5-1.8c1.7-0.1,3.2-0.7,4.5-1.8c1.1-1.3,1.7-2.9,1.8-4.5C83.1,7.9,83.3,10.9,84.9,12.4z"/>
<path class="st0" d="M113.7,116l-4.4-10.5c-4.3-0.4-8.8-0.8-13.6-1.1l4.8,11.5c1.7,4.1,2.6,7.1,2.6,9c0,1.4-0.7,2.8-1.8,3.6
	c-1.2,1-3.6,1.6-7.1,1.7v2.4h34.6v-2.4c-3.6-0.2-6.4-1.2-8.4-2.9C118.4,125.6,116.2,121.8,113.7,116z M53.2,124.8
	c0-1.7,0.7-4.2,2.2-7.6l5.4-12.4c-2.2,0.2-4.3,0.4-6.4,0.6l-4.2,9.8c-2.7,6.3-5.1,10.5-7.3,12.6c-1.1,1-3.5,1.9-7.1,2.5v2.4h27.6
	v-2.4c-4.2-0.3-7-1-8.2-2C54,127.5,53.3,126.2,53.2,124.8z M105.2,95.5L86.5,50.8c-2.4-0.1-4.2-0.1-4.8-0.1s-2,0-4,0.2L58.6,95.5
	c-25.8,3.4-37,11.7-37,11.7s21.6-7.7,59.2-7.7s63.9,7.7,63.9,7.7S131.6,98.9,105.2,95.5L105.2,95.5z M81.7,94
	c-6.1,0-11.6,0.3-16.7,0.7l13.6-31.5l13,31.1C88.5,94.1,85.2,94,81.7,94L81.7,94z"/>
<g>
	<polygon class="st1" points="78.1,86.5 -18,34 76.8,89 -16.8,145.9 78.2,91.4 80.8,200.9 81,91.3 177.1,143.9 82.4,88.9 
		175.9,31.9 80.9,86.5 78.3,-23 	"/>
</g>
<path class="st0" d="M164.4,132.6h-26.2V129l2.7-0.2c0.8-0.1,1.6-0.2,2.4-0.4c0.9-0.3,1.8-0.9,2.3-1.7c0.5-1,0.8-2.1,0.8-3.2V61.1
	c0-1.3-0.3-2.5-0.9-3.7c-0.5-1.1-1.3-2-2.2-2.7c-1.1-0.6-2.3-1-3.6-1.2c-1.4-0.3-2.8-0.5-4.2-0.7v-3.5l20.2-1.2l0.8,0.8v73.8
	c0,1.1,0.2,2.2,0.7,3.1c0.5,0.9,1.3,1.5,2.3,1.9c0.8,0.4,1.6,0.6,2.4,0.8c0.9,0.2,1.8,0.3,2.6,0.4L164.4,132.6z"/>
<path class="st0" d="M196.4,132.6h-26.2V129l2.7-0.2c0.8-0.1,1.6-0.2,2.4-0.4c0.9-0.3,1.8-0.9,2.3-1.7c0.5-1,0.8-2.1,0.8-3.2V61.1
	c0-1.3-0.3-2.5-0.9-3.7c-0.5-1.1-1.3-2-2.2-2.7c-1.1-0.6-2.3-1-3.6-1.2c-1.4-0.3-2.8-0.5-4.2-0.7v-3.5l20.2-1.2l0.8,0.8v73.8
	c0,1.1,0.2,2.2,0.7,3.1c0.5,0.9,1.3,1.5,2.3,1.9c0.8,0.4,1.6,0.6,2.4,0.8c0.9,0.2,1.8,0.3,2.6,0.4L196.4,132.6z"/>
<path class="st0" d="M260.8,131.6l-17.6,1.2l-0.8-0.8v-6.8h-0.3c-0.9,0.9-1.9,1.9-2.9,2.9c-1.1,1.1-2.4,2-3.8,2.8
	c-1.5,0.9-3.1,1.7-4.7,2.2c-2.1,0.6-4.3,0.8-6.5,0.8c-4.8,0-8.4-1.6-10.9-4.7c-2.5-3.1-3.7-7.6-3.7-13.5V90.1c0-1.1-0.2-2.3-0.7-3.3
	c-1-1.7-2.7-2.9-4.6-3.3c-1-0.2-2.1-0.3-3.1-0.4v-3.6l17.9-1.3l0.8,0.8v37.3c0,3.9,0.9,6.8,2.6,8.8c1.5,1.9,3.8,3,6.3,2.9
	c1.8,0,3.6-0.3,5.3-0.9c1.4-0.5,2.7-1.3,3.9-2.2c0.9-0.7,1.8-1.5,2.6-2.4c0.7-0.7,1.2-1.5,1.7-2.4V89.7c0-1.1-0.2-2.2-0.8-3.2
	c-0.5-0.9-1.2-1.7-2.1-2.4c-0.9-0.5-1.9-0.8-2.9-0.8c-1.3-0.1-2.7-0.2-4.3-0.3v-3.6l19.6-1.3l0.8,0.8v42.7c0,1.1,0.2,2.2,0.8,3.2
	c0.5,0.9,1.3,1.7,2.1,2.2c0.7,0.4,1.5,0.7,2.4,0.8c1,0.1,2,0.2,3,0.2V131.6z"/>
<path class="st0" d="M308.5,85.8c0,1.7-0.4,3.5-1.4,4.9c-0.9,1.4-2.5,2.3-4.2,2.2c-1.7,0.1-3.4-0.5-4.7-1.6c-1-0.9-1.6-2.2-1.6-3.5
	c0-0.7,0.1-1.5,0.2-2.2c0.1-0.7,0.2-1.3,0.4-2c-2.1,0.1-4.2,0.9-6,2.1c-2.4,1.5-4.4,3.5-5.8,5.9v31.3c0,1.1,0.2,2.2,0.7,3.1
	c0.5,0.8,1.4,1.5,2.3,1.8c1.1,0.4,2.3,0.7,3.5,0.8c1.4,0.2,2.7,0.3,3.7,0.4v3.6h-28.3V129l2.6-0.2c0.8-0.1,1.6-0.2,2.3-0.4
	c0.9-0.3,1.7-0.9,2.3-1.7c0.5-1,0.8-2.1,0.7-3.2V90.3c0-1.2-0.3-2.3-0.8-3.3c-0.5-1.1-1.2-2-2.2-2.7c-0.8-0.5-1.6-0.8-2.5-1
	c-1-0.2-2-0.3-3-0.4v-3.6l17.9-1.2l0.8,0.8v7.6h0.3c2-2.7,4.6-5,7.5-6.7c2.3-1.4,4.9-2.1,7.6-2.2c2.1-0.1,4.1,0.7,5.6,2.2
	C307.9,81.4,308.7,83.6,308.5,85.8z"/>
<path class="st0" d="M360.9,120c-2.1,4.1-5.2,7.7-9.1,10.3c-3.8,2.6-8.4,3.9-13,3.8c-3.9,0.1-7.8-0.7-11.4-2.3
	c-3.1-1.4-5.8-3.6-8-6.2c-2.2-2.7-3.8-5.8-4.7-9.2c-1.1-3.6-1.6-7.3-1.6-11.1c0-3.5,0.6-7,1.7-10.3c1.1-3.3,2.7-6.4,4.9-9.1
	c2.1-2.6,4.7-4.7,7.7-6.2c3.2-1.6,6.7-2.4,10.3-2.4c3.5-0.1,6.9,0.6,10.1,1.9c2.6,1.1,5,2.9,6.8,5.1c1.7,2.1,3,4.6,3.7,7.2
	c0.8,2.9,1.3,6,1.2,9v3.6H324c0,3.2,0.3,6.5,1,9.6c0.6,2.7,1.7,5.3,3.2,7.6c1.4,2.1,3.3,3.8,5.6,5c2.5,1.3,5.3,1.9,8.2,1.8
	c3,0.1,5.9-0.7,8.4-2.3c2.3-1.5,4.6-4.2,6.8-8.2L360.9,120z M348.8,99.5c0-2.2-0.2-4.4-0.5-6.5c-0.3-2-0.8-4-1.7-5.8
	c-0.8-1.6-2-3-3.4-4.1c-1.7-1.1-3.6-1.7-5.6-1.6c-3.8,0-7.3,1.7-9.5,4.8c-2.5,3.2-3.9,7.6-4.1,13.2H348.8z"/>
<path class="st0" d="M409.7,132.6h-43.5v-2.9l30.5-46.4h-7.5c-3.2,0-5.7,0.1-7.4,0.2c-1.7,0.1-3.3,0.4-4.9,1c-1,0.4-2,1.5-2.9,3.4
	c-1,2.4-1.8,4.9-2.3,7.4h-3.3V78.8h41.1v2.2l-30.9,47.1c1.3,0,2.8,0.1,4.3,0.1h5.1c1.5,0,3,0,4.5-0.1c1.6,0,3.6-0.1,6.1-0.3
	c1.3,0,2.5-0.5,3.3-1.5c0.8-0.9,1.3-2,1.7-3.1c0.4-1.1,0.9-2.5,1.4-4.4s1.1-3.7,1.5-5.4h3.3L409.7,132.6z"/>
<g>
	<path d="M39.7,153.1l-0.2,1c-0.3,0-0.7,0.1-1.2,0.1c-0.5,0.1-0.9,0.2-1.1,0.2c-0.4,0.1-0.7,0.3-0.9,0.6s-0.3,0.6-0.4,0.9l-3.6,15.3
		c0,0.1,0,0.1,0,0.2c0,0.1,0,0.2,0,0.2c0,0.2,0,0.4,0.1,0.6c0.1,0.2,0.3,0.3,0.5,0.4c0.1,0.1,0.5,0.1,1,0.2c0.5,0.1,0.9,0.1,1.1,0.2
		l-0.2,1h-9.4l0.2-1c0.3,0,0.7,0,1.2-0.1c0.5,0,0.9-0.1,1.1-0.2c0.4-0.1,0.7-0.3,0.9-0.6c0.2-0.2,0.3-0.5,0.4-0.9l3.5-15.3
		c0-0.1,0-0.2,0-0.3c0-0.1,0-0.2,0-0.3c0-0.2,0-0.4-0.1-0.5c-0.1-0.1-0.3-0.3-0.5-0.4c-0.3-0.1-0.6-0.2-1.1-0.3s-0.8-0.2-1-0.2
		l0.2-1H39.7z"/>
	<path d="M56.3,172.4l-0.2,0.9c-0.9,0.4-1.6,0.6-2.1,0.8c-0.5,0.2-1,0.2-1.5,0.2c-0.8,0-1.4-0.2-1.8-0.6c-0.4-0.4-0.6-0.9-0.6-1.5
		c0-0.2,0-0.5,0.1-0.7c0-0.3,0.1-0.6,0.2-0.9l1.5-5.5c0.1-0.4,0.2-0.8,0.3-1.2c0.1-0.3,0.1-0.6,0.1-0.8c0-0.7-0.2-1.2-0.5-1.6
		c-0.3-0.4-0.8-0.6-1.4-0.6c-0.6,0-1.3,0.2-2,0.6c-0.7,0.4-1.4,1-2.1,1.7l-2.5,10.8H41l2.2-9.6c0-0.2,0.1-0.6,0.2-1
		c0.1-0.4,0.1-0.8,0.1-1.1c0-0.6-0.1-0.9-0.3-1.1c-0.2-0.2-0.6-0.3-1.1-0.3c-0.2,0-0.5,0-0.8,0.1c-0.3,0.1-0.6,0.1-0.8,0.2l0.2-0.9
		c0.8-0.3,1.5-0.6,2-0.8c0.6-0.2,1.1-0.3,1.5-0.3c0.8,0,1.3,0.2,1.7,0.6c0.3,0.4,0.5,1,0.5,1.8h0.1c1.1-0.9,2-1.5,2.8-1.9
		c0.8-0.4,1.7-0.6,2.7-0.6c0.9,0,1.7,0.3,2.2,0.8c0.5,0.5,0.8,1.3,0.8,2.1c0,0.2,0,0.5-0.1,0.9c-0.1,0.5-0.1,0.9-0.3,1.3l-1.2,4.7
		c-0.1,0.3-0.2,0.7-0.3,1.1c-0.1,0.4-0.1,0.7-0.1,1c0,0.6,0.1,0.9,0.4,1.1c0.2,0.2,0.6,0.3,1.2,0.3c0.2,0,0.5,0,0.8-0.1
		C55.9,172.5,56.1,172.4,56.3,172.4z"/>
	<path d="M63.2,174.4c-0.9,0-1.6-0.2-2.1-0.6c-0.4-0.4-0.6-0.9-0.6-1.6c0-0.2,0-0.4,0-0.6c0-0.2,0.1-0.4,0.1-0.7l2.3-9.9h-2.6
		l0.3-1.3h2.7l1-4.3H67l-1,4.3h4.1l-0.3,1.3h-4.1l-1.9,8.1c-0.1,0.4-0.2,0.7-0.2,1.1s-0.1,0.6-0.1,0.9c0,0.5,0.1,0.9,0.4,1.2
		c0.3,0.3,0.8,0.4,1.5,0.4c0.3,0,0.6,0,1.1-0.1s0.8-0.1,1.1-0.2l-0.3,1.1c-0.7,0.3-1.3,0.5-1.9,0.7C64.7,174.3,64,174.4,63.2,174.4z
		"/>
	<path d="M84.3,162.3c0,1-0.3,1.9-1,2.7c-0.7,0.7-1.6,1.3-2.9,1.8c-0.9,0.3-1.8,0.6-2.8,0.8c-0.9,0.2-2,0.4-3.1,0.5
		c0,1.6,0.3,2.7,0.9,3.6c0.6,0.8,1.4,1.2,2.5,1.2c1,0,1.9-0.2,2.6-0.7c0.8-0.5,1.5-1.2,2.2-2.2l0.8,0.6c-0.8,1.2-1.8,2.2-2.9,2.9
		c-1.2,0.7-2.4,1.1-3.7,1.1c-1.7,0-3.1-0.5-4-1.5c-0.9-1-1.4-2.4-1.4-4.1c0-1.2,0.2-2.4,0.6-3.6c0.4-1.1,1-2.2,1.7-3.1
		c0.7-0.9,1.6-1.7,2.7-2.2c1.1-0.6,2.2-0.8,3.5-0.8c1.4,0,2.5,0.3,3.1,0.9C84,160.6,84.3,161.4,84.3,162.3z M81.6,161.9
		c0-0.4-0.1-0.7-0.2-0.9c-0.1-0.2-0.2-0.4-0.4-0.5c-0.2-0.1-0.4-0.2-0.6-0.2c-0.2,0-0.4,0-0.6,0c-1.2,0-2.3,0.6-3.3,1.9
		c-1,1.3-1.6,2.9-1.9,4.8c0.7-0.1,1.5-0.2,2.3-0.4c0.9-0.2,1.6-0.4,2.2-0.7c0.8-0.4,1.4-1,1.8-1.6C81.4,163.6,81.6,162.8,81.6,161.9
		z"/>
	<path d="M100.5,161.6c0,0.3,0,0.6-0.1,0.9c-0.1,0.3-0.2,0.6-0.3,0.8c-0.2,0.3-0.4,0.5-0.6,0.6c-0.2,0.1-0.5,0.2-0.9,0.2
		c-0.5,0-0.9-0.1-1.2-0.4c-0.3-0.3-0.4-0.6-0.4-0.9c0-0.3,0.1-0.6,0.2-1c0.1-0.4,0.3-0.8,0.5-1.1c-0.1,0-0.3,0-0.6,0.1
		c-0.3,0.1-0.6,0.2-1,0.4c-0.4,0.2-0.8,0.5-1.3,0.8c-0.5,0.4-1,0.9-1.6,1.5l-2.4,10.6h-2.8l2.2-9.6c0-0.2,0.1-0.6,0.2-1.1
		c0.1-0.5,0.1-0.8,0.1-1c0-0.6-0.1-0.9-0.3-1.1c-0.2-0.2-0.6-0.3-1.1-0.3c-0.2,0-0.5,0-0.8,0.1c-0.3,0.1-0.6,0.1-0.8,0.2l0.2-0.9
		c0.8-0.3,1.4-0.6,2-0.8c0.6-0.2,1.1-0.3,1.5-0.3c0.8,0,1.3,0.2,1.7,0.6c0.3,0.4,0.5,1.1,0.5,1.9h0.1c1.2-1,2.1-1.7,2.7-2.1
		c0.6-0.4,1.2-0.6,1.9-0.6c0.3,0,0.6,0,0.9,0.1c0.3,0.1,0.5,0.2,0.8,0.4c0.2,0.2,0.4,0.4,0.5,0.7
		C100.5,160.7,100.5,161.1,100.5,161.6z"/>
	<path d="M118.8,172.4l-0.2,0.9c-0.9,0.4-1.6,0.6-2.1,0.8c-0.5,0.2-1,0.2-1.5,0.2c-0.8,0-1.4-0.2-1.8-0.6c-0.4-0.4-0.6-0.9-0.6-1.5
		c0-0.2,0-0.5,0.1-0.7c0-0.3,0.1-0.6,0.2-0.9l1.5-5.5c0.1-0.4,0.2-0.8,0.3-1.2c0.1-0.3,0.1-0.6,0.1-0.8c0-0.7-0.2-1.2-0.5-1.6
		c-0.3-0.4-0.8-0.6-1.4-0.6c-0.6,0-1.3,0.2-2,0.6c-0.7,0.4-1.4,1-2.1,1.7l-2.5,10.8h-2.8l2.2-9.6c0-0.2,0.1-0.6,0.2-1
		c0.1-0.4,0.1-0.8,0.1-1.1c0-0.6-0.1-0.9-0.3-1.1c-0.2-0.2-0.6-0.3-1.1-0.3c-0.2,0-0.5,0-0.8,0.1s-0.6,0.1-0.8,0.2l0.2-0.9
		c0.8-0.3,1.5-0.6,2-0.8c0.6-0.2,1.1-0.3,1.5-0.3c0.8,0,1.3,0.2,1.7,0.6c0.3,0.4,0.5,1,0.5,1.8h0.1c1.1-0.9,2-1.5,2.8-1.9
		c0.8-0.4,1.7-0.6,2.7-0.6c0.9,0,1.7,0.3,2.2,0.8c0.5,0.5,0.8,1.3,0.8,2.1c0,0.2,0,0.5-0.1,0.9c-0.1,0.5-0.1,0.9-0.3,1.3l-1.2,4.7
		c-0.1,0.3-0.2,0.7-0.3,1.1c-0.1,0.4-0.1,0.7-0.1,1c0,0.6,0.1,0.9,0.4,1.1c0.2,0.2,0.6,0.3,1.2,0.3c0.2,0,0.5,0,0.8-0.1
		C118.4,172.5,118.7,172.4,118.8,172.4z"/>
	<path d="M134.9,162.3c0,1-0.3,1.9-1,2.7c-0.7,0.7-1.6,1.3-2.9,1.8c-0.9,0.3-1.8,0.6-2.8,0.8c-0.9,0.2-2,0.4-3.1,0.5
		c0,1.6,0.3,2.7,0.9,3.6c0.6,0.8,1.4,1.2,2.5,1.2c1,0,1.9-0.2,2.6-0.7s1.5-1.2,2.2-2.2l0.8,0.6c-0.8,1.2-1.8,2.2-2.9,2.9
		c-1.2,0.7-2.4,1.1-3.7,1.1c-1.7,0-3.1-0.5-4-1.5c-0.9-1-1.4-2.4-1.4-4.1c0-1.2,0.2-2.4,0.6-3.6c0.4-1.1,1-2.2,1.7-3.1
		c0.7-0.9,1.6-1.7,2.7-2.2c1.1-0.6,2.2-0.8,3.5-0.8c1.4,0,2.5,0.3,3.1,0.9C134.5,160.6,134.9,161.4,134.9,162.3z M132.2,161.9
		c0-0.4-0.1-0.7-0.2-0.9c-0.1-0.2-0.2-0.4-0.4-0.5c-0.2-0.1-0.4-0.2-0.6-0.2c-0.2,0-0.4,0-0.6,0c-1.2,0-2.3,0.6-3.3,1.9
		c-1,1.3-1.6,2.9-1.9,4.8c0.7-0.1,1.5-0.2,2.3-0.4c0.9-0.2,1.6-0.4,2.2-0.7c0.8-0.4,1.4-1,1.8-1.6
		C132,163.6,132.2,162.8,132.2,161.9z"/>
	<path d="M141.4,174.4c-0.9,0-1.6-0.2-2.1-0.6c-0.4-0.4-0.6-0.9-0.6-1.6c0-0.2,0-0.4,0-0.6c0-0.2,0.1-0.4,0.1-0.7l2.3-9.9h-2.6
		l0.3-1.3h2.7l1-4.3h2.7l-1,4.3h4.1l-0.3,1.3H144l-1.9,8.1c-0.1,0.4-0.2,0.7-0.2,1.1c-0.1,0.3-0.1,0.6-0.1,0.9
		c0,0.5,0.1,0.9,0.4,1.2c0.3,0.3,0.8,0.4,1.5,0.4c0.3,0,0.6,0,1.1-0.1c0.5-0.1,0.8-0.1,1.1-0.2l-0.3,1.1c-0.7,0.3-1.3,0.5-1.9,0.7
		C143,174.3,142.3,174.4,141.4,174.4z"/>
	<path d="M156.6,152.8c0,0.4-0.3,1.2-0.8,2.5c-0.5,1.3-1.1,2.8-1.8,4.5h-0.9c0-1.7,0.1-3.1,0.1-4.2s0-2,0.1-2.4
		c0.1-0.4,0.3-0.8,0.6-1.2c0.4-0.3,0.8-0.5,1.3-0.5c0.5,0,0.8,0.1,1,0.4C156.5,152.1,156.6,152.4,156.6,152.8z"/>
	<path d="M162.3,174.5c-1.5,0-2.7-0.3-3.6-0.8c-1-0.5-1.5-1.2-1.5-2c0-0.4,0.1-0.8,0.4-1.1c0.3-0.3,0.6-0.5,1-0.5
		c0.4,0,0.7,0.1,1,0.3c0.2,0.2,0.4,0.4,0.6,0.6c0.1,0.3,0.3,0.6,0.4,0.9c0.1,0.4,0.2,0.6,0.3,0.9c0.1,0.2,0.4,0.3,0.6,0.5
		c0.3,0.1,0.6,0.2,1.1,0.2c1.1,0,1.9-0.3,2.4-0.8c0.5-0.5,0.8-1.3,0.8-2.2c0-0.7-0.3-1.2-0.8-1.6c-0.5-0.4-1.3-0.8-2.3-1.1
		c-0.4-0.1-0.8-0.3-1.3-0.5c-0.5-0.2-0.9-0.5-1.2-0.8c-0.4-0.3-0.6-0.7-0.9-1.1c-0.2-0.4-0.3-0.9-0.3-1.5c0-1.3,0.6-2.4,1.7-3.3
		c1.1-0.9,2.5-1.4,4.2-1.4c0.4,0,0.8,0,1.2,0.1c0.4,0,0.9,0.1,1.5,0.3c0.5,0.2,0.9,0.4,1.2,0.7c0.3,0.3,0.5,0.7,0.5,1.2
		c0,0.4-0.1,0.8-0.4,1.1c-0.3,0.3-0.6,0.5-1.1,0.5c-0.4,0-0.7-0.1-0.9-0.2c-0.2-0.2-0.4-0.4-0.6-0.6c-0.2-0.3-0.3-0.6-0.4-0.9
		c-0.1-0.3-0.2-0.6-0.3-0.9c-0.2-0.1-0.4-0.1-0.5-0.2s-0.3,0-0.6,0c-1,0-1.7,0.3-2.2,0.8c-0.5,0.5-0.7,1.1-0.7,1.8
		c0,0.7,0.2,1.2,0.7,1.6c0.4,0.3,1.2,0.7,2.2,1.1c1.3,0.5,2.3,1,2.9,1.7s0.9,1.4,0.9,2.3c0,1.5-0.6,2.7-1.7,3.7
		C165.5,174,164.1,174.5,162.3,174.5z"/>
	<path d="M201,153.1l-1.2,5.2h-1.1c0-1.1-0.3-2-0.7-2.7c-0.4-0.8-0.9-1.2-1.5-1.3c-0.3,0-0.7-0.1-1.1-0.1c-0.4,0-0.9,0-1.4,0h-3.6
		l-2,8.5h2.4c0.6,0,1.1-0.1,1.6-0.2c0.5-0.1,0.9-0.4,1.4-0.8c0.2-0.2,0.5-0.5,0.8-1c0.3-0.5,0.5-1,0.7-1.5h1.1l-1.9,8.2h-1.1
		c0-0.1,0-0.3,0-0.4c0-0.2,0-0.3,0-0.5c0-0.3,0-0.6-0.1-0.9c0-0.4-0.1-0.6-0.2-0.8c-0.3-0.4-0.6-0.7-1-0.8c-0.4-0.1-0.9-0.2-1.5-0.2
		h-2.4l-1.7,7.3c0,0.1,0,0.2,0,0.2c0,0.1,0,0.2,0,0.2c0,0.2,0,0.4,0.1,0.6c0.1,0.2,0.2,0.3,0.5,0.4c0.2,0.1,0.5,0.2,0.9,0.3
		s0.8,0.1,1.1,0.2l-0.2,1h-9.1l0.2-1c0.3,0,0.7-0.1,1.2-0.1c0.5,0,0.8-0.1,1-0.2c0.3-0.1,0.6-0.3,0.8-0.6c0.2-0.3,0.3-0.5,0.4-0.9
		l3.5-15.3c0-0.1,0-0.2,0.1-0.3c0-0.1,0-0.2,0-0.3c0-0.2,0-0.4-0.1-0.5c-0.1-0.1-0.2-0.3-0.5-0.4c-0.2-0.1-0.5-0.2-1-0.3
		c-0.4-0.1-0.8-0.2-1.1-0.2l0.2-1H201z"/>
	<path d="M210.2,172.1h-0.1c-0.2,0.2-0.5,0.4-0.8,0.7c-0.3,0.3-0.7,0.5-1.1,0.8c-0.4,0.2-0.8,0.5-1.3,0.6c-0.5,0.2-0.9,0.3-1.5,0.3
		c-1.4,0-2.5-0.5-3.4-1.5c-0.8-1-1.2-2.4-1.2-4.2c0-1.2,0.2-2.4,0.7-3.6c0.5-1.2,1.1-2.2,1.9-3.1c0.8-0.9,1.7-1.6,2.7-2.1
		c1-0.5,2.1-0.8,3.2-0.8c0.7,0,1.4,0.1,2,0.3c0.6,0.2,1.1,0.4,1.5,0.6l2.7-0.7l0.2,0.2l-2.2,9.5c-0.1,0.3-0.2,0.7-0.2,1.1
		c-0.1,0.4-0.1,0.8-0.1,1c0,0.6,0.1,0.9,0.4,1.1c0.2,0.2,0.6,0.3,1.2,0.3c0.2,0,0.5,0,0.8-0.1c0.3-0.1,0.6-0.1,0.8-0.2l-0.2,0.9
		c-0.9,0.4-1.5,0.6-2,0.8c-0.4,0.2-1,0.2-1.6,0.2c-0.7,0-1.3-0.2-1.7-0.6C210.4,173.3,210.2,172.8,210.2,172.1z M212.3,162.8
		c0-0.3,0-0.6-0.1-0.9c-0.1-0.3-0.2-0.6-0.4-0.8c-0.2-0.2-0.5-0.4-0.8-0.6c-0.3-0.1-0.8-0.2-1.3-0.2c-0.7,0-1.4,0.2-2.1,0.7
		c-0.7,0.5-1.3,1.1-1.8,1.9c-0.5,0.7-0.9,1.7-1.3,2.7c-0.3,1.1-0.5,2.1-0.5,3.2c0,0.6,0,1.1,0.1,1.6c0.1,0.5,0.2,0.9,0.4,1.3
		c0.2,0.4,0.5,0.7,0.8,0.9c0.4,0.2,0.8,0.3,1.3,0.3c0.5,0,1.1-0.2,1.7-0.5c0.6-0.3,1.3-0.9,2-1.6L212.3,162.8z"/>
	<path d="M244.4,172.4l-0.2,0.9c-0.9,0.4-1.6,0.6-2.2,0.8c-0.5,0.1-1,0.2-1.4,0.2c-0.8,0-1.4-0.2-1.8-0.6c-0.4-0.4-0.6-0.9-0.6-1.5
		c0-0.2,0-0.5,0.1-0.7c0-0.3,0.1-0.6,0.2-0.9l1.5-5.5c0.1-0.4,0.2-0.8,0.3-1.2c0.1-0.3,0.1-0.6,0.1-0.8c0-0.7-0.1-1.2-0.4-1.6
		c-0.3-0.4-0.7-0.6-1.3-0.6c-0.7,0-1.3,0.2-1.9,0.5c-0.6,0.3-1.3,0.9-2.1,1.7l-2.6,10.9h-2.7l2.3-9.9c0-0.2,0.1-0.4,0.1-0.7
		c0-0.2,0.1-0.4,0.1-0.5c0-0.6-0.2-1.1-0.5-1.5c-0.3-0.4-0.8-0.5-1.4-0.5c-0.6,0-1.2,0.1-1.8,0.4c-0.7,0.3-1.5,0.9-2.3,1.9
		l-2.5,10.8h-2.8l2.2-9.6c0.1-0.3,0.2-0.7,0.2-1.1s0.1-0.7,0.1-1c0-0.6-0.1-0.9-0.3-1.1c-0.2-0.2-0.6-0.3-1.1-0.3
		c-0.2,0-0.5,0-0.8,0.1c-0.3,0.1-0.6,0.1-0.8,0.2l0.2-1c0.8-0.3,1.5-0.6,2-0.8c0.6-0.2,1.1-0.3,1.5-0.3c0.8,0,1.4,0.2,1.7,0.6
		c0.3,0.4,0.5,1,0.5,1.7h0.1c1.2-0.9,2.1-1.6,2.9-2c0.7-0.4,1.6-0.6,2.7-0.6c0.9,0,1.6,0.3,2.1,0.8c0.5,0.5,0.9,1.1,0.9,1.9h0.1
		c1-0.9,2-1.5,2.8-2c0.8-0.5,1.8-0.7,2.9-0.7c0.9,0,1.7,0.3,2.2,0.8c0.5,0.5,0.8,1.3,0.8,2.1c0,0.2,0,0.5-0.1,0.9
		c-0.1,0.5-0.1,0.9-0.3,1.3l-1.2,4.7c-0.1,0.3-0.2,0.7-0.3,1.1c-0.1,0.4-0.1,0.7-0.1,1c0,0.6,0.1,0.9,0.4,1.1
		c0.2,0.2,0.6,0.3,1.2,0.3c0.2,0,0.5,0,0.8-0.1C244,172.5,244.2,172.5,244.4,172.4z"/>
	<path d="M254.9,172.5l-0.2,0.9c-0.9,0.4-1.6,0.6-2.2,0.8c-0.5,0.1-1,0.2-1.4,0.2c-0.8,0-1.4-0.2-1.8-0.6c-0.4-0.4-0.6-0.9-0.6-1.5
		c0-0.2,0-0.5,0.1-0.7c0-0.2,0.1-0.6,0.2-0.9l1.6-6.3c0.1-0.3,0.2-0.7,0.2-1.1c0.1-0.4,0.1-0.7,0.1-1c0-0.6-0.1-0.9-0.3-1.1
		c-0.2-0.2-0.6-0.3-1.1-0.3c-0.2,0-0.5,0-0.9,0.1c-0.4,0.1-0.6,0.1-0.8,0.2l0.2-0.9c0.8-0.3,1.5-0.6,2.1-0.8
		c0.6-0.2,1.1-0.3,1.4-0.3c0.8,0,1.4,0.2,1.8,0.6c0.4,0.4,0.5,0.9,0.5,1.6c0,0.2,0,0.4-0.1,0.7c0,0.3-0.1,0.6-0.2,0.9l-1.6,6.3
		c-0.1,0.4-0.2,0.8-0.3,1.1c-0.1,0.4-0.1,0.7-0.1,0.9c0,0.6,0.1,0.9,0.4,1.2c0.2,0.2,0.7,0.3,1.2,0.3c0.2,0,0.5,0,0.8-0.1
		C254.5,172.6,254.8,172.5,254.9,172.5z M256,153.6c0,0.6-0.2,1-0.5,1.5c-0.4,0.4-0.8,0.6-1.4,0.6c-0.5,0-0.9-0.2-1.3-0.6
		c-0.4-0.4-0.5-0.9-0.5-1.4c0-0.5,0.2-1,0.5-1.4c0.4-0.4,0.8-0.6,1.3-0.6c0.6,0,1,0.2,1.4,0.6C255.8,152.7,256,153.1,256,153.6z"/>
	<path d="M266.2,151.5l-4.1,17.8c-0.1,0.4-0.2,0.7-0.3,1.1c-0.1,0.4-0.1,0.7-0.1,0.9c0,0.6,0.1,0.9,0.4,1.2c0.3,0.2,0.7,0.3,1.2,0.3
		c0.2,0,0.5,0,0.9-0.1c0.4,0,0.7-0.1,0.9-0.2l-0.2,0.9c-0.9,0.4-1.6,0.6-2,0.8c-0.5,0.1-1,0.2-1.6,0.2c-0.8,0-1.4-0.2-1.8-0.6
		c-0.4-0.4-0.6-0.9-0.6-1.5c0-0.2,0-0.5,0.1-0.7c0-0.2,0.1-0.6,0.2-0.9l3.6-15.5c0.1-0.3,0.1-0.5,0.1-0.6c0-0.1,0-0.3,0-0.4
		c0-0.4-0.1-0.6-0.2-0.8c-0.1-0.2-0.3-0.3-0.5-0.4c-0.2-0.1-0.5-0.1-0.8-0.2c-0.3,0-0.6-0.1-1-0.1l0.2-0.9l5.5-0.3L266.2,151.5z"/>
	<path d="M278,171.9L278,171.9c-1,0.8-1.9,1.4-2.7,1.8c-0.8,0.4-1.7,0.6-2.8,0.6c-0.9,0-1.7-0.3-2.2-0.8c-0.6-0.5-0.8-1.3-0.8-2.1
		c0-0.2,0-0.5,0.1-0.8c0-0.3,0.1-0.8,0.3-1.4l1.1-4.6c0.1-0.4,0.2-0.8,0.3-1.2c0.1-0.3,0.1-0.6,0.1-1c0-0.6-0.1-0.9-0.3-1.1
		c-0.2-0.2-0.6-0.3-1.1-0.3c-0.2,0-0.5,0-0.8,0.1c-0.3,0.1-0.6,0.1-0.8,0.2l0.2-1c0.8-0.3,1.4-0.6,2-0.8c0.6-0.2,1.1-0.3,1.4-0.3
		c0.8,0,1.4,0.2,1.7,0.5c0.4,0.4,0.6,0.9,0.6,1.6c0,0.2,0,0.4-0.1,0.7c0,0.3-0.1,0.6-0.2,0.9l-1.3,5.4c-0.1,0.4-0.2,0.8-0.3,1.2
		c-0.1,0.4-0.1,0.6-0.1,0.8c0,0.7,0.2,1.2,0.5,1.6s0.8,0.6,1.4,0.6c0.7,0,1.4-0.2,2.1-0.5c0.7-0.4,1.3-0.8,1.9-1.5l2.4-11l2.5-0.2
		l0.2,0.2l-2.5,11.5c-0.4,1.7-0.9,3.1-1.4,4.3c-0.6,1.2-1.3,2.2-2,2.9c-0.8,0.8-1.7,1.3-2.6,1.7c-0.9,0.3-2,0.5-3.2,0.5
		c-0.8,0-1.5-0.1-2-0.2c-0.5-0.1-0.9-0.3-1.2-0.5c-0.3-0.2-0.5-0.4-0.6-0.7c-0.1-0.2-0.1-0.5-0.1-0.7c0-0.4,0.1-0.8,0.4-1.1
		c0.3-0.3,0.6-0.5,1.1-0.5c0.4,0,0.7,0.1,0.9,0.3c0.3,0.2,0.5,0.4,0.6,0.7c0.2,0.3,0.3,0.6,0.5,0.9c0.1,0.3,0.3,0.6,0.4,0.8h0.4
		c0.6,0,1.2-0.1,1.8-0.4c0.6-0.3,1.2-0.7,1.7-1.3c0.6-0.6,1.1-1.4,1.5-2.4C277.4,174.5,277.7,173.3,278,171.9z"/>
	<path d="M312.5,153.1l-0.2,1c-0.3,0-0.6,0-1.1,0.1c-0.4,0.1-0.8,0.1-1.1,0.2c-0.4,0.1-0.7,0.3-0.8,0.6c-0.2,0.3-0.3,0.6-0.4,0.9
		l-2.8,12.5c-0.1,0.7-0.4,1.4-0.8,2.1c-0.4,0.7-0.9,1.4-1.6,2c-0.7,0.6-1.4,1.1-2.3,1.5c-0.8,0.4-1.8,0.6-3,0.6
		c-1.4,0-2.5-0.3-3.3-1c-0.8-0.7-1.2-1.6-1.2-2.9c0-1,0.2-1.8,0.7-2.6s1.1-1.1,1.9-1.1c0.6,0,1,0.1,1.3,0.4s0.4,0.6,0.4,1
		c0,0.3-0.1,0.7-0.3,1.1c-0.2,0.4-0.4,0.7-0.6,1.1c-0.2,0.3-0.5,0.6-0.8,1c-0.3,0.3-0.5,0.6-0.7,0.8c0.1,0.3,0.4,0.6,0.8,0.8
		c0.4,0.2,1,0.4,1.8,0.4c0.7,0,1.3-0.2,1.9-0.5c0.5-0.3,1-0.8,1.3-1.3c0.3-0.6,0.6-1.2,0.9-1.9c0.3-0.7,0.5-1.6,0.7-2.5l2.5-11.2
		c0,0,0-0.1,0-0.2c0-0.1,0-0.2,0-0.3c0-0.2,0-0.4-0.1-0.6s-0.2-0.3-0.5-0.4c-0.3-0.2-0.6-0.3-1.1-0.4c-0.5-0.1-0.9-0.1-1.1-0.2
		l0.2-1H312.5z"/>
	<path d="M325.4,162.3c0,1-0.3,1.9-1,2.7c-0.7,0.7-1.6,1.3-2.9,1.8c-0.9,0.3-1.8,0.6-2.8,0.8c-0.9,0.2-2,0.4-3.1,0.5
		c0,1.6,0.3,2.7,0.9,3.6c0.6,0.8,1.4,1.2,2.5,1.2c1,0,1.9-0.2,2.6-0.7c0.8-0.5,1.5-1.2,2.2-2.2l0.8,0.6c-0.8,1.2-1.8,2.2-2.9,2.9
		c-1.2,0.7-2.4,1.1-3.7,1.1c-1.7,0-3.1-0.5-4-1.5c-0.9-1-1.4-2.4-1.4-4.1c0-1.2,0.2-2.4,0.6-3.6c0.4-1.1,1-2.2,1.7-3.1
		c0.7-0.9,1.6-1.7,2.7-2.2c1.1-0.6,2.2-0.8,3.5-0.8c1.4,0,2.5,0.3,3.1,0.9C325.1,160.6,325.4,161.4,325.4,162.3z M322.7,161.9
		c0-0.4-0.1-0.7-0.2-0.9s-0.2-0.4-0.4-0.5c-0.2-0.1-0.4-0.2-0.6-0.2s-0.4,0-0.6,0c-1.2,0-2.3,0.6-3.3,1.9c-1,1.3-1.6,2.9-1.9,4.8
		c0.7-0.1,1.5-0.2,2.3-0.4c0.9-0.2,1.6-0.4,2.2-0.7c0.8-0.4,1.4-1,1.8-1.6C322.5,163.6,322.7,162.8,322.7,161.9z"/>
	<path d="M351.4,161.9c0,1.5-0.2,3.1-0.7,4.6c-0.4,1.5-1,2.8-1.8,4c-0.9,1.3-1.8,2.3-2.9,3c-1.1,0.7-2.3,1-3.5,1
		c-0.9,0-1.8-0.3-2.6-0.8c-0.8-0.5-1.3-1.2-1.6-2.1c-0.4,0.3-0.7,0.7-1,1s-0.7,0.6-1.2,0.9s-0.9,0.6-1.3,0.7
		c-0.4,0.2-0.9,0.3-1.5,0.3c-0.7,0-1.4-0.1-1.9-0.3c-0.5-0.2-0.9-0.5-1.2-0.9c-0.3-0.4-0.5-0.8-0.6-1.2c-0.1-0.4-0.2-0.9-0.2-1.4
		c0-0.2,0-0.4,0.1-0.7c0-0.3,0.1-0.5,0.1-0.7l1.3-4.7c0.1-0.4,0.2-0.8,0.3-1.2c0.1-0.4,0.1-0.7,0.1-0.9c0-0.6-0.1-0.9-0.3-1.1
		c-0.2-0.2-0.6-0.3-1.1-0.3c-0.2,0-0.5,0-0.8,0.1s-0.6,0.1-0.8,0.2l0.2-1c0.8-0.3,1.4-0.6,2-0.8c0.6-0.2,1.1-0.3,1.4-0.3
		c0.8,0,1.4,0.2,1.7,0.6s0.6,0.9,0.6,1.6c0,0.2,0,0.4-0.1,0.7c0,0.3-0.1,0.6-0.2,0.9l-1.4,5.4c-0.1,0.4-0.2,0.7-0.2,1.1
		c-0.1,0.4-0.1,0.7-0.1,0.9c0,0.7,0.1,1.3,0.4,1.7c0.3,0.4,0.8,0.6,1.5,0.6c0.6,0,1.3-0.2,1.9-0.5c0.7-0.3,1.3-0.8,1.9-1.5l2.6-11.2
		l2.6-0.2l0.2,0.2l-2.1,9c-0.1,0.3-0.1,0.7-0.2,1.1c-0.1,0.4-0.1,0.7-0.1,0.8c0,0.5,0.1,1,0.3,1.3c0.2,0.3,0.4,0.5,0.7,0.7
		c0.3,0.1,0.5,0.2,0.8,0.3c0.3,0,0.5,0.1,0.8,0.1c0.7,0,1.4-0.2,2.1-0.6c0.7-0.4,1.3-1,1.8-1.7c0.6-0.8,1-1.6,1.4-2.5
		c0.3-0.9,0.5-1.9,0.5-3c0-0.6-0.1-1-0.2-1.4s-0.3-0.6-0.5-0.8c-0.2-0.2-0.4-0.5-0.5-0.8s-0.2-0.7-0.2-1.1c0-0.6,0.2-1,0.6-1.3
		c0.4-0.3,0.8-0.4,1.2-0.4c0.6,0,1,0.2,1.4,0.7S351.4,161,351.4,161.9z"/>
	<path d="M367.5,162.3c0,1-0.3,1.9-1,2.7c-0.7,0.7-1.6,1.3-2.9,1.8c-0.9,0.3-1.8,0.6-2.8,0.8c-0.9,0.2-2,0.4-3.1,0.5
		c0,1.6,0.3,2.7,0.9,3.6c0.6,0.8,1.4,1.2,2.5,1.2c1,0,1.9-0.2,2.6-0.7c0.8-0.5,1.5-1.2,2.2-2.2l0.8,0.6c-0.8,1.2-1.8,2.2-2.9,2.9
		c-1.2,0.7-2.4,1.1-3.7,1.1c-1.7,0-3.1-0.5-4-1.5c-0.9-1-1.4-2.4-1.4-4.1c0-1.2,0.2-2.4,0.6-3.6c0.4-1.1,1-2.2,1.7-3.1
		c0.7-0.9,1.6-1.7,2.7-2.2c1.1-0.6,2.2-0.8,3.5-0.8c1.4,0,2.5,0.3,3.1,0.9C367.2,160.6,367.5,161.4,367.5,162.3z M364.8,161.9
		c0-0.4-0.1-0.7-0.2-0.9c-0.1-0.2-0.2-0.4-0.4-0.5c-0.2-0.1-0.4-0.2-0.6-0.2s-0.4,0-0.6,0c-1.2,0-2.3,0.6-3.3,1.9
		c-1,1.3-1.6,2.9-1.9,4.8c0.7-0.1,1.5-0.2,2.3-0.4c0.9-0.2,1.6-0.4,2.2-0.7c0.8-0.4,1.4-1,1.8-1.6
		C364.6,163.6,364.8,162.8,364.8,161.9z"/>
	<path d="M378.5,151.5l-4.1,17.8c-0.1,0.4-0.2,0.7-0.3,1.1c-0.1,0.4-0.1,0.7-0.1,0.9c0,0.6,0.1,0.9,0.4,1.2c0.3,0.2,0.7,0.3,1.2,0.3
		c0.2,0,0.5,0,0.9-0.1c0.4,0,0.7-0.1,0.9-0.2l-0.2,0.9c-0.9,0.4-1.6,0.6-2,0.8s-1,0.2-1.6,0.2c-0.8,0-1.4-0.2-1.8-0.6
		c-0.4-0.4-0.6-0.9-0.6-1.5c0-0.2,0-0.5,0.1-0.7c0-0.2,0.1-0.6,0.2-0.9l3.6-15.5c0.1-0.3,0.1-0.5,0.1-0.6c0-0.1,0-0.3,0-0.4
		c0-0.4-0.1-0.6-0.2-0.8c-0.1-0.2-0.3-0.3-0.5-0.4c-0.2-0.1-0.5-0.1-0.8-0.2c-0.3,0-0.6-0.1-1-0.1l0.2-0.9l5.5-0.3L378.5,151.5z"/>
	<path d="M393.4,162.3c0,1-0.3,1.9-1,2.7s-1.6,1.3-2.9,1.8c-0.9,0.3-1.8,0.6-2.8,0.8c-0.9,0.2-2,0.4-3.1,0.5c0,1.6,0.3,2.7,0.9,3.6
		c0.6,0.8,1.4,1.2,2.5,1.2c1,0,1.9-0.2,2.6-0.7c0.8-0.5,1.5-1.2,2.2-2.2l0.8,0.6c-0.8,1.2-1.8,2.2-2.9,2.9c-1.2,0.7-2.4,1.1-3.7,1.1
		c-1.7,0-3.1-0.5-4-1.5c-0.9-1-1.4-2.4-1.4-4.1c0-1.2,0.2-2.4,0.6-3.6c0.4-1.1,1-2.2,1.7-3.1c0.7-0.9,1.6-1.7,2.7-2.2
		c1.1-0.6,2.2-0.8,3.5-0.8c1.4,0,2.5,0.3,3.1,0.9C393.1,160.6,393.4,161.4,393.4,162.3z M390.7,161.9c0-0.4-0.1-0.7-0.2-0.9
		c-0.1-0.2-0.2-0.4-0.4-0.5c-0.2-0.1-0.4-0.2-0.6-0.2c-0.2,0-0.4,0-0.6,0c-1.2,0-2.3,0.6-3.3,1.9c-1,1.3-1.6,2.9-1.9,4.8
		c0.7-0.1,1.5-0.2,2.3-0.4c0.9-0.2,1.6-0.4,2.2-0.7c0.8-0.4,1.4-1,1.8-1.6C390.5,163.6,390.7,162.8,390.7,161.9z"/>
	<path d="M409.6,161.6c0,0.3,0,0.6-0.1,0.9c-0.1,0.3-0.2,0.6-0.3,0.8c-0.2,0.3-0.4,0.5-0.6,0.6s-0.5,0.2-0.9,0.2
		c-0.5,0-0.9-0.1-1.2-0.4c-0.3-0.3-0.4-0.6-0.4-0.9c0-0.3,0.1-0.6,0.2-1s0.3-0.8,0.5-1.1c-0.1,0-0.3,0-0.6,0.1
		c-0.3,0.1-0.6,0.2-1,0.4c-0.4,0.2-0.8,0.5-1.3,0.8c-0.5,0.4-1,0.9-1.6,1.5l-2.4,10.6h-2.8l2.2-9.6c0-0.2,0.1-0.6,0.2-1.1
		c0.1-0.5,0.1-0.8,0.1-1c0-0.6-0.1-0.9-0.3-1.1c-0.2-0.2-0.6-0.3-1.1-0.3c-0.2,0-0.5,0-0.8,0.1c-0.3,0.1-0.6,0.1-0.8,0.2l0.2-0.9
		c0.8-0.3,1.4-0.6,2-0.8c0.6-0.2,1.1-0.3,1.5-0.3c0.8,0,1.3,0.2,1.7,0.6c0.3,0.4,0.5,1.1,0.5,1.9h0.1c1.2-1,2.1-1.7,2.7-2.1
		c0.6-0.4,1.2-0.6,1.9-0.6c0.3,0,0.6,0,0.9,0.1s0.5,0.2,0.8,0.4c0.2,0.2,0.4,0.4,0.5,0.7S409.6,161.1,409.6,161.6z"/>
</g>
<g>
	<path d="M386.1,57.5c0-2.1,0.5-4,1.6-5.9c1-1.8,2.5-3.3,4.3-4.3c1.8-1.1,3.8-1.6,5.9-1.6c2.1,0,4,0.5,5.9,1.6
		c1.8,1,3.3,2.5,4.3,4.3c1.1,1.8,1.6,3.8,1.6,5.9c0,2.1-0.5,4-1.5,5.8c-1,1.8-2.4,3.2-4.2,4.3c-1.8,1.1-3.8,1.6-6,1.6
		c-2.2,0-4.1-0.5-6-1.6c-1.8-1.1-3.2-2.5-4.3-4.3S386.1,59.6,386.1,57.5z M387.8,57.5c0,1.8,0.5,3.5,1.4,5.1s2.1,2.8,3.7,3.7
		c1.6,0.9,3.2,1.4,5,1.4c1.8,0,3.5-0.5,5-1.4s2.8-2.1,3.7-3.7c0.9-1.5,1.4-3.2,1.4-5.1c0-1.8-0.5-3.5-1.4-5
		c-0.9-1.6-2.1-2.8-3.7-3.7c-1.5-0.9-3.2-1.4-5.1-1.4c-1.8,0-3.5,0.5-5,1.4c-1.6,0.9-2.8,2.1-3.7,3.7
		C388.2,54,387.8,55.7,387.8,57.5z M402.6,54.7c0,0.8-0.2,1.6-0.7,2.2s-1.1,1.1-1.9,1.4l3.7,6.2h-2.6l-3.2-5.5h-2.1v5.5h-2.3V50.5
		h4.1c1.7,0,3,0.3,3.8,1S402.6,53.3,402.6,54.7z M395.8,57h1.7c0.8,0,1.5-0.2,2-0.6c0.5-0.4,0.8-1,0.8-1.6c0-0.8-0.2-1.3-0.7-1.7
		c-0.4-0.3-1.2-0.5-2.1-0.5h-1.7V57z"/>
</g>
</svg>
