<svg id="Layer_1" data-name="Layer 1" xmlns="http://www.w3.org/2000/svg" viewBox="0 0 536.42 95.08"><defs><style>.cls-1{fill:#fff;}</style></defs><title>timberland-full-logo-white</title><path class="cls-1" d="M564.9,362.4a4.82,4.82,0,0,1,4.9-4.8,4.85,4.85,0,1,1-4.9,4.8Zm4.9,4a4.05,4.05,0,1,0-3.9-4.1A3.84,3.84,0,0,0,569.8,366.4Zm-1-1.2H568v-5.6h2.1c1.3,0,2,.5,2,1.6s-.6,1.4-1.5,1.5l1.6,2.5h-1l-1.5-2.4h-1v2.4Zm1-3.2c.7,0,1.4-.1,1.4-.9s-.6-.8-1.2-.8h-1.2V362h1Z" transform="translate(-38.28 -348.69)"/><path class="cls-1" d="M409.8,361.1a4.82,4.82,0,0,1,4.9-4.8,4.85,4.85,0,1,1,0,9.7A4.78,4.78,0,0,1,409.8,361.1Zm4.9,4.1a4.05,4.05,0,0,0,0-8.1,4.05,4.05,0,0,0,0,8.1Zm-1-1.2h-.8v-5.6H415c1.3,0,2,.5,2,1.6a1.39,1.39,0,0,1-1.4,1.5l1.6,2.5h-1l-1.5-2.4h-1V364Zm1-3.2c.7,0,1.4-.1,1.4-.9s-.6-.8-1.2-.8h-1.2v1.7h1Z" transform="translate(-38.28 -348.69)"/><path class="cls-1" d="M94.2,353c1.9,7.4,3.6,14.9,5,22.5a4.22,4.22,0,0,1-1.2,3.6,4.57,4.57,0,0,1-2.8,1.5,5.23,5.23,0,0,1-4-1.7C88,374.1,87,368.4,83,364.1a3.44,3.44,0,0,0-3.6-.7l-.9.9.7,69.1a5.43,5.43,0,0,0,4.4,4.3,5.06,5.06,0,0,0,3.3-3.9l.2-3.9-.4-33.7c-.6-2.5-3.9-2.5-4.3-4.9.4-1.3,1.9-2.2,3-2.8,4.4-1.9,9-3.2,13.3-5.4,1.3-.1,2.9-.3,4.1.4l.8,1.1.5,48.3c.4,1.6.9,3.9,2.9,4.2.9.7.6,1.9.2,2.8-1,1.5-2.9,1.6-4.3,1.8H86.7c-1.3.1-2.3-.8-3.2-1.6-3.5,2.7-9.4,1.6-13.4,1.9-4.7-.5-10.6,1.3-14.7-1.5-.7-.5-.5-1.6-.5-2.2.8-1.6,3.1-1,3.6-2.9l.7-2.2L59,380.7l-.3-16.4a2.45,2.45,0,0,0-2.4-1.1c-1.8.2-2.9,2-3.8,3.3-2.1,3.7-3.5,7.8-5.3,11.6a5.31,5.31,0,0,1-3,2.7,4.77,4.77,0,0,1-4.9-1.5c-2.2-2.7-.2-6.3,0-9.2l3.6-16.7c.5-.8.9-2,1.9-2.2,2.9-1.1,3.6,3,6.3,2.2l36-.3c2.2-.2,3.5-3.5,6-1.9Z" transform="translate(-38.28 -348.69)"/><path class="cls-1" d="M314.6,353.9l.8,1.1.2,11.4.5,66.3c.3,1.9,1,3.7,3,4.6a3.4,3.4,0,0,1,.4,2.8c-.8,2.2-3.3,2.5-5.5,2.5l-15.1-.1a4.54,4.54,0,0,1-3.3-1.9,3.72,3.72,0,0,1-.1-3.1c1.5-1,3.2-2,3.4-4.1l-.1-30.9c-.2-2.5.1-6.2-.2-8.6-1.2,2.8.2,6.7-2.9,8.3a4.62,4.62,0,0,1-3.8-.6,10,10,0,0,1-2.5-4.9c-.9-.8-2-.2-2.9.2-11.7,8.3-6.6,24.5-7.6,37.1-.2,2.5,3.2,1.6,3.5,3.9a4.64,4.64,0,0,1-1.1,2.8c-1.1,1.1-2.9,1-4.2,1.2l-16.6-.2a3.39,3.39,0,0,1-2.4-2.1,2.47,2.47,0,0,1,.3-2.5c1-1,2.8-.8,3.2-2.4l.1-3.8-.3-34.8c-.2-2.9-4.6-2.7-4.2-5.9l2.1-1.9c4.8-2.1,9.8-3.6,14.5-5.8,1.8-.2,3.6-.2,4.6,1.4.5,2.5-.2,5.6.5,8.3.2.3.6.2.8.1,2.9-4.5,6.7-9.7,12.6-9.3,2.2.2,4.8.3,6,2.4l.3-.7-.2-13-.2-.1a15.15,15.15,0,0,0-.3-4.2c.2-2.9-4.4-3-3-6.1,4.2-4.9,11.1-4.4,16-8.2A5.39,5.39,0,0,1,314.6,353.9Z" transform="translate(-38.28 -348.69)"/><path class="cls-1" d="M525,362.6l2.5-.5s-3.9-8.6-5.5-13a12.38,12.38,0,0,1,3.9.3c1.9,3.3,5.4,9.7,5.4,9.7s6-3.4,9.1-5a5,5,0,0,1,2.5,1.5l-9.2,8.2,2.7,7.7s6.5-9.2,9.8-13.6a5.21,5.21,0,0,1,2.8,2c-1.3,2.4-3.3,4.6-4.3,6.9,3.9.3,7.9.2,11.7.5a12.11,12.11,0,0,1,2.6,3.9l-9.8.8-4.7,8.1,6.3-1.4s4.9-2.1,10.1-4.1a9.69,9.69,0,0,1,1.8,4l-10.6,4.2-9.4,2a29.37,29.37,0,0,0-3.2,4.9c8.4-1.5,16.6-4.2,25.1-5.9a46.7,46.7,0,0,1-5.3,37.8c-22.9,5.8-47.3-1.5-71,1.6l-6.9.8c-4.9-5.9-7.3-13.2-8.6-20.8a48.59,48.59,0,0,1,2.8-24.6c.7-.1,11.1-1,11.1-1l-6.4-7.8c.2-1.3,1.4-2.3,2.2-3.4,3.4,3.5,9.6,10.7,9.6,10.7l3.6-.3-11-12.6a16.78,16.78,0,0,1,4.6-4.6l9.3,1.7s-.1-5,.1-7.8a20.46,20.46,0,0,1,6.2-2.4c1.9,3.3,3.2,6.9,5.3,10.2,2.4-3.9,4.5-8.2,6.6-12.4a.9.9,0,0,1,1-.1Zm-6.9-4.5-5,9.4,2.9,9.7,4.3-3,1.2-8.1C520.4,363.4,519.3,360.6,518.1,358.1Zm-14.5.6v4.7l2.3.5A26.6,26.6,0,0,0,503.6,358.7Zm-12.1,5.6v.3c2.5,2.5,7.4,8,7.4,8v-6.2Zm37.6,2.2-2.2,1.4.5,1.6,2-1.8Zm-25.2,2,.3,8.7,3.3-7.6Zm40.3,3.7-3.1.4-4.9,7.8,3.2-.1Zm-19.3,5.7.4,9,6.7-8.6a3.93,3.93,0,0,0,.8-1.8l-1.3-4Zm-14.5-1.2-2.1,4.2,4,4.6A80.59,80.59,0,0,0,510.4,376.7Zm9.4,3.8-2.6,1.3.2,3.6,2.1.7ZM493,381l-3.6,5.6,7.3,2.8,6.1-5.3-2.3-2.5Zm-15.1,1.1,6.4,3,2-3.3Zm54.9,4.1-3.4,5.6,3.9-.4,3.5-5.7Zm-25.9,1.2-11.6,9.5-5.6.2a34.63,34.63,0,0,0,3-3.9,55,55,0,0,0-6.3-2.5l-4.1,5.5c-1.3.2-2.8,0-3.8.5-.3,4.6.7,8.8,1.5,13,.4,1.1.7,2.9,2.3,2.8,11.4,0,22.2,1.8,33.4,2.9V398.1a23.62,23.62,0,0,0-2.8-4.2l-5.2,3.1-9.6.1c-.1-.2,7.9-4.6,11.5-6.9C508.7,389.2,508.1,388,506.9,387.4Zm-27.8.2c-.7,1.5-.6,3.8-.5,5.4.9-1.5,3.1-4.4,3.1-4.4Zm81.6,2.3-4.1,1.2c1.1,2.2,3.6,6.5,3.6,6.5l-4.9.2-4.4-5.3-7.1,1.6,2,3.7-3.6.4-2.8-3.6s-10.1,2.9-15.1,4.5l-.3.5c.1,5.6.5,11,1.1,16.4l.5,1.2c9.4,1.8,18.9,2.2,28.9,2.8l.9-.4c2.7-3.9,4.2-8.2,5.7-12.6C562.6,401.7,563,394.7,560.7,389.9Z" transform="translate(-38.28 -348.69)"/><path class="cls-1" d="M196.8,353.6l.5,1.4.2,29.7c1.2,2.2,2.5-1.2,3.9-1.4,4.3-1.5,9.3.2,12.4,3.6,6,6.4,6.9,14.6,8.4,22.9l.2-.2c.9-9.6,2.9-19.7,11.6-24.9,4.6-2.8,11.3-2.5,15.7.1,5.4,4.8,9.7,10.7,9.5,18.1a16.55,16.55,0,0,1-.7,5.6c-6.4,3.1-13.3,5.3-19.8,8.1-1.5,1.2-.2,3.1,0,4.4,1.1,2.7,2.5,6.5,5.9,7,1.9.6,4.6,1.8,6.3.2,2-1.8.5-7.3,4.9-5.9a6.09,6.09,0,0,1,4.3,3c1.2,5.2-1.2,10-3.6,13.9-4.6,3.9-10.9,4.6-16.8,3.9-11.4-2.3-15.5-14.4-17.1-24.5-.9,9.2-1.5,20.3-11.6,24-6.2,1.7-13.1.5-17.5-3.9-.5-.8-.7-2-1.8-2.4-2.5.1-2.5,2.9-3.9,4.5-1.6,1-3.3,2.6-5.4,1.9a5.19,5.19,0,0,1-1.7-1.9c-2.2,2.4-5.3,1.6-8.3,1.8l-11.7-.2a3.55,3.55,0,0,1-3-2.5c-.2-1.4,1.2-2,2.2-2.5a9.6,9.6,0,0,0,1.5-6.2,232.06,232.06,0,0,0-2.9-30.3c-.6-2-1.2-4.3-2.9-5.6-1.3-.5-2.2.5-3.1,1.2l-1,1.6.1,35.8c.5,1.7,1.2,3.6,3.1,4.2a2.17,2.17,0,0,1,.2,2.2c-2.2,3.2-6.6,1.6-9.7,2-3.8-.5-9.8,1.5-12.4-2.1a2,2,0,0,1,.9-2.5c1.9-.5,2.3-2.6,2.9-4l-.3-37.4a4.22,4.22,0,0,0-3.5-2.2c-1.6.1-2.9,1.5-3.7,2.8-1.7,3.1-.7,6.6-.9,10.2l.3,26.9c-.1,2.3,2.2,3,3.2,4.4a3.09,3.09,0,0,1-1.7,3.2c-6.4,1.2-11.9.3-18.4.5-1.5-.3-3.2-.4-4-1.9-.3-.6-.5-1.7.2-2.2a5.24,5.24,0,0,0,3.1-3.4l.4-2-.4-35.9c-.4-2.9-4.8-2.5-4-5.6,2.1-2.5,5.5-3,8.3-4.3a50.87,50.87,0,0,0,7.6-3.2c1.9-.1,4.2-.4,5,1.5,0,1.4-.5,3.3.9,4,2.2-.2,2.5-2.8,4.3-3.9,3.5-2.9,9.4-2.3,13.2-.5,1.9,1.1,2.5,2.9,3.9,4.4,2.5,0,2.8-3.1,4.6-4.2,3.4-2.2,8.9-1.5,12.1.5,5.9,4.8,5.9,12.5,7.6,19.2a167.08,167.08,0,0,1,2.5,27.8c.3,1.9.2,4.9,2.6,5.5l.5.5.4-.8-.7-68.8c-.1-2.6-1.8-4.7-3.5-6.4a2.39,2.39,0,0,1,.5-2.3c3.8-3.6,9-3.9,13.4-6.3C192.1,352.1,195.4,351.8,196.8,353.6Zm38.5,39.6c-1.2,5.5-.8,10.3.2,15.7.4.7.6,1.9,1.7,1.9,2.1-1.2,4.6-1.7,6.3-3.8,3.5-5.5-.6-11.4-3.2-16.2C238.3,389.4,236,391.2,235.3,393.2Zm-32.4-1.9a4.33,4.33,0,0,0-2.4,2.2c-3.6,7.7-3.9,16.1-3,24.9.8,3.7,1.1,7.7,3.9,10.5.8.5,1.9-.2,2.7-.8,6.4-9.8,4.5-24.5.9-35.1C204.5,392.6,204.2,391.1,202.9,391.3Z" transform="translate(-38.28 -348.69)"/><path class="cls-1" d="M449.3,354l.2,3.5.7,72.2a2.15,2.15,0,0,0,1.4,1.9c.8.3,2.1.4,2.2,1.5a4.48,4.48,0,0,1-.8,3.4c-4.2,2.3-8.6,3.7-13,5.3-2.1.3-4.2,1.9-6.3.5-1.2-.9.8-2.7-1-3.2-1.9,1.2-3.2,3.5-5.3,4.1-4.8.9-9.6-1.1-13.1-4.3-7.6-8.7-7.1-22.4-5.4-33.7a35.48,35.48,0,0,1,9-20.4,10.58,10.58,0,0,1,9.4-2.5c1.8.3,2.9,1.8,4.5,2.8.4-.1.8-.3.8-.7l-.1-16.9c-.5-3.2-7.5-3.9-3.9-8.1,1.4-.8,3.4-.2,4.9-.9,4.4-2.5,9.3-4,13.8-6.3A2.35,2.35,0,0,1,449.3,354Zm-22.1,37.5c-1.4.4-1.7,1.9-2.2,2.9-1.9,6.9-3.4,14.7-2.3,22.3,1,4.3,1.2,9,4.9,12.3a1.92,1.92,0,0,0,2.6-.5c4.6-8.6,4-19.8,1.8-29.4C430.9,396.3,430.4,392.6,427.2,391.5Z" transform="translate(-38.28 -348.69)"/><path class="cls-1" d="M400,389.5a26.72,26.72,0,0,1,3.6,9.5,283,283,0,0,1,4.1,33.3,7.47,7.47,0,0,0,1.2,3.9c.9.8,2.3.9,2.3,2.3a3.17,3.17,0,0,1-1.9,2.8c-5.6,1-12,.5-17.8.5a3.94,3.94,0,0,1-3.1-2.2c-.2-.9-.1-2.2,1-2.6,2.3-.9,2.2-3.5,2.6-5.6.2-11.1-2.3-22.3-5.4-32.7a6.45,6.45,0,0,0-2.6-3.3,2.12,2.12,0,0,0-2.5,1l-.3,1.4.5,36c-.1,2.5,2.5,2.9,3.3,4.8.2,1.3-1,2.3-1.9,2.9-5.5,1-12.4.5-18,.4a3.88,3.88,0,0,1-3-2.4c-.5.4-1.4,1.4-2.1,2-2.1,1.7-4.7,1.8-7.2,1.7-2.9-.6-4.9-2.6-7.2-4.6h-1.4c-4.3,4.2-10.7,6.6-16.4,4-4.8-1.5-9.2-6-9.8-11.1-1.2-6.8-.8-14.5,4.9-18.9,4.5-4.9,10.3-6.7,16-8.7,1.2-2.5,1-5.9.2-8.5-.8-1.6-1.3-3.4-3.2-4.2l-5.3-.5c-.5.1-1.2.3-1.3.9.5,1.4,2.4,1.5,2.8,3.2.5,2.3.5,5.4-1.4,7.2-2.7,1.7-7,2.5-9.8.4-2.4-1.9-3-4.6-3-7.6-.1-4.7,4.1-8.1,8-9.7,5.6-1.9,11.5-1.6,17.5-.9a11.85,11.85,0,0,1,9.2,6.7c2.1,5.6,2.7,11.8,3.4,17.9.5,7,.8,14.4,1.2,21.4a2.25,2.25,0,0,0,1.3,1.8c1.2-.2,2.9,0,3,1.5a10.87,10.87,0,0,1,.8,3.9,3.81,3.81,0,0,0,2.9-2.3l.7-2.3-.4-36.4c-.2-3-7.8-4.3-2.5-7.3,4.3-2.1,8.9-3.7,13.1-6,1.4-.2,3.1-.2,4.2.8.8,1.1.2,2.6,1.2,3.6,1.4-.5,1.4-2.1,2.5-3a7.52,7.52,0,0,1,7.2-2A16,16,0,0,1,400,389.5ZM336.8,412c-5.6,3.2-4,10.2-4.2,15.4.5,2.1,1.2,4.8,3.6,5.6a4.67,4.67,0,0,0,5.1-1.5,192.33,192.33,0,0,0-.9-19.8C339.8,410.2,337.8,411.1,336.8,412Z" transform="translate(-38.28 -348.69)"/><path class="cls-1" d="M557.8,424.4A46.81,46.81,0,0,1,547.1,435c-21.6-.3-41.5-6.2-62.5-7.2a4.35,4.35,0,0,1-1.6-2.2c16.4-2.9,33.1-1.2,49.4-.2a114.49,114.49,0,0,0,25.6-1.7Z" transform="translate(-38.28 -348.69)"/><path class="cls-1" d="M525.5,434.7c6.3.7,12.6,1.2,18.8,2-13,9.1-33.8,9.3-47.3,1.3-3.7-2.3-7.6-4.8-10.6-8.3.2-.5.9-.1,1.4-.3l9,.8Z" transform="translate(-38.28 -348.69)"/></svg>