
<svg width="18" height="13" viewBox="0 0 18 13" xmlns="http://www.w3.org/2000/svg" xmlns:xlink="http://www.w3.org/1999/xlink" xmlns:figma="http://www.figma.com/figma/ns"><title>Vector 2</title><desc>Created using Figma</desc><use xlink:href="#a" transform="translate(-56 -570) translate(57 571)" fill="#C5D1DE" figma:type="vector"/><defs><path id="a" d="M.707 4.793c-.391-.391-1.024-.391-1.414 0-.391.391-.391 1.024 0 1.414l1.414-1.414zm4.293 5.707l-.707.707.707.707.707-.707-.707-.707zm11.207-9.793c.39-.391.39-1.024 0-1.414-.391-.391-1.024-.391-1.414 0l1.414 1.414zm-16.914 5.5l5 5 1.414-1.414-5-5-1.414 1.414zm6.414 5l10.5-10.5-1.414-1.414-10.5 10.5 1.414 1.414z"/></defs></svg>