
<?xml version="1.0" standalone="no"?>
<!DOCTYPE svg PUBLIC "-//W3C//DTD SVG 1.1//EN" "http://www.w3.org/Graphics/SVG/1.1/DTD/svg11.dtd" >
<svg xmlns="http://www.w3.org/2000/svg">
    <metadata>Generated by IcoMoon</metadata>
    <defs>
        <font id="icomoon" horiz-adv-x="1024">
            <font-face units-per-em="1024" ascent="960" descent="-64" />
            <missing-glyph horiz-adv-x="1024" />
            <glyph unicode="&#x20;" horiz-adv-x="512" d="" />
            <glyph unicode="&#xe900;" glyph-name="check" d="M325.818 221.091l-244.364 244.364-81.455-81.455 325.818-325.818 698.182 698.182-81.455 81.455z" />
            <glyph unicode="&#xe901;" glyph-name="doublecheck" d="M773.495 680.927l-61.528 61.528-276.876-276.876 61.528-61.528 276.876 276.876zM958.077 742.455l-461.46-465.855-184.584 184.584-61.528-61.528 246.112-246.112 527.383 527.383-65.923 61.528zM0 399.656l246.112-246.112 61.528 61.528-246.112 246.112-61.528-61.528z" />
            <glyph unicode="&#xe902;" glyph-name="more_vert" d="M512 278q34 0 60-26t26-60-26-60-60-26-60 26-26 60 26 60 60 26zM512 534q34 0 60-26t26-60-26-60-60-26-60 26-26 60 26 60 60 26zM512 618q-34 0-60 26t-26 60 26 60 60 26 60-26 26-60-26-60-60-26z" />
            <glyph unicode="&#xe903;" glyph-name="facebook" d="M767.965 959.787l-132.79 0.213c-149.185 0-245.595-98.913-245.595-252.008v-116.192h-133.514c-11.537 0-20.88-9.353-20.88-20.891v-168.35c0-11.537 9.353-20.88 20.88-20.88h133.514v-424.8c0-11.537 9.343-20.88 20.88-20.88h174.198c11.537 0 20.88 9.353 20.88 20.88v424.8h156.109c11.537 0 20.88 9.343 20.88 20.88l0.064 168.35c0 5.54-2.205 10.845-6.115 14.765s-9.236 6.125-14.776 6.125h-156.163v98.498c0 47.342 11.282 71.375 72.952 71.375l89.453 0.032c11.527 0 20.869 9.353 20.869 20.88v156.322c0 11.516-9.332 20.859-20.848 20.88z" />
            <glyph unicode="&#xe904;" glyph-name="user-check" d="M960 352l-288-288-96 96-64-64 160-160 352 352zM448 192h320v115.128c-67.22 39.2-156.308 66.11-256 74.26v52.78c70.498 39.728 128 138.772 128 237.832 0 159.058 0 288-192 288s-192-128.942-192-288c0-99.060 57.502-198.104 128-237.832v-52.78c-217.102-17.748-384-124.42-384-253.388h448v64z" />
            <glyph unicode="&#xe905;" glyph-name="user-minus" d="M384 224c0 151.234 95.874 280.486 230.032 330.2 16.28 36.538 25.968 77.164 25.968 117.8 0 159.058 0 288-192 288s-192-128.942-192-288c0-99.060 57.502-198.104 128-237.832v-52.78c-217.102-17.748-384-124.42-384-253.388h397.306c-8.664 30.53-13.306 62.732-13.306 96zM736 512c-159.058 0-288-128.942-288-288s128.942-288 288-288c159.056 0 288 128.942 288 288s-128.942 288-288 288zM896 192h-320v64h320v-64z" />
            <glyph unicode="&#xe906;" glyph-name="user-plus" d="M384 224c0 151.234 95.874 280.486 230.032 330.2 16.28 36.538 25.968 77.164 25.968 117.8 0 159.058 0 288-192 288s-192-128.942-192-288c0-99.060 57.502-198.104 128-237.832v-52.78c-217.102-17.748-384-124.42-384-253.388h397.306c-8.664 30.53-13.306 62.732-13.306 96zM736 512c-159.058 0-288-128.942-288-288s128.942-288 288-288c159.056 0 288 128.942 288 288s-128.942 288-288 288zM896 192h-128v-128h-64v128h-128v64h128v128h64v-128h128v-64z" />
            <glyph unicode="&#xe907;" glyph-name="archive2" d="M1016.988 307.99l-256 320c-6.074 7.592-15.266 12.010-24.988 12.010h-448c-9.72 0-18.916-4.418-24.988-12.010l-256-320c-4.538-5.674-7.012-12.724-7.012-19.99v-288c0-35.346 28.654-64 64-64h896c35.348 0 64 28.654 64 64v288c0 7.266-2.472 14.316-7.012 19.99zM960 256h-224l-128-128h-192l-128 128h-224v20.776l239.38 299.224h417.24l239.38-299.224v-20.776zM736 448h-448c-17.672 0-32 14.328-32 32s14.328 32 32 32h448c17.674 0 32-14.328 32-32s-14.326-32-32-32zM800 320h-576c-17.672 0-32 14.326-32 32s14.328 32 32 32h576c17.674 0 32-14.326 32-32s-14.326-32-32-32z" />
            <glyph unicode="&#xe908;" glyph-name="box-add" d="M832 896h-640l-192-192v-672c0-17.674 14.326-32 32-32h960c17.672 0 32 14.326 32 32v672l-192 192zM512 128l-320 256h192v192h256v-192h192l-320-256zM154.51 768l64 64h586.978l64-64h-714.978z" />
            <glyph unicode="&#xe909;" glyph-name="info" d="M636.539 960c68.567 0 102.84-46.766 102.84-100.239 0-66.785-59.535-128.563-137.124-128.563-64.963 0-102.861 38.42-101.059 101.857 0 53.463 45.107 126.945 135.342 126.945zM425.4-64c-54.139 0-93.839 33.403-55.941 180.378l62.157 260.68c10.824 41.748 12.595 58.44 0 58.44-16.261 0-86.538-28.836-128.102-57.242l-27.034 45.107c131.717 111.882 283.259 177.5 348.201 177.5 54.118 0 63.16-65.137 36.096-165.356l-71.158-274.022c-12.636-48.425-7.199-65.116 5.396-65.116 16.241 0 69.499 20.101 121.815 61.86l30.689-41.769c-128.123-130.284-267.981-180.46-322.12-180.46z" />
            <glyph unicode="&#xe90a;" glyph-name="whatsapp-filled" d="M515.735 960c-275.707 0-500.010-224.303-500.010-500.007 0-94.176 26.124-185.312 75.713-264.629l-81.189-216.959c-4.311-11.527-1.498-24.507 7.203-33.208 5.997-5.994 14.023-9.197 22.209-9.197 3.693 0 7.416 0.65 10.999 1.994l224.071 83.848c73.546-40.511 156.538-61.856 241.001-61.856 275.707 0 500.007 224.303 500.007 500.007 0.003 275.704-224.297 500.007-500.004 500.007zM756.67 302.978c-13.963-49.652-66.158-85.682-124.105-85.679-5.668 0-11.392 0.352-16.927 1.039-70.432 10.126-152.861 58.45-220.655 129.431-71.392 68.183-119.716 150.6-129.27 220.466-9.671 70.711 21.97 123.443 84.63 141.064 3.218 0.904 6.622 1.363 10.117 1.363 36.706 0 80.429-51.871 95.617-89.058 9.891-24.218 9.14-42.876-2.167-53.963-28.372-27.807-38.948-44.712-37.726-60.302 1.369-17.373 17.54-37.447 45.011-66.246 3.504-3.68 8.195-8.578 13.464-13.869 4.92-4.901 9.636-9.42 13.806-13.407 30.668-29.245 50.694-45.096 68.686-45.096 14.962 0.003 31.183 10.607 57.853 37.82 4.041 4.12 11.492 9.027 24.046 9.027 33.101 0 79.814-32.303 102.675-62.475 13.856-18.281 19.022-35.613 14.946-50.116z" />
            <glyph unicode="&#xe90b;" glyph-name="viber" d="M900.346 845.441c-80.944 79.356-211.808 117.808-389.022 114.343-178.69-3.514-298.135-34.878-375.899-98.706-75.188-61.708-110.206-152.004-110.206-284.167v-134.883c0-156.024 83.606-327.554 243.397-353.508 18.447-3.018 35.825 9.524 38.821 27.976 2.996 18.443-9.528 35.825-27.976 38.821-121.182 19.683-186.571 162.412-186.571 286.712v134.883c0 189.508 70.221 308.344 419.759 315.22 158.465 3.14 272.839-28.851 340.312-95.007 52.581-51.561 78.143-123.591 78.143-220.213v-134.883c0-204.251-91.677-294.341-326.814-320.868h-166.734c-8.973 0-17.581-3.564-23.924-9.912l-117.483-117.483c-13.214-13.214-13.214-34.639 0-47.853 6.605-6.605 15.267-9.912 23.924-9.912s17.319 3.302 23.924 9.912l107.576 107.576h154.607c1.245 0 2.495 0.068 3.735 0.208 134.568 14.946 226.718 49.969 289.992 110.224 66.53 63.359 98.873 154.328 98.873 278.113v134.879c0 114.135-33.119 204.481-98.435 268.531zM533.118 738.993c0.005 0 0.005 0 0.014 0 54.521 0 105.78-21.235 144.335-59.79 38.559-38.559 59.795-89.827 59.79-144.357 0-18.686 15.145-33.836 33.831-33.836 0.005 0 0.005 0 0.005 0 18.686 0 33.836 15.145 33.836 33.831 0.005 72.607-28.269 140.87-79.609 192.21-51.336 51.34-119.585 79.609-192.188 79.609-0.005 0-0.018 0-0.023 0-18.686 0-33.831-15.149-33.831-33.836 0.005-18.682 15.154-33.831 33.84-33.831zM533.109 620.008c46.955-0.009 85.163-38.212 85.167-85.163 0.005-18.686 15.149-33.836 33.84-33.831 18.691 0 33.836 15.154 33.831 33.84-0.014 84.256-68.57 152.812-152.83 152.825h-0.005c-18.686 0-33.831-15.145-33.836-33.831 0-18.686 15.145-33.84 33.831-33.84zM381.389 562.031c-15.425-10.548-19.381-31.603-8.838-47.027s31.603-19.377 47.027-8.833c12.131 8.292 40.544 27.718 38.55 66.553-1.263 23.243-22.228 56.429-39.592 80.177-25.399 34.747-47.289 55.676-64.924 62.163-16.467 6.131-33.687 6.262-51.218 0.379-36.313-12.235-62.678-34.346-76.239-63.941-13.205-28.81-12.912-61.92 0.853-95.769 32.51-79.753 78.021-149.577 135.574-207.829 57.95-57.246 127.769-102.757 207.554-135.285 17.265-7.024 34.346-10.539 50.763-10.539 15.745 0 30.881 3.23 44.984 9.695 29.595 13.566 51.701 39.926 63.95 76.284 5.865 17.491 5.734 34.702-0.347 51.056-6.533 17.762-27.466 39.647-62.208 65.046-23.753 17.365-56.939 38.329-80.272 39.597-38.753 1.949-58.162-26.415-66.454-38.546-10.548-15.425-6.6-36.48 8.824-47.032 15.429-10.552 36.48-6.6 47.032 8.824 3.681 5.382 5.784 7.827 6.988 8.897 18.993-6.086 73.153-45.877 82.902-61.126 0.239-0.974 0.293-2.459-0.609-5.161-4.268-12.673-12.591-29.261-27.998-36.326-14.432-6.605-30.831-2.553-42.029 1.999-71.493 29.148-133.909 69.774-185.231 120.469-50.984 51.606-91.61 114.022-120.74 185.488-4.566 11.224-8.621 27.633-2.012 42.051 7.060 15.407 23.654 23.735 36.286 27.994 2.698 0.902 4.182 0.853 5.211 0.605 15.253-9.767 55.022-63.896 61.112-82.893-1.074-1.187-3.514-3.293-8.897-6.97z" />
            <glyph unicode="&#xe90c;" glyph-name="telegram" horiz-adv-x="1218" d="M1213.533 865.79l-183.701-865.582c-12.684-61.671-49.862-76.105-101.473-47.675l-279.926 206.882-134.277-130.778c-15.746-15.308-27.993-27.993-55.985-27.993-36.303 0-30.179 13.559-42.426 48.112l-95.35 313.167-276.864 86.165c-59.922 18.37-60.359 59.484 13.559 88.789l1078.588 416.389c48.987 22.307 96.662-11.809 77.854-87.477v0z" />
            <glyph unicode="&#xe90d;" glyph-name="vk" d="M907.932 495.864c14.562 18.824 26.122 33.928 34.659 45.324 61.488 81.749 88.139 133.971 79.971 156.738l-3.205 5.332c-2.129 3.203-7.65 6.144-16.528 8.806-8.889 2.66-20.261 3.085-34.117 1.329l-153.545-1.083c-3.555 0.354-7.112 0.271-10.666-0.246-3.555-0.541-5.861-1.083-6.935-1.6-1.071-0.542-1.954-0.977-2.66-1.331l-2.129-1.6c-1.777-1.060-3.73-2.932-5.861-5.605-2.133-2.672-3.922-5.769-5.334-9.335-16.704-43.004-35.717-82.995-57.046-119.961-13.154-22.039-25.243-41.157-36.248-57.308-11.020-16.187-20.261-28.090-27.727-35.717-7.462-7.641-14.221-13.784-20.257-18.39-6.052-4.638-10.666-6.581-13.856-5.875-3.205 0.706-6.229 1.412-9.066 2.143-4.978 3.189-8.983 7.535-11.996 13.055-3.024 5.496-5.061 12.432-6.134 20.79-1.060 8.346-1.695 15.55-1.86 21.602-0.189 6.038-0.094 14.562 0.271 25.593 0.354 11.020 0.529 18.47 0.529 22.391 0 13.492 0.271 28.159 0.804 43.981 0.529 15.81 0.977 28.348 1.329 37.591 0.354 9.229 0.529 19.013 0.529 29.325 0 10.289-0.623 18.39-1.876 24.262-1.246 5.852-3.118 11.538-5.59 17.058-2.495 5.498-6.134 9.772-10.938 12.784-4.801 3.026-10.749 5.415-17.857 7.206-18.849 4.274-42.84 6.558-71.977 6.933-66.114 0.683-108.589-3.578-127.425-12.807-7.464-3.92-14.221-9.241-20.259-15.999-6.404-7.829-7.287-12.101-2.66-12.784 21.331-3.203 36.425-10.855 45.312-22.933l3.203-6.392c2.483-4.638 4.969-12.809 7.464-24.534 2.485-11.726 4.086-24.699 4.803-38.92 1.777-25.945 1.777-48.149 0-66.645-1.777-18.493-3.461-32.88-5.061-43.169-1.602-10.312-4.003-18.659-7.194-25.051-3.203-6.415-5.332-10.324-6.404-11.747-1.071-1.412-1.954-2.306-2.66-2.662-4.626-1.766-9.418-2.66-14.396-2.66-4.98 0-11.020 2.497-18.13 7.477-7.112 4.955-14.492 11.807-22.121 20.519-7.652 8.698-16.258 20.883-25.865 36.529-9.595 15.622-19.555 34.117-29.856 55.436l-8.523 15.47c-5.332 9.935-12.621 24.428-21.862 43.441s-17.424 37.4-24.522 55.188c-2.849 7.452-7.112 13.138-12.796 17.058l-2.66 1.6c-1.777 1.414-4.626 2.932-8.535 4.522-3.92 1.6-7.993 2.755-12.267 3.472l-146.083-1.060c-14.927 0-25.051-3.391-30.383-10.147l-2.131-3.191c-1.077-1.789-1.606-4.638-1.606-8.535 0-3.92 1.071-8.712 3.203-14.387 21.331-50.127 44.523-98.465 69.574-145.012 25.064-46.572 46.832-84.078 65.314-112.509 18.482-28.454 37.318-55.271 56.519-80.51s31.903-41.402 38.118-48.501c6.215-7.123 11.101-12.457 14.658-15.999l13.327-12.807c8.523-8.525 21.061-18.742 37.591-30.656 16.528-11.913 34.823-23.639 54.919-35.177 20.073-11.561 43.452-20.965 70.103-28.265 26.653-7.298 52.599-10.228 77.838-8.793h61.313c12.444 1.060 21.858 4.955 28.254 11.726l2.129 2.66c1.412 2.12 2.755 5.415 4.001 9.855 1.237 4.438 1.876 9.335 1.876 14.656-0.367 15.279 0.8 29.077 3.461 41.321 2.66 12.267 5.684 21.496 9.066 27.734 3.378 6.206 7.19 11.455 11.463 15.729 4.265 4.274 7.277 6.829 9.066 7.723 1.777 0.871 3.205 1.495 4.265 1.872 8.522 2.839 18.563 0.083 30.123-8.264 11.549-8.371 22.393-18.659 32.528-30.926 10.122-12.267 22.294-26.028 36.517-41.321 14.21-15.279 26.651-26.651 37.318-34.115l10.666-6.417c7.108-4.249 16.339-8.158 27.723-11.726 11.372-3.543 21.333-4.438 29.854-2.66l136.489 2.143c13.504 0 23.993 2.212 31.458 6.663 7.462 4.415 11.903 9.335 13.327 14.656 1.412 5.332 1.506 11.347 0.271 18.118-1.246 6.746-2.495 11.455-3.73 14.115-1.246 2.66-2.404 4.897-3.476 6.663-17.774 31.986-51.716 71.271-101.831 117.83l-1.071 1.060-0.529 0.541-0.529 0.519h-0.535c-22.756 21.685-37.143 36.26-43.183 43.735-11.016 14.196-13.513 28.594-7.462 43.167 4.238 11.051 20.225 34.336 47.947 69.89z" />
            <glyph unicode="&#xe90e;" glyph-name="whatsapp" d="M1024 461.173c0-275.475-225.055-498.794-502.734-498.794-88.119 0-170.895 22.539-242.952 62.007l-278.313-88.386 90.723 267.695c-45.746 75.13-72.091 163.348-72.091 257.511 0.033 275.475 225.022 498.794 502.701 498.794 277.646-0.067 502.667-223.352 502.667-498.827zM521.233 880.463c-233.035 0-422.596-188.125-422.596-419.39 0-91.758 29.918-176.705 80.506-245.824l-52.758-155.702 162.347 51.589c66.782-43.809 146.686-69.32 232.501-69.32 233.035 0 422.663 188.091 422.663 419.357 0.067 231.165-189.594 419.29-422.663 419.29zM775.137 346.274c-3.139 5.042-11.353 8.114-23.641 14.258-12.254 6.144-72.926 35.695-84.179 39.702-11.353 4.107-19.567 6.177-27.781-6.077-8.114-12.254-31.755-39.769-39.001-47.983-7.179-8.181-14.358-9.216-26.679-3.172-12.321 6.211-52.056 19.033-99.138 60.671-36.63 32.456-61.373 72.425-68.518 84.679-7.246 12.221-0.735 18.832 5.376 24.91 5.51 5.51 12.321 14.291 18.499 21.47 6.177 7.112 8.214 12.154 12.321 20.335 4.040 8.181 2.003 15.293-1.035 21.47-3.072 6.144-27.681 66.248-37.999 90.723-10.251 24.442-20.502 20.402-27.714 20.402-7.179 0-15.393 1.002-23.607 1.002s-21.571-2.972-32.823-15.226-43.108-41.805-43.108-101.976c0-60.237 44.109-118.304 50.287-126.451 6.211-8.114 85.28-135.634 210.53-184.585 125.316-48.918 125.316-32.59 147.888-30.519 22.639 2.070 72.926 29.551 83.143 58.067 10.284 28.649 10.284 53.192 7.179 58.301z" />
            <glyph unicode="&#xe90f;" glyph-name="share" d="M864 256c-45.16 0-85.92-18.738-115.012-48.83l-431.004 215.502c1.314 8.252 2.016 16.706 2.016 25.328s-0.702 17.076-2.016 25.326l431.004 215.502c29.092-30.090 69.852-48.828 115.012-48.828 88.366 0 160 71.634 160 160s-71.634 160-160 160-160-71.634-160-160c0-8.622 0.704-17.076 2.016-25.326l-431.004-215.504c-29.092 30.090-69.852 48.83-115.012 48.83-88.366 0-160-71.636-160-160 0-88.368 71.634-160 160-160 45.16 0 85.92 18.738 115.012 48.828l431.004-215.502c-1.312-8.25-2.016-16.704-2.016-25.326 0-88.368 71.634-160 160-160s160 71.632 160 160c0 88.364-71.634 160-160 160z" />
            <glyph unicode="&#xe910;" glyph-name="Call" d="M86.88 207.744c-36.192 0-56.896 31.040-64.192 44.352-12.032 22.016-18.464 47.68-18.496 74.080 0 131.648 28.384 212.096 92.096 261.088 65.696 50.528 196.096 101.024 376.576 101.024h77.952c180.448 0 310.976-50.624 376.768-101.248 63.744-48.928 92.192-129.28 92.192-260.576-0.16-26.4-6.464-51.968-18.432-74.016-5.088-9.216-11.168-17.344-18.080-24.288-2.368-2.304-5.024-4.704-7.712-6.848-11.84-8.992-24.864-13.568-38.656-13.568-61.184 0-157.824 16.928-203.296 32.288-33.824 11.264-43.776 47.168-46.496 62.016-3.52 19.136-3.52 37.92-3.52 51.68v10.944c-0.256 8.96-0.32 17.088-0.32 24.416-0.128 11.232-0.224 20.512-0.704 27.328-0.96 11.872-2.816 17.632-6.944 21.952-4.896 5.44-14.816 9.568-30.112 12.576-19.744 3.904-80.128 12.576-117.952 12.576l-30.656 0.096c-39.744-0.032-99.36-8.608-118.208-12.448-15.36-3.136-25.312-7.232-30.208-12.576-4.192-4.8-6.080-10.976-7.040-22.208-0.576-6.336-0.576-14.624-0.64-24.64 0-8.64 0-17.248-0.192-26.72l-0.096-10.176c0-14.048-0.128-33.504-3.68-52.768-2.688-14.88-12.672-50.784-46.528-62.016-45.568-15.36-142.24-32.32-203.424-32.32zM524.928 510.72l5.472-0.192c43.424-0.256 102.4-8.864 124.128-13.184 26.080-5.248 44-13.952 56.192-27.488 10.72-11.968 16.896-28.16 18.72-49.408 0.928-11.040 0.864-21.888 0.8-33.184 0-6.848 0-13.952 0.192-21.184l0.16-13.088c0.224-14.24 0.48-30.24 2.624-42.368 2.496-13.376 4.832-22.368 15.2-25.856 30.336-10.048 142.848-29.728 188.544-29.728 4.256 0 8.224 1.696 12.192 5.024 3.68 3.328 7.264 8.096 10.72 14.624 7.424 13.632 12.704 34.816 12.768 51.744 0 120.16-20.544 182.816-73.504 223.456-54.624 41.984-185.696 91.488-347.936 91.488l-78.24-0.288c-162.272 0-293.248-49.44-347.584-91.2-53.408-40.992-74.176-103.616-74.176-223.424 0.128-16.512 5.504-37.6 13.088-51.488 5.088-9.312 12.256-19.936 22.72-19.936 46.208 0 158.752 19.456 188.704 29.504 10.784 3.392 12.64 13.408 14.944 26.016 2.304 12.576 2.592 28.576 2.912 44.192l0.16 11.232c0.192 6.656 0.192 13.12 0.192 19.36-0.096 13.12-0.096 23.968 0.832 35.040 1.76 21.568 7.84 37.728 18.432 49.632 12.096 13.472 29.984 22.144 56.096 27.424 21.92 4.32 80.768 12.864 123.776 13.056l3.872 0.32h28.096v-0.128h-0.096z" />
            <glyph unicode="&#xe911;" glyph-name="share2" d="M256 320c0 0 58.824 192 384 192v-192l384 256-384 256v-192c-256 0-384-159.672-384-320zM704 192h-576v384h125.876c10.094 11.918 20.912 23.334 32.488 34.18 43.964 41.19 96.562 72.652 156.114 93.82h-442.478v-640h832v268.624l-128-85.334v-55.29z" />
            <glyph unicode="&#xe912;" glyph-name="attachment" d="M665.832 632.952l-64.952 64.922-324.81-324.742c-53.814-53.792-53.814-141.048 0-194.844 53.804-53.792 141.060-53.792 194.874 0l389.772 389.708c89.714 89.662 89.714 235.062 0 324.726-89.666 89.704-235.112 89.704-324.782 0l-409.23-409.178c-0.29-0.304-0.612-0.576-0.876-0.846-125.102-125.096-125.102-327.856 0-452.906 125.054-125.056 327.868-125.056 452.988 0 0.274 0.274 0.516 0.568 0.82 0.876l0.032-0.034 279.332 279.292-64.986 64.92-279.33-279.262c-0.296-0.268-0.564-0.57-0.846-0.844-89.074-89.058-233.98-89.058-323.076 0-89.062 89.042-89.062 233.922 0 322.978 0.304 0.304 0.604 0.582 0.888 0.846l-0.046 0.060 409.28 409.166c53.712 53.738 141.144 53.738 194.886 0 53.712-53.734 53.712-141.148 0-194.84l-389.772-389.7c-17.936-17.922-47.054-17.922-64.972 0-17.894 17.886-17.894 47.032 0 64.92l324.806 324.782z" />
            <glyph unicode="&#xe913;" glyph-name="manychat" horiz-adv-x="1045" d="M445.389 599.088c0-13.331-10.807-24.138-24.138-24.138s-24.138 10.807-24.138 24.138c0 13.331 10.807 24.138 24.138 24.138 13.329 0 24.138-10.809 24.138-24.138zM641.624 599.088c0-13.331-10.807-24.138-24.138-24.138s-24.138 10.807-24.138 24.138c0 13.331 10.807 24.138 24.138 24.138s24.138-10.809 24.138-24.138zM822.847 74.657c-60.795-0.003-121.53 23.464-167.305 70.25-39.315 40.18-62.869 93.176-66.312 149.22-3.41 55.457 12.976 110.368 46.133 154.614 2.273 3.027 6.635 7.945 16.291 18.788 19.318 21.683 55.271 62.048 66.392 81.126 25.379 43.551 39.359 91.714 39.359 135.613 0 30.696-6.686 60.378-19.869 88.222-2.123 4.481-2.967 9.456-2.453 14.384 1.024 9.759 13.452 58.151 24.208 98.931-40.247-8.452-87.988-18.026-99.569-18.417-5.001-0.172-10.022 1.068-14.389 3.58-37.143 21.364-79.994 32.654-123.921 32.654-130.126 0-235.99-98.403-235.99-219.354 0-43.901 13.977-92.067 39.361-135.618 11.054-18.96 46.73-59.266 65.895-80.92 9.721-10.982 14.114-15.967 16.402-19.032 33.017-44.238 49.296-99.093 45.842-154.46-3.492-55.959-27.036-108.878-66.294-149.001-43.718-44.686-102.22-69.668-164.728-70.348-62.539-0.767-121.545 23.019-166.226 66.737-0.535 0.528-1.050 1.071-1.539 1.642l-0.672 0.777c-52.497 56.692-67.728 139.522-38.792 211.165 15.892 39.343 46.156 70.147 85.213 86.729 39.060 16.582 82.236 16.965 121.584 1.073 65.113-26.3 96.689-100.671 70.394-165.786-5.587-13.836-21.33-20.522-35.179-14.94-13.838 5.593-20.525 21.338-14.937 35.179 15.141 37.482-3.039 80.292-40.519 95.433-25.96 10.49-54.448 10.233-80.218-0.705-25.772-10.943-45.739-31.267-56.221-57.225-21.176-52.43-9.955-113.065 28.591-154.478 0.221-0.244 0.44-0.484 0.656-0.733l0.219-0.255c34.268-33.138 79.474-51.125 127.058-50.564 48.073 0.522 93.065 19.737 126.687 54.1 62.426 63.803 69.058 161.936 15.769 233.339-1.325 1.717-7.824 9.057-13.558 15.534-29.538 33.372-59.441 67.774-72.119 89.529-30.124 51.686-46.714 109.514-46.714 162.832 0 150.751 130.108 273.4 290.036 273.4 50.268 0 99.463-12.222 142.891-35.426 20.159 3.191 76.476 14.706 126.716 25.605 9.203 2 18.798-0.95 25.299-7.775 6.498-6.828 8.972-16.546 6.524-25.649-13.625-50.688-28.251-107.012-32.739-127.027 14.168-32.732 21.343-67.378 21.343-103.128 0-53.316-16.587-111.14-46.709-162.829-12.786-21.93-42.939-56.414-72.729-89.856-5.67-6.367-12.094-13.581-13.46-15.336-52.613-70.206-45.924-170.643 15.619-233.542 69.409-70.935 183.588-72.18 254.52-2.777 0.252 0.247 0.502 0.484 0.757 0.713 38.834 41.533 50.281 101.991 29.139 154.328-21.644 53.591-82.853 79.574-136.439 57.933-37.482-15.141-55.66-57.951-40.519-95.436 5.587-13.841-1.099-29.587-14.937-35.179-13.841-5.582-29.587 1.104-35.179 14.94-26.3 65.116 5.281 139.486 70.394 165.786 39.348 15.895 82.521 15.514 121.581-1.073 39.060-16.582 69.321-47.386 85.208-86.729 29.18-72.234 13.18-155.654-40.751-212.523-0.502-0.533-1.029-1.045-1.578-1.534l-0.317-0.283c-45.394-44.192-104.323-66.212-163.2-66.217zM560.982 474.22h-83.226c-8.174 0-14.798 6.625-14.798 14.798s6.625 14.798 14.798 14.798h83.226c8.174 0 14.798-6.625 14.798-14.798s-6.627-14.798-14.798-14.798zM767.295-44.327c-58.103 0-124.984 25.317-178.904 67.72-29.445 23.158-52.543 49.319-68.588 77.222-16.047-27.903-39.142-54.064-68.588-77.222-53.923-42.406-120.802-67.72-178.904-67.72-14.925 0-27.023 12.099-27.023 27.023s12.099 27.023 27.023 27.023c45.698 0 101.448 21.516 145.493 56.157 27.8 21.861 74.435 67.81 74.435 129.884 0 14.925 12.099 27.023 27.023 27.023h1.081c14.925 0 27.023-12.099 27.023-27.023 0-62.074 46.634-108.023 74.435-129.884 44.045-34.641 99.795-56.157 145.493-56.157 14.925 0 27.023-12.099 27.023-27.023s-12.099-27.023-27.023-27.023z" />
            <glyph unicode="&#xe914;" glyph-name="mail" d="M896 800h-768c-70.688 0-128-57.344-128-128v-416c0-70.688 57.312-128 128-128h768c70.688 0 128 57.312 128 128v416c0 70.656-57.312 128-128 128zM64 632l223.968-168-223.968-168v336zM960 256c0-35.328-28.736-64-64-64h-768c-35.296 0-64 28.672-64 64l250.624 188 139.776-104.864c17.056-12.736 37.312-19.2 57.6-19.2 20.256 0 40.512 6.432 57.568 19.2l139.808 104.864 250.624-188zM960 296l-224 168 224 168v-336zM550.368 364.736c-11.168-8.384-24.416-12.8-38.368-12.8s-27.232 4.448-38.4 12.8l-409.6 307.264c0 35.296 28.704 64 64 64h768c35.264 0 64-28.704 64-64l-409.632-307.264z" />
            <glyph unicode="&#xe915;" glyph-name="minus" d="M0 544v-192c0-17.672 14.328-32 32-32h960c17.672 0 32 14.328 32 32v192c0 17.672-14.328 32-32 32h-960c-17.672 0-32-14.328-32-32z" />
            <glyph unicode="&#xe916;" glyph-name="plus" d="M992 576h-352v352c0 17.672-14.328 32-32 32h-192c-17.672 0-32-14.328-32-32v-352h-352c-17.672 0-32-14.328-32-32v-192c0-17.672 14.328-32 32-32h352v-352c0-17.672 14.328-32 32-32h192c17.672 0 32 14.328 32 32v352h352c17.672 0 32 14.328 32 32v192c0 17.672-14.328 32-32 32z" />
            <glyph unicode="&#xe917;" glyph-name="arrow-right" d="M621.254 82.746l320 320c24.994 24.992 24.994 65.516 0 90.51l-320 320c-24.994 24.992-65.516 24.992-90.51 0-24.994-24.994-24.994-65.516 0-90.51l210.746-210.746h-613.49c-35.346 0-64-28.654-64-64s28.654-64 64-64h613.49l-210.746-210.746c-12.496-12.496-18.744-28.876-18.744-45.254s6.248-32.758 18.744-45.254c24.994-24.994 65.516-24.994 90.51 0z" />
            <glyph unicode="&#xe918;" glyph-name="arrow-left" d="M402.746 82.746l-320 320c-24.994 24.992-24.994 65.516 0 90.51l320 320c24.994 24.992 65.516 24.992 90.51 0 24.994-24.994 24.994-65.516 0-90.51l-210.746-210.746h613.49c35.346 0 64-28.654 64-64s-28.654-64-64-64h-613.49l210.746-210.746c12.496-12.496 18.744-28.876 18.744-45.254s-6.248-32.758-18.744-45.254c-24.994-24.994-65.516-24.994-90.51 0z" />
            <glyph unicode="&#xe919;" glyph-name="pencil" d="M864 960c88.364 0 160-71.634 160-160 0-36.020-11.91-69.258-32-96l-64-64-224 224 64 64c26.742 20.090 59.978 32 96 32zM64 224l-64-288 288 64 592 592-224 224-592-592zM715.578 596.422l-448-448-55.156 55.156 448 448 55.156-55.156z" />
            <glyph unicode="&#xe91a;" glyph-name="cross" d="M1014.662 137.34c-0.004 0.004-0.008 0.008-0.012 0.010l-310.644 310.65 310.644 310.65c0.004 0.004 0.008 0.006 0.012 0.010 3.344 3.346 5.762 7.254 7.312 11.416 4.246 11.376 1.824 24.682-7.324 33.83l-146.746 146.746c-9.148 9.146-22.45 11.566-33.828 7.32-4.16-1.55-8.070-3.968-11.418-7.31 0-0.004-0.004-0.006-0.008-0.010l-310.648-310.652-310.648 310.65c-0.004 0.004-0.006 0.006-0.010 0.010-3.346 3.342-7.254 5.76-11.414 7.31-11.38 4.248-24.682 1.826-33.83-7.32l-146.748-146.748c-9.148-9.148-11.568-22.452-7.322-33.828 1.552-4.16 3.97-8.072 7.312-11.416 0.004-0.002 0.006-0.006 0.010-0.010l310.65-310.648-310.65-310.652c-0.002-0.004-0.006-0.006-0.008-0.010-3.342-3.346-5.76-7.254-7.314-11.414-4.248-11.376-1.826-24.682 7.322-33.83l146.748-146.746c9.15-9.148 22.452-11.568 33.83-7.322 4.16 1.552 8.070 3.97 11.416 7.312 0.002 0.004 0.006 0.006 0.010 0.010l310.648 310.65 310.648-310.65c0.004-0.002 0.008-0.006 0.012-0.008 3.348-3.344 7.254-5.762 11.414-7.314 11.378-4.246 24.684-1.826 33.828 7.322l146.746 146.748c9.148 9.148 11.57 22.454 7.324 33.83-1.552 4.16-3.97 8.068-7.314 11.414z" />
            <glyph unicode="&#xe91b;" glyph-name="external" d="M786.287 374.866h-36.575c-5.342 0-9.725-1.711-13.136-5.15-3.439-3.418-5.15-7.8-5.15-13.136v-182.855c0-25.144-8.947-46.664-26.85-64.571-17.903-17.903-39.431-26.848-64.575-26.848h-475.434c-25.142 0-46.668 8.945-64.575 26.848-17.903 17.905-26.854 39.425-26.854 64.571v475.428c0 25.142 8.949 46.66 26.854 64.565 17.907 17.907 39.433 26.856 64.575 26.856h402.281c5.342 0 9.725 1.719 13.15 5.144 3.424 3.428 5.136 7.806 5.136 13.144v36.577c0 5.328-1.711 9.713-5.136 13.136-3.424 3.428-7.808 5.14-13.15 5.14h-402.281c-45.329 0-84.093-16.096-116.289-48.285-32.183-32.187-48.279-70.952-48.279-116.281v-475.43c0-45.327 16.096-84.097 48.281-116.275 32.195-32.191 70.96-48.295 116.289-48.295h475.432c45.327 0 84.095 16.104 116.287 48.295 32.193 32.177 48.289 70.946 48.289 116.275v182.849c0 5.342-1.713 9.725-5.152 13.15-3.428 3.439-7.812 5.15-13.14 5.15zM1013.136 875.997c-7.239 7.239-15.822 10.856-25.719 10.856h-292.569c-9.903 0-18.479-3.617-25.713-10.856-7.239-7.235-10.864-15.808-10.864-25.713s3.625-18.479 10.864-25.719l100.567-100.569-372.565-372.573c-3.815-3.809-5.716-8.192-5.716-13.136 0-4.962 1.907-9.343 5.716-13.152l65.143-65.135c3.809-3.809 8.192-5.708 13.144-5.708s9.337 1.897 13.144 5.708l372.567 372.567 100.575-100.569c7.233-7.239 15.808-10.86 25.713-10.86s18.479 3.621 25.721 10.86c7.239 7.237 10.856 15.808 10.856 25.713v292.573c-0.002 9.911-3.631 18.477-10.864 25.713z" />
            <glyph unicode="&#xe91c;" glyph-name="copy" d="M563.2 972.8h-409.6c-28.314 0-51.2-22.886-51.2-51.2v-614.4c0-28.262 22.886-51.2 51.2-51.2h256v-102.4h102.4v102.4h-102.349v102.4h102.349v102.4h-102.4v-102.4h-204.8v512h307.2v-204.8h102.4v256c0 28.262-22.886 51.2-51.2 51.2zM409.6 614.4v-51.2h102.4v102.4h-51.2c-28.314 0-51.2-22.886-51.2-51.2zM614.4-51.2h102.4v102.4h-102.4v-102.4zM614.4 563.2h102.4v102.4h-102.4v-102.4zM409.6 0c0-28.262 22.886-51.2 51.2-51.2h51.2v102.4h-102.4v-51.2zM870.4 665.6h-51.2v-102.4h102.4v51.2c0 28.262-22.886 51.2-51.2 51.2zM819.2-51.2h51.2c28.314 0 51.2 22.938 51.2 51.2v51.2h-102.4v-102.4zM819.2 358.4h102.4v102.4h-102.4v-102.4zM819.2 153.6h102.4v102.4h-102.4v-102.4z" />
            <glyph unicode="&#xe91d;" glyph-name="text" d="M844.469 952.032h-664.938c-98.995 0-179.531-80.539-179.531-179.534v-410.135c0-98.995 80.536-179.531 179.531-179.531l423.53-0.003 202.744-202.741c6.871-6.874 16.052-10.519 25.399-10.519 4.625 0 9.29 0.896 13.731 2.737 13.417 5.555 22.167 18.643 22.167 33.169v178.776c88.355 11.16 156.899 86.781 156.899 178.112v410.135c0 98.995-80.536 179.534-179.531 179.534zM952.188 362.359c0-59.398-48.321-107.719-107.719-107.719h-13.274c-19.829 0-35.906-16.080-35.906-35.906v-126.574l-151.964 151.964c-6.733 6.736-15.862 10.516-25.39 10.516h-438.404c-59.398 0-107.719 48.321-107.719 107.719v410.135c0 59.398 48.321 107.719 107.719 107.719h664.938c59.398 0 107.719-48.321 107.719-107.719v-410.135zM776.27 697.778h-528.54c-19.829 0-35.906-16.075-35.906-35.906 0-19.829 16.077-35.906 35.906-35.906h528.54c19.829 0 35.906 16.077 35.906 35.906 0 19.832-16.075 35.906-35.906 35.906zM776.27 496.703h-528.54c-19.829 0-35.906-16.075-35.906-35.906s16.077-35.906 35.906-35.906h528.54c19.829 0 35.906 16.077 35.906 35.906s-16.075 35.906-35.906 35.906z" />
            <glyph unicode="&#xe91e;" glyph-name="Card-preview" d="M871.68 869.44h-719.584c-81.312 0-147.392-66.112-147.392-147.36v-548.128c0-81.312 66.080-147.36 147.392-147.36h719.68c81.344 0 147.456 66.048 147.456 147.36v548.032c-0.032 81.344-66.24 147.456-147.552 147.456zM152.064 770.24h719.68c26.592 0 48.32-21.632 48.32-48.256v-386.816h-816.16v386.816c0 26.656 21.568 48.256 48.16 48.256zM871.68 125.664h-719.584c-26.592 0-48.192 21.728-48.192 48.288v62.048h816.064v-62.048c0-26.624-21.632-48.288-48.288-48.288z" />
            <glyph unicode="&#xe91f;" glyph-name="messenger" horiz-adv-x="1018" d="M508.84 960c-281.025 0-508.84-212.249-508.84-474.074 0-149.191 73.993-282.267 189.63-369.168v-180.758l173.255 95.678c46.238-12.876 95.223-19.826 145.955-19.826 281.025 0 508.84 212.249 508.84 474.074s-227.815 474.074-508.84 474.074zM559.407 321.58l-129.58 139.062-252.84-139.062 278.123 297.086 132.741-139.062 249.679 139.062-278.123-297.086z" />
            <glyph unicode="&#xe920;" glyph-name="filter" d="M512 960c-282.77 0-512-71.634-512-160v-96l384-384v-320c0-35.346 57.306-64 128-64 70.692 0 128 28.654 128 64v320l384 384v96c0 88.366-229.23 160-512 160zM94.384 821.176c23.944 13.658 57.582 26.62 97.278 37.488 87.944 24.076 201.708 37.336 320.338 37.336 118.628 0 232.394-13.26 320.338-37.336 39.696-10.868 73.334-23.83 97.28-37.488 15.792-9.006 24.324-16.624 28.296-21.176-3.972-4.552-12.506-12.168-28.296-21.176-23.946-13.658-57.584-26.62-97.28-37.488-87.942-24.076-201.708-37.336-320.338-37.336s-232.394 13.26-320.338 37.336c-39.696 10.868-73.334 23.83-97.278 37.488-15.792 9.008-24.324 16.624-28.298 21.176 3.974 4.552 12.506 12.168 28.298 21.176z" />
            <glyph unicode="&#xe921;" glyph-name="next-2" horiz-adv-x="417" d="M412.996 472.252l-184.244 151.841c-3.42 2.821-8.208 3.42-12.226 1.539s-6.583-5.985-6.583-10.431v-80.024c-89.429-3.249-150.901-34.797-182.876-93.875-27.53-50.956-27.273-111.316-27.017-151.243 0-3.249 0-6.327 0-9.234 0-5.215 3.505-9.832 8.635-11.2 0.94-0.257 1.967-0.342 2.907-0.342 4.104 0 7.951 2.138 10.003 5.814 62.412 110.034 113.795 115.334 188.262 115.591v-79.768c0-4.446 2.565-8.549 6.669-10.431s8.806-1.282 12.312 1.539l184.159 152.354c2.65 2.223 4.189 5.472 4.189 8.892s-1.539 6.754-4.189 8.977z" />
            <glyph unicode="&#xe922;" glyph-name="sort" d="M774.591-21.107c0-14.228 11.508-25.736 25.736-25.736s25.736 11.508 25.736 25.736v876.28l153.998-153.998c5.022-5.022 11.508-7.532 18.204-7.532s13.182 2.511 18.204 7.532c10.043 10.043 10.043 26.154 0 36.198l-197.728 197.728c-9.625 9.625-26.573 9.625-36.198 0l-197.728-197.728c-10.043-10.043-10.043-26.154 0-36.198s26.154-10.043 36.198 0l153.998 153.998v-876.28h-0.418zM439.186 194.825c-10.043 10.043-26.154 10.043-36.198 0l-153.998-153.998v876.28c0 14.228-11.508 25.736-25.736 25.736s-25.736-11.508-25.736-25.736v-876.28l-153.788 153.998c-10.043 10.043-26.154 10.043-36.198 0s-10.043-26.154 0-36.198l197.728-197.728c5.022-5.022 11.508-7.532 18.204-7.532s13.182 2.511 18.204 7.532l197.728 197.728c9.625 9.834 9.625 26.154-0.209 36.198z" />
            <glyph unicode="&#xe923;" glyph-name="play" d="M512 960c-282.77 0-512-229.23-512-512s229.23-512 512-512 512 229.23 512 512-229.23 512-512 512zM512 32c-229.75 0-416 186.25-416 416s186.25 416 416 416 416-186.25 416-416-186.25-416-416-416zM384 672l384-224-384-224z" />
            <glyph unicode="&#xe924;" glyph-name="smile" d="M512-64c282.77 0 512 229.23 512 512s-229.23 512-512 512-512-229.23-512-512 229.23-512 512-512zM512 864c229.75 0 416-186.25 416-416s-186.25-416-416-416-416 186.25-416 416 186.25 416 416 416zM256 640c0 35.346 28.654 64 64 64s64-28.654 64-64c0-35.346-28.654-64-64-64s-64 28.654-64 64zM640 640c0 35.346 28.654 64 64 64s64-28.654 64-64c0-35.346-28.654-64-64-64s-64 28.654-64 64zM704.098 332.74l82.328-49.396c-55.962-93.070-157.916-155.344-274.426-155.344s-218.464 62.274-274.426 155.344l82.328 49.396c39.174-65.148 110.542-108.74 192.098-108.74s152.924 43.592 192.098 108.74z" />
            <glyph unicode="&#xe925;" glyph-name="clock, time, schedule" d="M658.744 210.744l-210.744 210.746v282.51h128v-229.49l173.256-173.254zM512 960c-282.77 0-512-229.23-512-512s229.23-512 512-512 512 229.23 512 512-229.23 512-512 512zM512 64c-212.078 0-384 171.922-384 384s171.922 384 384 384c212.078 0 384-171.922 384-384s-171.922-384-384-384z" />
            <glyph unicode="&#xe926;" glyph-name="history, time2, archive, past" horiz-adv-x="1088" d="M640 896c247.424 0 448-200.576 448-448s-200.576-448-448-448v96c94.024 0 182.418 36.614 248.902 103.098s103.098 154.878 103.098 248.902c0 94.022-36.614 182.418-103.098 248.902s-154.878 103.098-248.902 103.098c-94.022 0-182.418-36.614-248.902-103.098-51.14-51.138-84.582-115.246-97.306-184.902h186.208l-224-256-224 256h164.57c31.060 217.102 217.738 384 443.43 384zM832 512v-128h-256v320h128v-192z" />
            <glyph unicode="&#xe927;" glyph-name="twitter" d="M1024 733.6c-37.6-16.8-78.2-28-120.6-33 43.4 26 76.6 67.2 92.4 116.2-40.6-24-85.6-41.6-133.4-51-38.4 40.8-93 66.2-153.4 66.2-116 0-210-94-210-210 0-16.4 1.8-32.4 5.4-47.8-174.6 8.8-329.4 92.4-433 219.6-18-31-28.4-67.2-28.4-105.6 0-72.8 37-137.2 93.4-174.8-34.4 1-66.8 10.6-95.2 26.2 0-0.8 0-1.8 0-2.6 0-101.8 72.4-186.8 168.6-206-17.6-4.8-36.2-7.4-55.4-7.4-13.6 0-26.6 1.4-39.6 3.8 26.8-83.4 104.4-144.2 196.2-146-72-56.4-162.4-90-261-90-17 0-33.6 1-50.2 3 93.2-59.8 203.6-94.4 322.2-94.4 386.4 0 597.8 320.2 597.8 597.8 0 9.2-0.2 18.2-0.6 27.2 41 29.4 76.6 66.4 104.8 108.6z" />
            <glyph unicode="&#xe928;" glyph-name="bell" d="M1025.5 160c0 288-256 224-256 448 0 18.56-1.788 34.42-5.048 47.928-16.83 113.018-92.156 203.72-189.772 231.36 0.866 3.948 1.32 8.032 1.32 12.21 0 33.278-28.8 60.502-64 60.502s-64-27.224-64-60.5c0-4.18 0.456-8.264 1.32-12.21-109.47-30.998-190.914-141.298-193.254-273.442-0.040-1.92-0.066-3.864-0.066-5.846 0-224.002-256-160.002-256-448.002 0-76.226 170.59-139.996 398.97-156.080 21.524-40.404 64.056-67.92 113.030-67.92s91.508 27.516 113.030 67.92c228.38 16.084 398.97 79.854 398.97 156.080 0 0.228-0.026 0.456-0.028 0.682l1.528-0.682zM826.246 105.904c-54.23-14.47-118.158-24.876-186.768-30.648-5.704 65.418-60.582 116.744-127.478 116.744s-121.774-51.326-127.478-116.744c-68.608 5.772-132.538 16.178-186.768 30.648-74.63 19.914-110.31 42.19-123.368 54.096 13.058 11.906 48.738 34.182 123.368 54.096 86.772 23.152 198.372 35.904 314.246 35.904s227.474-12.752 314.246-35.904c74.63-19.914 110.31-42.19 123.368-54.096-13.058-11.906-48.738-34.182-123.368-54.096z" />
            <glyph unicode="&#xe929;" glyph-name="pause" d="M358.4 243.2h102.4v409.6h-102.4v-409.6zM512 960c-281.6 0-512-230.4-512-512s230.4-512 512-512 512 230.4 512 512-230.4 512-512 512zM512 38.4c-225.28 0-409.6 184.32-409.6 409.6s184.32 409.6 409.6 409.6 409.6-184.32 409.6-409.6-184.32-409.6-409.6-409.6zM563.2 243.2h102.4v409.6h-102.4v-409.6z" />
            <glyph unicode="&#xe92a;" glyph-name="gif" d="M178.087 514.783v-133.565c0-48.973 40.068-89.043 89.043-89.043h133.565v178.087h-133.565v-44.522h89.043v-89.043h-89.043c-26.713 0-44.522 17.809-44.522 44.522v133.565c0 26.713 17.809 44.522 44.522 44.522h133.565v44.522h-133.565c-48.975 0-89.043-40.068-89.043-89.043zM445.217 559.304h44.522v-222.609h-44.522v-44.522h133.565v44.522h-44.522v222.609h44.522v44.522h-133.565zM890.435 737.391h-756.87c-75.688 0-133.565-57.877-133.565-133.565v-311.652c0-75.688 57.877-133.565 133.565-133.565h756.87c75.688 0 133.565 57.877 133.565 133.565v311.652c0 75.688-57.877 133.565-133.565 133.565zM979.478 292.174c0-48.973-40.071-89.043-89.043-89.043h-756.87c-48.975 0-89.043 40.071-89.043 89.043v311.652c0 48.975 40.068 89.043 89.043 89.043h756.87c48.973 0 89.043-40.068 89.043-89.043v-311.652zM623.304 292.174h44.522v133.565h133.565v44.522h-133.565v89.043h178.087v44.522h-222.609z" />
            <glyph unicode="&#xe92b;" glyph-name="location, map-marker, pin" d="M512 960c-176.732 0-320-143.268-320-320 0-320 320-704 320-704s320 384 320 704c0 176.732-143.27 320-320 320zM512 448c-106.040 0-192 85.96-192 192s85.96 192 192 192 192-85.96 192-192-85.96-192-192-192z" />
            <glyph unicode="&#xe92c;" glyph-name="mic, microphone, voice" d="M480 256c88.366 0 160 71.634 160 160v384c0 88.366-71.634 160-160 160s-160-71.634-160-160v-384c0-88.366 71.636-160 160-160zM704 512v-96c0-123.71-100.29-224-224-224-123.712 0-224 100.29-224 224v96h-64v-96c0-148.238 112.004-270.3 256-286.22v-129.78h-128v-64h320v64h-128v129.78c143.994 15.92 256 137.982 256 286.22v96h-64z" />
            <glyph unicode="&#xe92d;" glyph-name="copy-item" d="M807.594-64h-764.379c-22.343 0-40.446 18.103-40.446 40.446v764.361c0 22.343 18.103 40.446 40.446 40.446h764.379c22.343 0 40.446-18.12 40.446-40.446v-764.361c0-22.326-18.103-40.446-40.446-40.446zM83.662 16.91h683.469v683.451h-683.469v-683.451zM980.785 114.729h-82.121c-22.343 0-40.446 18.12-40.446 40.446 0 22.343 18.103 40.446 40.446 40.446h41.675v683.469h-683.486v-44.998c0-22.343-18.103-40.446-40.446-40.446s-40.446 18.12-40.446 40.446v85.462c0 22.326 18.103 40.446 40.446 40.446h764.379c22.343 0 40.446-18.12 40.446-40.446v-764.379c0-22.326-18.103-40.446-40.446-40.446z" />
            <glyph unicode="&#xe92e;" glyph-name="trash" d="M284.444 618.667h56.889v-512h-56.889v512zM625.778 618.667h56.889v-512h-56.889v512zM455.111 618.667h56.889v-512h-56.889v512zM170.667 732.444v56.889c-31.419 0-56.889-25.47-56.889-56.889h56.889zM796.444 732.444h56.889c0 31.419-25.469 56.889-56.889 56.889v-56.889zM796.444-7.111v-56.889c31.42 0 56.889 25.469 56.889 56.889h-56.889zM170.667-7.111h-56.889c0-31.42 25.47-56.889 56.889-56.889v56.889zM170.667 675.556h625.778v113.778h-625.778v-113.778zM739.556 732.444v-739.556h113.778v739.556h-113.778zM796.444 49.778h-625.778v-113.778h625.778v113.778zM227.556-7.111v739.556h-113.778v-739.556h113.778zM910.222 675.556c31.42 0 56.889 25.47 56.889 56.889s-25.469 56.889-56.889 56.889v-113.778zM56.889 789.333c-31.419 0-56.889-25.47-56.889-56.889s25.47-56.889 56.889-56.889v113.778zM625.778 903.111h56.889c0 31.419-25.469 56.889-56.889 56.889v-56.889zM341.333 903.111v56.889c-31.419 0-56.889-25.47-56.889-56.889h56.889zM910.222 789.333h-284.444v-113.778h284.444v113.778zM682.667 732.444v170.667h-113.778v-170.667h113.778zM625.778 960h-284.444v-113.778h284.444v113.778zM625.778 789.333h-284.444v-113.778h284.444v113.778zM341.333 789.333h-284.444v-113.778h284.444v113.778zM284.444 903.111v-170.667h113.778v170.667h-113.778z" />
            <glyph unicode="&#xe92f;" glyph-name="fb-info" d="M512 960c-282.527 0-512-229.473-512-512s229.473-512 512-512c282.527 0 512 229.473 512 512s-229.473 512-512 512zM512 919.040c260.391 0 471.040-210.649 471.040-471.040s-210.649-471.040-471.040-471.040c-260.391 0-471.040 210.649-471.040 471.040s210.649 471.040 471.040 471.040zM487.040 695.68c-4.403 0-7.040-2.637-7.040-7.040v-53.76c0-4.403 2.616-7.68 7.040-7.68h49.92c4.383 0 7.040 3.277 7.040 7.68v53.76c0 4.403-2.637 7.040-7.040 7.040h-49.92zM485.76 547.84c-2.678-1.036-4.48-3.738-4.48-7.040v-337.28c0-4.403 2.637-7.040 7.040-7.040h47.36c4.403 0 7.040 2.616 7.040 7.040v337.28c0 4.403-2.616 7.040-7.040 7.040h-47.36c-1.096 0-1.667 0.345-2.56 0z" />
            <glyph unicode="&#xe930;" glyph-name="fb-chat" d="M512 919.040c-259.146 0-471.040-196.567-471.040-440.32 0-133.249 64.147-251.621 163.84-332.16v-183.040l30.080 16 147.84 76.8c41.28-11.043 84.255-17.92 129.28-17.92 259.146 0 471.040 196.567 471.040 440.32s-211.894 440.32-471.040 440.32zM512 878.080c238.518 0 430.080-179.364 430.080-399.36s-191.562-399.36-430.080-399.36c-44.3 0-87.189 6.398-127.36 17.92l-7.68 1.92-7.040-3.84-124.16-64.64v134.4l-7.68 5.76c-95.487 73.482-156.16 184.143-156.16 307.84 0 219.996 191.562 399.36 430.080 399.36zM218.88 336v0z" />
            <glyph unicode="&#xe931;" glyph-name="keyboard_arrow_right" d="M366 262l196 196-196 196 60 60 256-256-256-256z" />
            <glyph unicode="&#xe932;" glyph-name="File" d="M353.76 8.864c-94.048 0-182.208 36.448-248.512 102.688-137.472 137.504-136.608 362.048 1.92 500.64l227.712 227.68c12.992 12.96 34.048 12.96 47.072 0 13.024-12.992 12.992-34.080 0-47.104l-227.712-227.68c-112.64-112.608-113.472-294.912-1.952-406.464 53.984-54.016 125.216-82.944 202.688-83.264 76.8 0.384 149.216 30.56 203.776 85.12l339.008 339.072c35.008 34.944 55.68 83.68 56.928 133.696 1.184 50.688-16.992 97.408-51.264 131.616-72.736 72.736-185.504 74.048-256.64 2.944l-316.224-314.88c-16.096-16.128-25.056-37.504-25.152-60.192-0.064-22.624 8.608-43.808 24.48-59.68 16.288-16.256 37.248-25.504 59.072-25.952 21.792-0.192 42.24 8.064 58.016 23.808l297.632 297.632c12.992 13.024 34.048 13.024 47.136 0 12.992-12.992 12.992-34.048 0-47.072l-297.664-297.696c-28.672-28.672-66.656-44.256-106.4-43.328-39.104 0.8-76.32 16.928-104.832 45.504-28.544 28.512-44.16 66.56-44 107.008 0.16 40.384 16.064 78.4 44.672 107.008l316.32 314.976c97.504 97.504 251.488 96.16 350.752-3.008 47.2-47.168 72.32-111.232 70.688-180.256-1.696-67.936-28.736-131.584-76.448-179.232l-339.008-338.944c-67.072-67.136-156-104.256-250.528-104.672-0.544 0.032-1.056 0.032-1.536 0.032z" />
            <glyph unicode="&#xe933;" glyph-name="Drag-Hexa" d="M673.684 798.316c44.625 0 80.842 36.163 80.842 80.842s-36.217 80.842-80.842 80.842-80.842-36.163-80.842-80.842 36.217-80.842 80.842-80.842zM673.684 906.105c14.875 0 26.947-12.073 26.947-26.947s-12.073-26.947-26.947-26.947-26.947 12.073-26.947 26.947 12.073 26.947 26.947 26.947zM673.684 528.842c-44.625 0-80.842-36.163-80.842-80.842 0-44.625 36.217-80.842 80.842-80.842s80.842 36.217 80.842 80.842c0 44.679-36.217 80.842-80.842 80.842zM673.684 421.053c-14.875 0-26.947 12.073-26.947 26.947s12.073 26.947 26.947 26.947 26.947-12.073 26.947-26.947-12.073-26.947-26.947-26.947zM350.315 960c-44.679 0-80.842-36.163-80.842-80.842s36.163-80.842 80.842-80.842 80.842 36.163 80.842 80.842-36.163 80.842-80.842 80.842zM350.315 852.211c-14.875 0-26.947 12.073-26.947 26.947s12.073 26.947 26.947 26.947 26.947-12.073 26.947-26.947-12.073-26.947-26.947-26.947zM673.684 97.684c-44.625 0-80.842-36.217-80.842-80.842s36.217-80.842 80.842-80.842 80.842 36.217 80.842 80.842-36.217 80.842-80.842 80.842zM673.684-10.105c-14.875 0-26.947 12.073-26.947 26.947s12.073 26.947 26.947 26.947 26.947-12.073 26.947-26.947-12.073-26.947-26.947-26.947zM350.315 97.684c-44.679 0-80.842-36.217-80.842-80.842s36.163-80.842 80.842-80.842 80.842 36.217 80.842 80.842-36.163 80.842-80.842 80.842zM350.315-10.105c-14.875 0-26.947 12.073-26.947 26.947s12.073 26.947 26.947 26.947 26.947-12.073 26.947-26.947-12.073-26.947-26.947-26.947zM350.315 528.842c-44.679 0-80.842-36.163-80.842-80.842 0-44.625 36.163-80.842 80.842-80.842s80.842 36.217 80.842 80.842c0 44.679-36.163 80.842-80.842 80.842zM350.315 421.053c-14.875 0-26.947 12.073-26.947 26.947s12.073 26.947 26.947 26.947 26.947-12.073 26.947-26.947-12.073-26.947-26.947-26.947z" />
            <glyph unicode="&#xe934;" glyph-name="Gear" d="M964.448 553.984c-18.016 2.016-38.112 3.2-60.448 5.184-4.32 0-6.368 3.2-8.576 6.4-7.328 24.352-16.864 47.616-29.696 71.040-2.048 3.2-0.992 7.328 1.024 10.624 14.912 16.896 27.616 31.648 39.296 45.504 20.064 24.384 18.944 60.384-4.256 83.68l-61.376 62.4c-23.488 23.328-58.368 24.416-83.744 4.288-13.792-11.488-29.728-24.352-45.504-39.296-3.168-2.016-6.432-3.168-10.624-0.928-22.304 11.552-46.624 22.24-71.040 29.728-3.2 1.024-6.272 4.256-6.272 8.448-1.12 22.176-3.296 42.368-5.312 60.384-3.232 31.808-29.664 56.32-61.44 56.32h-89.056c-31.744 0-59.296-24.512-61.472-56.32-2.048-18.016-3.072-38.016-5.152-60.384 0-4.192-3.264-6.368-6.336-8.448-24.512-7.36-47.776-16.992-71.136-29.728-3.072-2.016-7.328-0.96-10.592 0.928-15.872 14.976-31.744 27.616-45.536 39.328-24.352 20.128-60.288 19.040-83.616-4.288l-62.56-62.4c-23.328-23.36-24.416-58.208-4.256-83.712 11.648-13.824 24.352-29.664 39.232-45.472 2.080-3.296 3.168-6.368 1.056-10.624-11.68-22.24-22.272-46.56-29.664-71.040-1.024-3.2-4.288-6.4-8.448-6.4-22.336-0.928-42.368-3.168-60.448-5.184-31.84-3.232-56.128-29.792-56.128-61.44v-88.992c0-31.808 24.288-59.36 56.128-61.504 18.016-2.112 38.112-3.168 60.448-5.184 4.096 0 6.272-3.296 8.448-6.368 7.392-24.384 16.96-47.744 29.664-71.008 2.080-3.296 1.024-7.424-1.056-10.56-14.88-16.992-27.584-31.872-39.232-45.632-20.16-24.416-19.104-60.48 4.256-83.744l62.56-62.304c23.328-23.36 58.208-24.576 83.616-4.384 13.824 11.68 29.728 24.384 45.568 39.136 3.2 2.24 6.336 3.2 10.592 1.184 22.24-11.68 46.592-22.304 71.136-29.888 3.072-0.928 6.336-4.128 6.336-8.48 0.96-22.144 3.104-42.144 5.152-60.448 3.2-31.744 29.824-56.16 61.472-56.16h89.056c31.776 0 59.328 24.416 61.44 56.16 2.016 18.016 3.136 38.080 5.312 60.448 0 4.352 3.136 6.368 6.272 8.48 24.352 7.456 47.616 16.896 71.040 29.888 3.2 2.016 7.392 0.928 10.624-1.184 15.776-14.752 31.776-27.424 45.504-39.136 24.256-20.192 60.384-19.008 83.744 4.384l62.272 62.304c23.392 23.328 24.608 58.368 4.416 83.744-11.68 13.76-24.48 29.696-39.168 45.632-2.208 3.136-3.232 6.304-1.12 10.56 11.616 22.080 22.24 46.56 29.728 71.008 1.024 3.072 4.192 6.368 8.512 6.368 22.24 1.056 42.304 3.072 60.448 5.184 31.68 3.2 56.128 29.696 56.128 61.504v88.992c-1.152 31.68-25.472 59.232-57.216 61.408zM966.624 403.424c0-4.256-3.264-8.448-7.36-8.448-18.016-2.112-37.184-3.232-58.304-4.288-25.44-2.080-47.712-19.168-55.072-44.608-6.368-21.088-14.88-41.248-25.44-61.44-11.68-22.144-8.512-50.688 8.448-69.952 13.856-15.936 26.432-30.816 38.112-44.512 3.2-3.2 2.176-8.576-0.992-11.616l-62.56-62.496c-3.2-3.136-8.576-3.136-11.52-0.992-13.856 11.68-28.672 24.32-44.672 38.112-19.072 16.8-47.616 20.064-69.888 8.416-19.072-10.464-40.32-19.104-61.376-25.472-24.32-7.328-42.432-29.568-44.512-55.072-0.992-21.056-3.232-41.248-4.32-58.048 0-4.448-4.224-7.488-8.352-7.488h-89.056c-4.288 0-8.512 3.168-8.512 7.488-2.112 17.888-3.2 36.992-4.288 58.048-2.080 25.504-19.008 47.552-44.448 55.072-21.216 6.368-41.28 15.008-61.408 25.472-9.568 5.216-19.136 7.52-29.696 7.52-14.848 0-29.728-5.44-41.312-14.88-15.904-14.016-30.72-26.496-44.448-38.176-3.2-3.136-8.512-2.048-11.648 1.056l-62.464 62.624c-3.232 3.072-3.232 8.384-1.12 11.616 11.68 13.696 24.384 28.448 38.112 44.384 16.96 19.264 20.096 47.616 8.576 69.952-10.688 19.136-19.2 40.32-25.472 61.44-7.424 24.384-29.728 42.304-55.072 44.608-21.28 1.024-41.376 3.232-58.368 4.192-4.16 0-7.392 4.352-7.392 8.544v88.96c0 4.288 3.232 8.608 7.392 8.608 18.016 2.016 37.12 3.2 58.368 4.256 25.344 2.016 47.584 19.136 55.072 44.448 6.272 21.248 14.784 41.248 25.472 61.44 11.552 22.24 8.416 50.88-8.576 70.016-13.696 15.84-27.488 31.776-38.080 44.512-3.136 3.104-2.112 8.544 1.12 11.52l62.464 62.624c3.136 3.104 8.448 3.104 11.648 0.928 13.728-11.552 28.544-24.384 44.448-38.016 19.072-16.992 47.744-20.064 69.92-8.576 19.104 10.688 40.256 19.168 61.44 25.504 24.384 7.36 42.432 29.664 44.512 55.104 1.024 21.248 3.136 41.248 4.256 58.336 0 4.128 4.192 7.328 8.448 7.328h89.056c4.256 0 8.512-3.264 8.512-7.328 2.016-18.016 3.136-37.088 4.256-58.336 2.048-25.44 19.072-47.616 44.448-55.104 21.184-6.336 41.248-14.816 61.504-25.504 22.176-11.456 50.816-8.512 69.824 8.608 15.936 13.76 30.752 26.464 44.544 38.016 3.168 3.232 8.416 2.048 11.744-0.928l62.4-62.624c3.232-3.072 3.232-8.512 1.056-11.52-11.52-13.856-24.448-28.672-38.080-44.544-17.056-19.136-20.064-47.648-8.544-70.016 10.624-19.008 19.040-40.192 25.504-61.44 7.328-24.256 29.6-42.368 54.976-44.448 21.312-1.056 41.312-3.264 58.272-4.256 4.288 0 7.36-4.32 7.36-8.608v-90.016h1.088zM512 605.888c-86.848 0-157.728-71.072-157.728-157.888s70.912-157.952 157.728-157.952c86.784 0 157.888 71.136 157.888 157.952s-71.008 157.888-157.888 157.888zM512 343.136c-57.184 0-104.864 46.624-104.864 104.864 0 58.112 46.72 104.8 104.864 104.8 58.368 0 104.8-46.496 104.8-104.8 0-58.24-47.616-104.864-104.8-104.864z" />
            <glyph unicode="&#xe935;" glyph-name="Image" d="M886.464 868.64h-748.416c-74.752 0-135.616-60.832-135.616-135.648v-569.952c0-74.784 60.864-135.648 135.616-135.648h748.416c23.712 0 45.696 6.656 65.12 17.376 5.12 1.568 10.048 3.968 14.112 8.032 0.416 0.416 0.512 0.96 0.928 1.376 33.44 24.736 55.488 64.128 55.488 108.864v569.952c0 74.784-60.832 135.648-135.648 135.648zM138.048 800.768h748.416c37.376 0 67.776-30.4 67.776-67.808v-569.952c0-14.368-4.576-27.648-12.192-38.624l-366.88 366.944-117.056-117.056-282.528 282.496-105.28-105.28v181.504c0 37.376 30.368 67.776 67.744 67.776zM70.304 163.040v292.544l105.28 105.28 234.56-234.56-55.2-55.2c-13.28-13.248-13.28-34.72 0-48 13.248-13.248 34.72-13.248 47.968 0l172.224 172.256 300.128-300.128h-737.216c-37.376 0-67.744 30.432-67.744 67.808zM730.4 528.96c60.8 0 110.24 49.472 110.24 110.272s-49.44 110.272-110.24 110.272-110.272-49.44-110.272-110.272c0-60.8 49.472-110.272 110.272-110.272zM730.4 681.664c23.36 0 42.4-19.040 42.4-42.432 0-23.36-19.040-42.4-42.4-42.4s-42.4 19.040-42.4 42.4c0 23.392 19.040 42.432 42.4 42.432z" />
            <glyph unicode="&#xe936;" glyph-name="Drag" d="M729.76 229.728l-188.064-188.032v812.576l188.064-188c5.824-5.824 13.44-8.736 21.056-8.736 7.648 0 15.328 2.944 21.12 8.736 11.648 11.616 11.648 30.496 0 42.112l-238.912 238.944c-0.32 0.32-0.768 0.448-1.088 0.704-2.56 2.272-5.344 4.352-8.608 5.696-3.648 1.536-7.52 2.272-11.392 2.272v0c-0.096 0-0.128 0-0.192 0-3.808 0-7.584-0.736-11.2-2.272-3.648-1.536-6.976-3.648-9.696-6.4l-238.848-238.848c-11.68-11.552-11.68-30.496 0-42.112 5.824-5.888 13.44-8.768 21.088-8.768s15.264 2.944 21.088 8.736l188 187.936v-812.576l-188 188c-11.68 11.648-30.496 11.648-42.144 0-11.68-11.616-11.68-30.496 0-42.112l238.88-238.944c5.824-5.824 13.44-8.672 21.088-8.672s15.264 2.912 21.12 8.672l238.88 238.944c11.68 11.616 11.68 30.496 0 42.112-11.744 11.68-30.624 11.68-42.24 0.032z" />
            <glyph unicode="&#xe937;" glyph-name="List" d="M887.36 869.088h-750.784c-74.56 0-135.168-60.672-135.168-135.2v-571.776c0-74.528 60.64-135.232 135.168-135.232h750.784c74.56 0 135.2 60.672 135.2 135.232v571.84c-0.064 74.528-60.672 135.136-135.2 135.136zM956.256 733.952v-115.648h-217.664v184.64h148.768c38.016-0.064 68.896-31.040 68.896-68.992zM738.592 551.968h217.664v-198.688h-217.664v198.688zM672.352 353.28h-604.704v198.688h604.704v-198.688zM136.576 802.88h535.776v-184.672h-604.704v115.712c0 37.984 30.912 68.96 68.928 68.96zM67.648 162.144v124.896h604.704v-193.824h-535.776c-38.016 0-68.928 30.976-68.928 68.928zM887.36 93.216h-148.768v193.824h217.664v-124.864c0-37.984-30.88-68.96-68.896-68.96z" />
            <glyph unicode="&#xe938;" glyph-name="Message-New" d="M573.632 643.392h-38.624v-165.408h-165.504v-38.656h165.504v-165.408h38.624v165.408h165.44v38.656h-165.44zM665.376 835.328h-179.424c-195.584 0-354.784-159.168-354.784-354.816v-93.344c0-209.728-111.584-266.24-116.224-268.48-8.16-3.872-12.672-12.832-10.624-21.696 1.952-8.8 9.792-15.168 18.816-15.168h642.176c195.68 0 354.816 159.168 354.816 354.784v43.968c0.064 195.616-159.136 354.752-354.752 354.752zM981.632 436.672v0c0-174.272-141.888-316.096-316.192-316.096h-585.92c40.032 40.928 90.368 121.376 90.368 266.592v93.44c0 174.336 141.824 316.16 316.128 316.16h179.424c174.368 0 316.192-141.824 316.192-316.16v-43.936z" />
            <glyph unicode="&#xe939;" glyph-name="Message-Open" d="M669.536 803.84h-187.776c-194.112 0-351.136-157.152-351.136-351.168 0-62.208 0-44.928 0-56.96 0-136.672-62.208-190.112-115.424-239.968-27.616-25.856-1.824-59.328 18.496-59.328 183.2 0 288.256 0 448.096 0h187.808c193.728 0 351.264 157.152 351.264 351.2v5.056c-0.096 193.984-157.568 351.168-351.328 351.168zM971.968 447.648c0-166.72-135.648-302.432-302.432-302.432h-592.736c56.832 56.64 102.624 138.688 102.624 250.464v56.96c0 166.72 135.648 302.368 302.336 302.368h187.776c166.784 0 302.432-135.648 302.432-302.368v-4.992zM615.616 437.792c0 13.472-10.944 24.416-24.416 24.416h-159.456c-13.472 0-24.416-10.944-24.416-24.416s10.944-24.384 24.416-24.384h159.456c13.472 0 24.416 10.912 24.416 24.384zM710.144 458.528l-91.52 88.544c-9.664 9.344-25.12 9.088-34.496-0.576-9.344-9.696-9.088-25.184 0.576-34.528l75.264-72.864-75.488-75.424c-9.536-9.536-9.536-24.992 0-34.528 4.704-4.8 10.976-7.232 17.216-7.232 6.208 0 12.512 2.4 17.312 7.232l91.52 91.424c5.184 5.152 7.296 12.128 6.784 18.976 0.352 6.88-1.824 13.824-7.168 18.976z" />
            <glyph unicode="&#xe93a;" glyph-name="Plus" d="M957.568 506.464h-387.104v387.104c0 32.256-26.176 58.464-58.496 58.464-32.288 0-58.432-26.208-58.432-58.464v-387.104h-387.104c-32.256 0-58.432-26.176-58.432-58.464s26.176-58.464 58.432-58.464h387.104v-387.104c0-32.288 26.144-58.464 58.432-58.464 32.32 0 58.496 26.176 58.496 58.464v387.104h387.104c32.288 0 58.464 26.176 58.464 58.464s-26.176 58.464-58.464 58.464z" />
            <glyph unicode="&#xe93b;" glyph-name="Right" d="M299.616-62.016c-5.376 0-10.752 1.888-15.136 5.632-9.728 8.384-10.752 23.008-2.432 32.704l412.416 478.304-412.192 464.736c-8.544 9.6-7.616 24.224 1.952 32.736 9.536 8.544 24.16 7.744 32.736-1.984l424.768-478.912c3.776-4.224 5.856-9.696 5.856-15.36 0-5.568-1.984-13.024-5.568-17.248l-424.832-492.608c-4.64-5.312-11.040-8-17.568-8z" />
            <glyph unicode="&#xe93c;" glyph-name="Search" d="M791.904 201.568c72.032 80 116.32 185.408 116.32 301.28 0 248.672-202.24 450.912-450.976 450.912-248.672 0-450.976-202.272-450.976-450.912 0-248.704 202.304-451.040 450.976-451.040 115.84 0 221.248 44.192 301.184 116.256l225.728-225.824 33.568 33.44-225.824 225.888zM457.248 99.2c-222.56 0-403.616 181.056-403.616 403.648 0 222.496 181.056 403.552 403.616 403.552 222.624 0 403.584-181.088 403.584-403.552 0-222.592-180.992-403.648-403.584-403.648z" />
            <glyph unicode="&#xe93d;" glyph-name="Share" d="M991.040 665.024c-16.16 0-29.28-13.12-29.28-29.312v-528h-899.456v528c0 16.192-13.12 29.312-29.312 29.312-16.16 0-29.312-13.12-29.312-29.312v-586.56h1016.64v586.56c0.032 16.192-13.056 29.312-29.28 29.312zM373.12 686.016c7.52 0 14.976 2.848 20.736 8.576l88.864 88.928v-446.784c0-16.224 13.12-29.312 29.312-29.312 16.128 0 29.28 13.088 29.28 29.312v446.72l88.864-88.864c5.76-5.728 13.184-8.576 20.672-8.576 7.552 0 15.040 2.848 20.704 8.576 11.456 11.424 11.456 30.016 0 41.504l-138.816 138.88c-0.384 0.416-0.8 0.544-1.248 0.832-2.432 2.208-5.184 4.224-8.288 5.504-3.424 1.408-7.040 2.080-10.688 2.112-0.16 0.032-0.32 0.128-0.48 0.128v0c-3.84 0-7.648-0.768-11.264-2.272-2.272-0.928-4.128-2.56-6.048-4-1.088-0.8-2.4-1.312-3.424-2.304-0.064-0.064-0.064-0.128-0.128-0.192l-138.72-138.688c-11.456-11.424-11.456-30.016 0-41.504 5.696-5.728 13.216-8.576 20.672-8.576z" />
            <glyph unicode="&#xe93e;" glyph-name="Text" d="M985.6 781.184h-947.168c-18.24 0-33.056-14.816-33.056-33.056 0-18.208 14.784-33.024 33.056-33.024h947.168c18.272 0 33.056 14.816 33.056 33.024 0 18.24-14.816 33.056-33.056 33.056zM923.968 358.24h-885.504c-18.24 0-33.056-14.816-33.056-32.992 0-18.24 14.784-33.056 33.056-33.056h885.504c18.208 0 33.056 14.816 33.056 33.056-0.032 18.176-14.848 32.992-33.056 32.992zM747.712 146.784h-709.28c-18.24 0-33.056-14.816-33.056-33.024 0-18.24 14.784-33.056 33.056-33.056h709.28c18.272 0 33.024 14.816 33.024 33.056 0 18.208-14.784 33.024-33.024 33.024zM38.432 503.616h779.744c18.24 0 33.056 14.816 33.056 32.992 0 18.24-14.752 33.056-33.056 33.056h-779.744c-18.24 0-33.056-14.816-33.056-33.056 0-18.176 14.816-32.992 33.056-32.992z" />
            <glyph unicode="&#xe93f;" glyph-name="URL" d="M566.912 561.728c-12.608-4.544-19.168-18.432-14.56-31.104 0.16-0.48 18.144-50.944 18.144-112.256 0-144.768-60.896-212.16-191.584-212.16h-124.896c-109.568 0-198.752 108.48-198.752 241.856 0 135.616 87.328 241.952 198.752 242.016h90.624c13.376 0 24.288 10.88 24.288 24.32 0 13.376-10.912 24.256-24.288 24.256h-90.656c-138.688-0.128-247.296-127.776-247.296-290.592 0-160.128 110.944-290.336 247.328-290.336h124.864c157.12 0 240.16 90.144 240.16 260.704 0 69.632-20.192 126.272-21.056 128.672-4.544 12.64-18.496 19.104-31.072 14.624zM770.016 738.496h-164.48c-95.264 0-206.528-68.288-206.528-260.8 0-77.312 22.048-128.512 22.976-130.624 5.344-12.256 19.616-17.824 31.84-12.512 12.32 5.376 17.952 19.616 12.64 31.872-0.192 0.48-18.912 44.736-18.912 111.264 0 132.864 59.040 212.256 157.984 212.256h164.48c109.632 0 198.816-108.576 198.816-242.016s-89.184-242.016-198.816-242.016h-104.32c-13.408 0-24.288-10.88-24.288-24.288s10.88-24.288 24.288-24.288h104.32c136.384 0 247.36 130.368 247.36 290.56s-110.944 290.592-247.36 290.592z" />
            <glyph unicode="&#xe940;" glyph-name="Delete" d="M592.352 448l409.984 409.888c22.272 22.304 22.272 58.176 0 80.448-22.304 22.272-58.112 22.272-80.416 0l-409.984-409.984-409.92 409.984c-22.272 22.272-58.112 22.272-80.416 0-22.208-22.272-22.208-58.144 0-80.448l409.952-409.888-409.952-409.952c-22.208-22.304-22.208-58.112 0-80.416 11.040-11.2 25.6-16.64 40.128-16.64 14.56 0 29.184 5.632 40.224 16.64l409.92 409.952 410.016-410.016c11.104-11.008 25.664-16.64 40.192-16.64 14.56 0 29.152 5.632 40.224 16.64 22.272 22.336 22.272 58.144 0 80.416l-409.952 410.016z" />
            <glyph unicode="&#xe941;" glyph-name="Card" d="M884.608 866.848h-745.28c-74.464 0-135.040-60.608-135.040-135.040v-567.584c0-74.496 60.608-135.104 135.040-135.104h745.248c74.464 0 135.136 60.608 135.136 135.104v567.584c0 74.432-60.64 135.040-135.104 135.040zM139.328 799.264h745.248c37.216 0 67.488-30.24 67.488-67.424v-418.144h-880.224v418.112c0.032 37.216 30.272 67.456 67.488 67.456zM884.608 96.704h-745.28c-37.216 0-67.456 30.272-67.456 67.488v81.92h880.256v-81.92c-0.032-37.184-30.304-67.488-67.52-67.488z" />
            <glyph unicode="&#xe942;" glyph-name="Left" d="M676.64-61.376c5.376 0 10.688 1.92 15.008 5.664 9.792 8.384 10.816 22.976 2.496 32.672l-411.872 477.6 411.744 464.256c8.48 9.504 7.52 24.16-2.016 32.64-9.536 8.512-24.096 7.744-32.672-1.92l-424.256-478.368c-3.744-4.192-5.856-9.696-5.856-15.328 0-5.568 2.016-13.056 5.6-17.184l424.224-491.936c4.64-5.344 11.008-8.096 17.6-8.096z" />
            <glyph unicode="&#xe943;" glyph-name="Close" d="M1018.656 380.736c-0.352 2.432-0.576 4.896-1.44 7.264-0.832 2.144-2.176 3.936-3.424 5.824-0.864 1.408-1.344 2.944-2.432 4.224l-244.16 274.88c-5.949 6.688-14.577 10.88-24.185 10.88-0.025 0-0.050 0-0.075 0h-135.836c-17.903 0-32.416-14.513-32.416-32.416s14.513-32.416 32.416-32.416h121.28l186.624-210.080h-85.44c-55.136 0-102.848-43.68-148.96-86.016-31.136-28.512-66.368-60.768-87.776-60.768h-161.568c-31.552 0-72.352 37.408-108.352 70.464-42.784 39.264-83.2 76.32-128.384 76.32h-86.112l184.448 210.144h124.16c17.903 0 32.416 14.513 32.416 32.416s-14.513 32.416-32.416 32.416h-138.848c-9.344 0-18.208-4-24.384-11.040l-241.312-274.976c-1.088-1.184-1.504-2.752-2.368-4.064-1.248-1.984-2.56-3.744-3.36-5.888-0.832-2.304-1.088-4.64-1.408-7.104-0.224-1.472-0.864-2.752-0.864-4.288v-223.808c0-54.368 47.584-102.048 101.824-102.048h799.2c68.224 0 114.016 39.616 114.016 98.624v227.264c0 1.44-0.608 2.72-0.864 4.192zM954.72 149.248c0-29.44-30.848-33.824-49.216-33.824h-799.2c-19.936 0-37.024 20.512-37.024 37.248v191.392h125.216c19.936 0 55.776-32.864 84.576-59.296 46.88-43.008 95.36-87.488 152.192-87.488h161.568c46.624 0 87.904 37.76 131.584 77.824 35.232 32.32 75.232 68.96 105.152 68.96h125.152v-194.816zM395.328 539.040c-5.774 5.375-13.543 8.673-22.083 8.673-17.921 0-32.448-14.527-32.448-32.448 0-8.524 3.287-16.28 8.661-22.070l139.565-139.596c0.192-0.224 0.48-0.288 0.672-0.48 2.848-2.688 6.144-4.992 9.856-6.56 3.968-1.6 8.16-2.464 12.416-2.464 8.968 0.026 17.077 3.678 22.943 9.567l139.617 139.521c5.877 5.869 9.513 13.982 9.513 22.944 0 17.908-14.517 32.425-32.425 32.425-8.946 0-17.046-3.623-22.912-9.481l-84.352-84.352v358.24c0 17.903-14.513 32.416-32.416 32.416s-32.416-14.513-32.416-32.416v-358.176l-84.192 84.256z" />
            <glyph unicode="&#xe944;" glyph-name="female" d="M773.44 328.8c144.096 144.224 144.096 378.656 0 522.688-66.516 66.853-158.588 108.225-260.323 108.225-0.359 0-0.718-0.001-1.077-0.002-0.244 0.001-0.598 0.002-0.953 0.002-101.755 0-193.843-41.385-260.352-108.242-66.846-66.432-108.21-158.406-108.21-260.041 0-0.441 0.001-0.882 0.002-1.323 0-98.652 38.432-191.484 108.256-261.308 59.744-59.68 136.704-94.816 219.456-104.128v-96.96h-90.080c-19.52 0-35.296-15.776-35.296-35.296 0-19.552 15.776-35.328 35.296-35.328h90.080v-86.24c0-19.511 15.817-35.328 35.328-35.328s35.328 15.817 35.328 35.328v86.24h90.048c19.502 0 35.312 15.81 35.312 35.312s-15.81 35.312-35.312 35.312h-90.048v95.648c87.744 6.752 169.632 42.624 232.544 105.44zM213.12 590.24c-0.001 0.283-0.002 0.619-0.002 0.955 0 82.236 33.459 156.656 87.507 210.391 53.835 54.098 128.327 87.567 210.637 87.567 0.293 0 0.586 0 0.879-0.001 79.858 0 154.93-31.040 211.346-87.52 116.544-116.544 116.544-306.272 0-422.848-53.754-54.062-128.179-87.522-210.419-87.522-0.354 0-0.707 0.001-1.060 0.002-0.183-0.001-0.464-0.001-0.746-0.001-82.294 0-156.774 33.456-210.58 87.51-54.094 53.807-87.565 128.279-87.565 210.568 0 0.316 0 0.632 0.001 0.948z" />
            <glyph unicode="&#xe945;" glyph-name="Geo" d="M512 954.656c-279.36 0-506.656-227.232-506.656-506.656 0-279.36 227.296-506.72 506.656-506.72 279.424 0 506.656 227.328 506.656 506.72 0 279.456-227.232 506.656-506.656 506.656zM928.672 490.88h-185.632c-4.96 130.368-32.64 260.16-80.928 349.312 145.433-57.254 249.833-189.303 266.406-347.496zM512 26.944c-56.192 0-135.392 146.624-144.48 378.272h288.96c-9.152-231.648-88.288-378.272-144.48-378.272zM367.52 490.88c9.152 231.552 88.32 378.144 144.48 378.144s135.328-146.592 144.48-378.144h-288.96zM361.856 840.192c-48.288-89.152-75.904-218.944-80.896-349.312h-185.664c16.749 160.001 121.14 292.040 263.714 348.322zM95.296 405.216h185.664c4.992-130.368 32.608-260.16 80.896-349.312-145.446 57.236-249.855 189.294-266.406 347.498zM662.112 55.904c48.32 89.152 75.968 218.944 80.928 349.312h185.632c-16.69-160.024-121.105-292.089-263.714-348.323z" />
            <glyph unicode="&#xe946;" glyph-name="male" d="M1016.064 922.016c-6.362 14.99-20.924 25.329-37.91 25.408h-190.41c-22.72 0-41.056-18.368-41.056-41.088 0-22.688 18.336-41.056 41.056-41.056h91.328l-161.44-161.344c-75.168 64.32-171.488 104.672-278.016 104.672-237.152 0-430.080-192.928-430.080-430.048s192.928-430.016 430.080-430.016c237.088 0 430.016 192.832 430.016 430.016 0 101.024-36.448 192.768-94.912 266.24l162.368 162.368v-91.296c0-22.683 18.389-41.072 41.072-41.072s41.072 18.389 41.072 41.072v190.464c-0.047 5.666-1.207 11.048-3.271 15.957zM439.584 30.72c-191.84 0-347.936 156.032-347.936 347.84 0 191.84 156.096 347.936 347.936 347.936 191.808 0 347.872-156.096 347.872-347.936-0.032-191.808-156.096-347.84-347.872-347.84z" />
            <glyph unicode="&#xe947;" glyph-name="Open" d="M373.888 687.456c8.32 0 16.608 3.168 22.944 9.504l84.384 84.288v-358.528c0-17.921 14.527-32.448 32.448-32.448s32.448 14.527 32.448 32.448v358.624l84.384-84.384c5.864-5.825 13.944-9.425 22.865-9.425 17.921 0 32.448 14.527 32.448 32.448 0 8.905-3.587 16.973-9.396 22.836l-139.774 139.742c-0.416 0.416-0.928 0.544-1.312 0.864-2.619 2.458-5.665 4.5-9.009 5.997-3.705 1.541-7.765 2.416-12.021 2.483-0.25 0-0.378 0.096-0.602 0.096s-0.352-0.096-0.576-0.096c-4.282-0.067-8.342-0.942-12.058-2.48-3.327-1.483-6.365-3.527-8.979-6.013-0.403-0.339-0.883-0.467-1.299-0.851l-139.776-139.744c-5.88-5.868-9.517-13.981-9.517-22.944 0-17.896 14.502-32.405 32.396-32.416zM1019.264 356.384c-1.732 4.136-4.132 7.665-7.103 10.623l-239.841 239.841c-5.881 5.929-14.032 9.6-23.040 9.6-17.921 0-32.448-14.527-32.448-32.448 0-9.008 3.671-17.159 9.598-23.038l184.546-184.514h-79.392c-55.232 0-103.008-43.776-149.152-86.112-31.168-28.544-66.432-60.832-87.904-60.832h-161.728c-31.616 0-72.448 37.44-108.48 70.528-42.848 39.328-83.328 76.448-128.576 76.448h-79.456l184.512 184.48c5.515 5.805 8.906 13.672 8.906 22.331 0 17.921-14.527 32.448-32.448 32.448-8.651 0-16.512-3.386-22.329-8.904l-239.89-239.826c-5.858-5.904-9.485-14.031-9.504-23.004v-224.036c0-54.496 47.648-102.176 101.984-102.176h800c68.32 0 114.176 39.616 114.176 98.688v227.52c-0.013 4.467-0.905 8.721-2.513 12.604zM956.832 116.48c0-29.408-30.912-33.824-49.312-33.824h-800.032c-19.616 0-37.088 20.896-37.088 37.312v191.584h125.344c20 0 55.872-32.928 84.672-59.36 46.976-43.040 95.52-87.552 152.384-87.552h161.728c46.688 0 88.032 37.856 131.776 77.92 35.232 32.352 75.328 69.024 105.28 69.024h125.28v-195.104z" />
            <glyph unicode="&#xe948;" glyph-name="Smile-2" d="M512-55.968c-277.888 0-504 226.080-504 503.968 0.032 277.92 226.112 504 504 504 277.856 0 503.968-226.080 503.968-504 0-277.888-226.080-503.968-503.968-503.968zM512 872.256c-233.92 0-424.224-190.304-424.224-424.256 0-233.984 190.336-424.224 424.256-424.224 233.952 0 424.16 190.24 424.16 424.224 0 233.952-190.208 424.256-424.192 424.256zM512 143.52c-121.299 0.307-225.969 71.191-275.142 173.745-3.168 6.785-4.555 12.591-4.555 18.722 0 15.888 9.316 29.601 22.783 35.974 5.206 2.51 11.040 3.917 17.203 3.917 15.881 0 29.58-9.345 35.897-22.836 36.995-77.297 114.271-129.61 203.787-129.811 87.387 0 167.483 51.2 204.123 130.656 6.535 13.725 20.293 23.043 36.228 23.043 6.082 0 11.847-1.357 17.009-3.786 19.66-9.113 28.428-32.793 19.148-52.697-49.58-105.188-154.651-176.728-276.453-176.928zM418.368 575.872c0-35.7-28.94-64.64-64.64-64.64s-64.64 28.94-64.64 64.64c0 35.7 28.94 64.64 64.64 64.64s64.64-28.94 64.64-64.64zM715.616 575.872c0-35.7-28.94-64.64-64.64-64.64s-64.64 28.94-64.64 64.64c0 35.7 28.94 64.64 64.64 64.64s64.64-28.94 64.64-64.64z" />
            <glyph unicode="&#xe949;" glyph-name="Subscribed-No-Info" d="M491.52-64l-11.040 0.896c-71.872 12.16-116.288 53.344-145.696 80.576-5.792 5.28-13.28 12.224-17.824 15.68-25.92-2.24-70.272-19.456-106.368-33.408-43.872-17.056-81.76-31.68-109.6-31.68-24.704 0-38.464 11.008-45.664 20.288-7.328 9.504-14.688 26.080-8.192 51.36 35.008 135.648 22.784 226.144 10.944 313.664-5.952 44.288-12.128 90.016-12.128 140.16 0 257.376 209.376 466.784 466.72 466.784s466.72-209.408 466.72-466.784c0.032-151.616-8.448-319.936-70.176-522.56-6.368-20.896-23.872-34.304-44.64-34.304-18.976 0-34.24 10.464-55.392 25.024-29.504 20.384-74.048 51.008-137.792 60.128-10.528-0.896-47.136-23.584-68.928-37.184-42.048-26.080-78.368-48.64-110.944-48.64zM322.144 110.624c25.696 0 43.968-16.864 65.12-36.512 25.152-23.328 56.384-52.192 104.736-60.8 12.736 1.6 48.256 23.68 69.664 36.96 42.080 26.080 78.432 48.736 111.136 48.736l9.6-0.672c76.128-10.944 129.728-45.024 163.584-68.128 49.12 176.896 56.192 327.040 56.16 463.328 0 214.752-174.688 389.536-389.472 389.536-214.784 0.032-389.472-174.752-389.472-389.536 0-44.96 5.536-86.144 11.456-129.824 11.328-83.968 24.064-178.304-5.152-311.52 16.64 5.408 36.672 13.184 53.184 19.584 49.28 19.104 100.224 38.784 139.456 38.848zM380.672 516.096c0-26.651-21.605-48.256-48.256-48.256s-48.256 21.605-48.256 48.256c0 26.651 21.605 48.256 48.256 48.256s48.256-21.605 48.256-48.256zM725.088 516.096c0-26.651-21.605-48.256-48.256-48.256s-48.256 21.605-48.256 48.256c0 26.651 21.605 48.256 48.256 48.256s48.256-21.605 48.256-48.256z" />
            <glyph unicode="&#xe94a;" glyph-name="Subscriber" d="M1019.2 820.256l-47.744 47.808-529.408-529.12-171.552 171.36-47.776-47.808 219.328-219.136 381.824 381.728c26.552-51.55 42.236-112.454 42.528-176.994 0-219.422-178.4-397.758-397.664-397.758s-397.696 178.336-397.696 397.664c0 219.264 178.432 397.696 397.696 397.696h0.16c99.168 0 194.24-36.8 267.552-103.648l45.568 50.016c-82.193 75.166-192.111 121.216-312.784 121.216-0.118 0-0.236 0-0.354 0h-0.142c-256.576 0-465.28-208.704-465.28-465.28 0-256.512 208.704-465.248 465.28-465.248 256.544 0 465.28 208.736 465.28 465.248 0 79.84-20.896 158.080-59.808 227.328l144.992 144.928z" />
            <glyph unicode="&#xe94b;" glyph-name="Timezone" d="M537.6 458.615v117.385c0 14.131-11.469 25.6-25.6 25.6s-25.6-11.469-25.6-25.6v-128c0-6.793 2.697-13.312 7.509-18.057l142.234-142.268c10.001-10.001 26.214-10.001 36.25 0 10.001 10.001 10.001 26.214 0 36.25l-134.793 134.69zM512 814.933c-202.65 0-366.933-164.284-366.933-366.933 0-202.684 164.284-366.933 366.933-366.933 202.684 0 366.933 164.284 366.933 366.933s-164.25 366.933-366.933 366.933zM512 132.267c-174.353 0-315.733 141.414-315.733 315.733 0 174.353 141.38 315.733 315.733 315.733 174.319 0 315.733-141.38 315.733-315.733 0-174.319-141.414-315.733-315.733-315.733z" />
            <glyph unicode="&#xe94c;" glyph-name="Unsubscribed-Deleted" d="M512 956.864c-279.552 0-506.944-227.392-506.944-506.944 0-279.488 227.392-506.88 506.944-506.88 279.488 0 506.88 227.392 506.88 506.912 0.032 279.52-227.392 506.912-506.88 506.912zM512 16.672c-238.912 0-433.312 194.336-433.312 433.28 0.032 238.88 194.4 433.28 433.312 433.28s433.28-194.368 433.28-433.28c0-238.944-194.336-433.28-433.28-433.28zM686.72 676.736l-174.72-174.752-174.72 174.752-52.064-52.064 174.72-174.72-174.72-174.72 52.064-52.064 174.72 174.72 174.72-174.72 52.064 52.064-174.72 174.72 174.72 174.72z" />
            <glyph unicode="&#xe94d;" glyph-name="Video" d="M840.384 5.472h-656.736c-98.016 0-177.76 76.8-177.76 171.136v542.752c0 94.368 79.744 171.168 177.76 171.168h656.704c98.016 0 177.76-76.8 177.76-171.168v-542.752c0-94.336-79.712-171.136-177.728-171.136zM183.648 810.848c-54.080 0-98.048-41.056-98.048-91.488v-542.752c0-50.432 44-91.392 98.048-91.392h656.704c54.048 0 98.048 40.96 98.048 91.392v542.752c0 50.432-44 91.488-98.048 91.488h-656.704zM369.728 231.584c-6.88 0-13.76 1.76-19.936 5.28-11.983 7.055-19.905 19.879-19.936 34.556v353.188c0 0.017 0 0.038 0 0.058 0 21.985 17.823 39.808 39.808 39.808 7.354 0 14.243-1.994 20.155-5.472l305.733-176.475c12.352-7.072 19.936-20.224 19.936-34.464s-7.584-27.392-19.936-34.56l-305.92-176.64c-6.144-3.52-13.024-5.28-19.904-5.28zM409.568 555.552v-215.136l186.368 107.616-186.368 107.52z" />
            <glyph unicode="&#xe94e;" glyph-name="Stats" horiz-adv-x="1186" d="M0 313.263h107.789v-377.263h-107.789v377.263zM269.474 582.737h107.789v-646.737h-107.789v646.737zM538.947 474.947h107.789v-538.947h-107.789v538.947zM808.421 744.421h107.789v-808.421h-107.789v808.421zM1077.895 960h107.789v-1024h-107.789v1024z" />
            <glyph unicode="&#xe94f;" glyph-name="Sound" horiz-adv-x="785" d="M51.2 653.483v34.133c-18.851 0-34.133-15.282-34.133-34.133h34.133zM51.2 209.749h-34.133c0-18.852 15.282-34.133 34.133-34.133v34.133zM750.933-12.117l-17.364-29.385c10.551-6.236 23.634-6.335 34.28-0.259 10.646 6.072 17.217 17.388 17.217 29.645h-34.133zM750.933 892.416h34.133c0 12.458-6.786 23.927-17.708 29.921-10.919 5.995-24.241 5.564-34.751-1.125l18.326-28.797zM375.467 653.483v-34.133c6.491 0 12.848 1.851 18.326 5.336l-18.326 28.797zM17.067 653.483v-443.733h68.267v443.733h-68.267zM51.2 175.616h324.267v68.267h-324.267v-68.267zM358.102 180.364l375.468-221.867 34.727 58.771-375.467 221.867-34.728-58.771zM785.067-12.117v904.533h-68.267v-904.533h68.267zM732.607 921.213l-375.466-238.933 36.652-57.594 375.467 238.933-36.652 57.594zM375.467 687.616h-324.267v-68.267h324.267v68.267zM409.6 209.749v324.267h-68.267v-324.267h68.267z" />
            <glyph unicode="&#xe950;" glyph-name="Tag" d="M883.985 467.763l-352.222 352.222c-20.070 20.070-47.821 30.618-76.151 28.911l-237.090-14.268c-50.142-3.004-90.112-43.008-93.15-93.15l-14.268-237.090c-1.707-28.365 8.806-56.081 28.911-76.151l352.222-352.222c38.775-38.775 101.649-38.775 140.425 0l251.324 251.324c38.775 38.81 38.775 101.649 0 140.425zM596.48 112.196c-18.807-18.807-49.22-18.807-68.028 0l-352.222 352.222c-9.728 9.728-14.814 23.177-13.995 36.898l14.234 237.090c1.468 24.269 20.821 43.657 45.124 45.124l237.056 14.268c13.722 0.819 27.17-4.267 36.898-13.995l352.222-352.222c18.773-18.773 18.773-49.22 0-68.062l-251.29-251.324zM371.746 687.514c-54.818 0-99.294-44.442-99.294-99.294s44.442-99.294 99.294-99.294 99.294 44.442 99.294 99.294-44.442 99.294-99.294 99.294zM371.746 540.126c-26.556 0-48.094 21.538-48.094 48.094s21.538 48.094 48.094 48.094 48.094-21.538 48.094-48.094-21.538-48.094-48.094-48.094z" />
            <glyph unicode="&#xe951;" glyph-name="audience" d="M361.152 358.24v-0.064h301.728v48h-28.16c61.664 40.608 102.4 110.752 102.4 190.464 0 125.312-100.576 227.36-225.152 227.36s-225.152-102.048-225.152-227.36c0-79.68 40.736-149.856 102.4-190.464h-28.032v0.064c-77.056 0-134.272-12.768-172.224-43.456-39.296-31.808-52.896-78.464-52.896-133.024h47.936c0 47.104 11.552 76.64 35.104 95.68 24.896 20.128 68.256 32.8 142.048 32.8zM334.816 596.64c0 99.328 79.552 179.36 177.152 179.36 97.568 0 177.152-80.064 177.152-179.36 0-99.328-79.552-179.36-177.152-179.36-97.568 0-177.152 80.064-177.152 179.36zM888.032 229.664c0 54.592-13.6 101.248-52.896 133.056-37.952 30.688-95.168 43.456-172.224 43.456v-48h-0.032c73.824 0 117.152-12.64 142.048-32.768 23.552-19.040 35.104-48.672 35.104-95.712h-0.032v-77.696h-656v77.696h-48v-101.696c0-13.248 10.752-24 24-24h704c13.248 0 24 10.752 24 24l0.032 101.664zM184 229.76v-0.064l0.032 0.064z" />
            <glyph unicode="&#xe952;" glyph-name="Desktop" d="M949.312 880.48h-874.56c-39.296 0-71.264-32-71.264-71.264v-570.016c0-39.328 31.968-71.328 71.264-71.328h874.56c39.328 0 71.264 31.936 71.264 71.328v570.016c0 39.264-31.936 71.264-71.264 71.264zM948.736 809.216v-426.656h-873.632l-0.352 426.144 873.984 0.512zM75.232 239.232l-0.064 71.616h873.568v-71.2l-873.504-0.416zM701.664 87.296h-379.264c-19.808 0-35.872-16.064-35.872-35.872s16.064-35.872 35.872-35.872h379.264c19.776 0 35.84 16.096 35.84 35.872 0 19.808-16.064 35.872-35.84 35.872z" />
            <glyph unicode="&#xe953;" glyph-name="Mobile" d="M796.704 954.592h-569.408c-39.072 0-70.848-31.808-70.848-70.912v-873.6c0-39.072 31.776-70.88 70.848-70.88h569.44c39.072 0 70.848 31.808 70.848 70.88v873.6c-0.032 39.104-31.808 70.912-70.88 70.912zM227.328 711.040h569.184l0.032-540.8h-569.088l-0.128 540.8zM796.544 883.68v-101.6h-569.216l-0.032 101.44 569.248 0.16zM227.488 10.048v89.12h569.088v-88.928l-569.088-0.192zM796.704-25.28v35.52c0 0 0 0 0.032 0l-0.032-35.52z" />
            <glyph unicode="&#xe954;" glyph-name="automation" d="M512 332.288c66.24 0 120 53.728 120 120s-53.76 120-120 120c-66.272 0-120-53.728-120-120s53.728-120 120-120zM512 524.288c39.776 0 72-32.224 72-72s-32.224-72-72-72-72 32.224-72 72 32.224 72 72 72zM957.024 625.76c0 27.648-15.264 51.488-37.632 64.352 0.16 48.64-13.216 92.608-45.152 124.544l-0.032-0.032c-56.224 56.192-148.832 55.552-243.84 22.4-37.696-13.216-77.6-32.448-118.080-56.64-59.552 35.552-118.208 59.872-171.872 71.488-12.416 23.904-37.12 40.416-65.92 40.416-29.856 0-55.424-17.696-67.328-43.040-21.344-7.552-41.92-19.488-57.44-34.752l-0.032 0.064c-56.256-56.224-55.584-148.896-22.432-243.904 13.248-37.792 32.576-77.824 56.832-118.432-24.224-40.544-43.456-80.512-56.704-118.208-33.12-94.976-33.824-187.616 22.432-243.872l-0.032-0.032c56.224-56.192 148.896-55.52 243.872-22.4 37.728 13.216 77.728 32.512 118.272 56.704 40.576-24.224 80.576-43.488 118.336-56.736 95.008-33.12 187.616-33.824 243.84 22.4l0.032-0.032c56.256 56.256 55.552 148.896 22.432 243.872-13.056 37.216-31.936 76.64-55.68 116.608 22.944 35.552 42.4 70.368 57.056 102.336 33.696 7.136 59.072 37.056 59.072 72.896zM882.496 599.232c-14.656 0-26.528 11.872-26.528 26.528s11.872 26.528 26.528 26.528 26.528-11.872 26.528-26.528-11.872-26.528-26.528-26.528zM274.496 844.288c14.656 0 26.528-11.872 26.528-26.528s-11.872-26.528-26.528-26.528-26.528 11.872-26.528 26.528 11.872 26.528 26.528 26.528zM172.576 586.496c-31.488 90.304-24.768 158.304 11.040 194.112l0.032-0.032c6.24 6.4 12.672 11.392 19.904 15.488 9.344-30.496 37.376-52.832 70.944-52.832 35.232 0 64.608 24.544 72.352 57.408 37.376-9.92 77.792-26.656 119.68-49.728-46.912-32.224-93.824-70.624-138.144-114.88-44.416-44.512-82.944-91.584-115.264-138.688-16.736 30.368-30.528 60.32-40.544 89.152zM240 452.256c32.512 50.208 73.344 100.96 122.336 149.856 48.64 48.736 99.136 89.44 149.088 121.888 50.24-32.544 101.344-73.12 150.176-121.952 49.152-49.056 90.080-100 122.656-150.4-35.776-52.224-78.464-104.832-122.56-148.928-48.832-48.96-99.584-89.824-149.792-122.304-50.176 32.512-100.896 73.312-149.728 122.24-48.864 48.768-89.664 99.456-122.176 149.6zM377.856 113.024c-90.336-31.456-158.304-24.768-194.112 11.040l0.032 0.032c-35.808 35.808-42.528 103.808-11.040 194.112 9.984 28.768 23.776 58.656 40.448 88.96 32.256-47.040 70.752-94.048 115.136-138.496 44.48-44.416 91.52-82.912 138.592-115.2-30.4-16.672-60.288-30.432-89.056-40.448zM851.264 318.112c31.488-90.304 24.768-158.272-11.072-194.080-35.808-35.808-103.808-42.528-194.112-11.040-28.768 10.016-58.72 23.776-89.056 40.512 47.104 32.288 94.144 70.848 138.656 115.264 40.864 40.864 80.544 88.992 115.392 137.888 16.544-30.176 30.24-59.904 40.192-88.544zM695.552 635.968c-44.48 44.448-91.232 83.168-138.144 115.424 30.24 16.608 60.096 30.368 88.768 40.32 90.304 31.488 158.304 24.768 194.112-11.040 18.72-18.72 29.152-46.304 30.624-81.536-35.616-5.6-62.976-36.16-62.976-73.344 0-28.768 16.48-53.44 40.352-65.856-10.048-20.576-22.176-42.4-35.936-64.864-32.576 47.808-71.68 95.68-116.8 140.896z" />
            <glyph unicode="&#xe955;" glyph-name="chat" d="M512 856c-221.536 0-408-153.408-408-350.496 0-84.928 18.848-144.8 45.472-190.848 24.128-41.28 53.344-70.144 77.408-94.944v-155.712c0-9.248 5.312-17.664 13.632-21.664 8.352-4 18.24-2.848 25.408 2.976l-15.072 18.688h0.032l15.072-18.688c84.48 68.32 146.848 100.064 246.048 99.424v-0.064c109.632 0 211.2 27.040 286.016 83.392 75.552 56.96 122.016 142.656 122.016 254.816-0.032 225.568-185.696 373.12-408.032 373.12zM769.088 266.432c-64.224-48.384-154.624-73.76-257.088-73.76v0.064c-93.792-0.576-163.744-28.48-237.12-80.64v117.344c0 6.176-2.4 12.128-6.656 16.608v0.032h-0.032c-26.112 27.232-54.88 53.504-77.184 92.64-22.016 38.112-39.008 89.568-39.008 166.816 0 163.52 157.376 302.464 360 302.464 201.824 0 360-131.712 360-325.088 0-97.312-39.488-168.736-102.912-216.48zM640 376h-320c-13.248 0-24-10.752-24-24s10.752-24 24-24h320c13.248 0 24 10.752 24 24s-10.752 24-24 24zM672 632h-352c-13.248 0-24-10.752-24-24s10.752-24 24-24h352c13.248 0 24 10.752 24 24s-10.752 24-24 24zM320 456h288c13.248 0 24 10.752 24 24s-10.752 24-24 24h-288c-13.248 0-24-10.752-24-24s10.752-24 24-24z" />
            <glyph unicode="&#xe956;" glyph-name="dashboard" d="M96 383.424c13.248 0 24 10.752 24 24h-48c0-13.248 10.752-24 24-24zM928 383.424c13.248 0 24 10.752 24 24h-48c0-13.248 10.752-24 24-24zM536 429.056v140.544c-0.032 13.216-10.752 23.968-24 23.968s-23.968-10.752-24-23.968v-140.544c-58.816-10.944-104-61.312-104-122.944 0-69.824 57.888-125.376 128-125.376s128 55.488 128 125.376c0 61.632-45.152 112-104 122.944zM512 228.736c-44.736 0-80 35.2-80 77.376 0 42.048 35.264 77.312 80 77.312s80-35.2 80-77.312-35.264-77.376-80-77.376zM952 407.424c0 237.728-197.6 429.376-440 429.376s-440-191.648-440-429.376h48c0 210.048 174.912 381.376 392 381.376s392-171.328 392-381.344h48z" />
            <glyph unicode="&#xe957;" glyph-name="engage" d="M907.744 469.312l-768 432.032c-7.392 4.192-16.48 4.096-23.84-0.192-7.36-4.32-11.872-12.192-11.872-20.704h23.968v-0.064h-24v-360c0-10.752 7.168-20.16 17.472-23.072v-0.032l189.664-53.536-192.608-82.496c-8.8-3.808-14.528-12.448-14.528-22.048v-322.816c0.032-8.512 4.544-16.384 11.872-20.672 7.36-4.288 16.448-4.416 23.872-0.224l768 432-11.744 20.928 11.744 20.896zM152 323.36l240.448 102.976c9.344 4 15.168 13.472 14.496 23.616s-7.648 18.784-17.44 21.536l-237.504 67.072v300.8l695.072-390.944-695.072-390.976v265.92zM907.776 469.344l-11.776-20.928 11.776-20.928c7.52 4.256 12.224 12.256 12.224 20.928s-4.672 16.672-12.224 20.928z" />
            <glyph unicode="&#xe958;" glyph-name="magnet" d="M160 549.696v24h-24c0-6.368 2.528-12.48 7.040-16.96 4.512-4.512 10.592-7.040 16.96-7.040zM888.032 448c0 207.552-167.392 376-374.176 376v-0.032h-353.824v-23.968h-0.032v24c-13.248 0-24-10.752-24-24h0.032v-226.272h24v-24.032l353.824 0.032c21.312 0 46.848-10.816 67.392-30.272 20.384-19.264 33.44-44.704 33.44-71.456h0.032c0-26.752-13.088-52.192-33.44-71.424-20.608-19.456-46.144-30.304-67.424-30.304h-353.824v-24h-0.032v24c-13.248 0-24-10.752-24-24h0.032v-226.272h-0.032c0-6.368 2.528-12.512 7.040-16.928 4.512-4.544 10.592-7.072 16.96-7.072v24h0.032v-24h353.824c206.816 0.032 374.176 168.448 374.176 376zM261.216 597.696h-77.184v178.272h77.184v-178.272zM261.216 120h-77.184v178.24h77.184v-178.24zM513.856 120h-204.64v178.24h204.64c36.032 0 72.864 17.376 100.416 43.392 27.744 26.24 48.512 63.648 48.512 106.336h-0.064c0 42.688-20.736 80.096-48.512 106.336-27.52 26.048-64.384 43.392-100.416 43.392v-0.032h-204.576v178.304l204.64 0.032c180.064 0 326.176-146.72 326.176-328s-146.144-328-326.176-328z" />
            <glyph unicode="&#xe959;" glyph-name="help" d="M512 856c-225.344 0-408-182.656-408-408s182.656-408 408-408 408 182.656 408 408-182.656 408-408 408zM512 88c-198.816 0-360 161.184-360 360s161.184 360 360 360 360-161.184 360-360-161.184-360-360-360zM512 691.424c-73.6 0-133.728-59.072-133.728-132.512 0-13.248 10.752-24 24-24s24 10.752 24 24c0 46.432 38.112 84.512 85.728 84.512 47.552 0 85.76-38.080 85.76-84.512h48c0 73.44-60.16 132.512-133.76 132.512zM597.696 558.912c0-20.736-5.344-32.64-12.128-41.376-7.744-10.496-18.88-17.76-32.928-28-14.016-10.24-30.944-23.872-43.68-42.944-13.216-20.416-20.992-46.24-20.992-80.896h0.032c0-13.248 10.752-24 24-24s24 10.752 24 24h-0.032c0 27.072 5.92 43.424 13.28 54.816 7.84 12.736 18.304 20.512 31.744 30.272 13.408 9.824 29.728 21.312 42.496 37.344 13.856 17.824 22.176 40.256 22.176 70.752l-47.968 0.032zM512 275.008c-25.632 0-46.432-20.736-46.432-46.432 0-25.632 20.768-46.4 46.432-46.4 25.632 0 46.432 20.736 46.432 46.4 0 25.6-20.736 46.432-46.432 46.432z" />
            <glyph unicode="&#xe95a;" glyph-name="logout" d="M816.224 658.528c-9.472-9.28-9.6-24.48-0.352-33.952l34.24 33.6h0.064c-9.312 9.472-24.48 9.6-33.952 0.352zM1009.12 496.032l-158.944 162.144-34.272-33.6 118.944-121.344h-392.96c-13.248 0-24-10.752-24-24s10.72-24 24-24h392.96l-118.944-121.344c-9.28-9.44-9.12-24.672 0.352-33.952 9.504-9.28 24.672-9.12 33.952 0.352l158.944 162.144-17.152 16.8 17.12 16.8zM1009.152 496.032l-17.152-16.8 17.152-16.8c9.152 9.344 9.152 24.256 0 33.6zM678.304 364.576c-13.248 0-24-10.752-24-24v-170.112h-197.504v530.624c0 9.76-5.92 18.56-14.944 22.24v-0.032l-159.2 64.736h371.648v-170.144c0-13.248 10.752-24 24-24s24 10.752 24 24v194.144c0 13.248-10.752 24-24 24h-518.304c-13.248 0-24-10.752-24-24v-665.6c0-8.384 4.352-16.128 11.488-20.512l12.512 20.512h0.032l-12.512-20.48 272.832-166.4c7.424-4.448 16.64-4.672 24.192-0.416s12.256 12.256 12.256 20.896v142.4h221.504c13.248 0 24 10.752 24 24v194.112c0 13.28-10.752 24.032-24 24.032zM408.8 22.784l-224.8 137.12v616.448l224.8-91.424v-662.144z" />
            <glyph unicode="&#xe95b;" glyph-name="settings" d="M553.888 809.92v0zM900.8 412.64l-1.088 0.832-29.728-37.696 1.12-0.864v0.032c32.064-25.28 15.424-76.736-25.6-78.432l1.92-47.936c85.376 3.424 120.608 111.072 53.376 164.064zM332.672 765.344c49.472-32.896 116.8-11.136 137.472 44.608h-0.032l0.48 1.312c14.208 38.304 68.608 38.304 82.784 0l0.512-1.312 44.96 16.704-0.48 1.312h0.032c-29.728 80.032-143.072 80.032-172.8 0l-0.48-1.312h0.032c-9.92-26.624-42.144-37.12-65.888-21.312l-26.592-40zM511.968 607.936c-88.448 0-160.256-71.552-160.256-159.936s71.808-159.936 160.256-159.936c88.48 0 160.256 71.552 160.256 159.936s-71.776 159.936-160.256 159.936zM511.968 336.064c-62.048 0-112.256 50.176-112.256 111.936 0 61.792 50.208 111.936 112.256 111.936 62.016 0 112.256-50.176 112.256-111.936 0-61.824-50.208-111.936-112.256-111.936zM264.896 716.288l-46.208-12.992c7.68-27.264-12.16-54.656-40.704-55.808l1.92-47.968c59.392 2.4 101.088 59.52 84.992 116.768zM218.272 704.704l0.384-1.376 46.208 12.992-0.352 1.312v0.032c-11.008 39.136 32.768 71.2 66.976 48.448l1.152-0.768 26.592 39.968-1.184 0.8c-70.976 47.168-162.848-19.104-139.776-101.408zM691.36 765.344l1.12 0.8-26.56 39.968-1.184-0.8c-23.712-15.808-56-5.28-65.888 21.312l-44.96-16.704c20.704-55.68 88-77.472 137.472-44.576zM845.536 599.488c41.024-1.664 57.664-53.184 25.6-78.432l29.76-37.696c67.2 52.992 31.936 160.64-53.376 164.096l-1.984-47.968zM899.712 482.464l1.088 0.864-29.696 37.696-1.12-0.864c-46.688-36.832-46.688-107.552 0-144.352l29.76 37.696c-22.336 17.632-22.336 51.36-0.032 68.96zM692.576 766.144c34.208 22.752 78.016-9.312 66.944-48.448l46.24-12.992c23.136 82.336-68.8 148.64-139.808 101.44l26.624-40zM124.288 413.472l29.728-37.696c46.72 36.832 46.72 107.552 0 144.352l-29.728-37.696c22.336-17.6 22.336-51.36 0-68.96zM805.696 191.296l-0.384 1.344-46.176-12.96 0.384-1.408c10.976-39.104-32.768-71.136-66.944-48.384l-4.512-6.752-8.8-13.312v0.064l-13.312-20c71.008-47.232 162.944 19.072 139.808 101.44l-0.064-0.032zM805.344 703.328l0.352 1.344-46.176 12.992-0.384-1.344c-16.064-57.216 25.632-114.336 84.96-116.768v-0.032l1.408-0.064 1.952 47.968-1.376 0.064v0.032c-28.576 1.152-48.416 28.544-40.736 55.808zM691.328 130.56l0.032 0.064c-49.504 32.864-116.8 11.136-137.504-44.64l44.992-16.704c9.888 26.624 42.144 37.12 65.888 21.312l1.184-0.736 26.56 39.936-1.152 0.768zM553.408 84.672c-14.208-38.272-68.576-38.272-82.784 0l-44.992-16.672c29.696-80.032 143.136-80.032 172.8 0l-0.064 0.032 0.48 1.28-44.96 16.672-0.48-1.312zM470.592 84.672l-0.48 1.312-44.992-16.672 0.48-1.312 22.496 8.352zM470.112 86.048c-20.672 55.68-88 77.44-137.44 44.576l26.592-39.968c23.744 15.808 56 5.28 65.888-21.312l44.96 16.704zM844.096 296.448c-59.328-2.4-101.024-59.488-84.96-116.736l46.208 12.992c-7.68 27.232 12.128 54.56 40.672 55.808v-0.064l1.44 0.064-1.952 48-1.408-0.064zM688.064 123.136l4.448 6.688-13.248-19.936zM331.488 129.824c-34.208-22.752-78.016 9.312-66.976 48.448l-46.208 12.992c-23.168-82.304 68.768-148.64 139.776-101.44l-26.592 40zM218.688 192.672l-0.416-1.376 46.208-12.992 0.384 1.344h0.032c16.128 57.216-25.6 114.336-84.992 116.768l-1.92-48c28.544-1.088 48.352-28.48 40.704-55.744zM179.872 296.448l-1.408 0.064h0.032c-41.024 1.632-57.632 53.152-25.6 78.4l-0.032 0.032 1.12 0.864-29.728 37.696-1.12-0.864v-0.032c-67.2-52.992-31.936-160.64 53.376-164.096v0.064l1.408-0.064 1.952 47.936zM470.144 86.048h-0.032l0.032-0.064zM123.168 483.36l1.088-0.864 29.728 37.696-1.088 0.832-0.032 0.032c-32 25.248-15.392 76.736 25.632 78.4v0.032l1.376 0.064-1.92 47.968-1.408-0.064v-0.032c-85.28-3.488-120.512-111.040-53.376-164.064zM358.112 89.824l-26.592 40 1.184 0.768 26.592-40z" />
            <glyph unicode="&#xe95c;" glyph-name="video" d="M872.512 808h-721.056c-43.168 0-79.456-34.112-79.456-77.76h-0.032v-564.48c0-43.616 36.288-77.76 79.456-77.76h721.088c43.2 0 79.456 34.112 79.456 77.76v564.48c0 43.648-36.288 77.76-79.456 77.76zM903.968 730.24v-90.24h-118.4v120h86.944c18.080 0 31.456-14.016 31.456-29.76zM903.968 472h-118.4v120h118.4v-120zM903.968 304h-118.4v120h118.4v-120zM119.968 424h118.4v-120h-118.4v120zM119.968 592h118.4v-120h-118.4v120zM286.368 280v480h451.2v-624h-451.2v144zM120 730.24c0 15.744 13.376 29.76 31.456 29.76h86.912v-120h-118.4l0.032 90.24zM119.968 165.76v90.24h118.4v-120h-86.944c-18.080 0-31.456 13.984-31.456 29.76zM872.512 136h-86.944v120h118.4v-90.24c0-15.776-13.376-29.76-31.456-29.76zM449.6 544.992l13.312 19.968c-7.36 4.896-16.832 5.376-24.64 1.184s-12.672-12.32-12.672-21.152v-194.016c0-8.864 4.864-16.992 12.672-21.12 7.808-4.224 17.28-3.744 24.64 1.184v0l145.6 96.96c6.688 4.448 10.688 11.936 10.688 19.968s-4 15.52-10.688 19.968l-145.6 96.992zM551.904 448l-78.304-52.192v104.352l78.304-52.16z" />
            <glyph unicode="&#xe95d;" glyph-name="user" d="M310.4 294.4v0h406.4v67.2h-38.4c83.2 57.6 137.6 156.8 137.6 268.8 0 176-134.4 320-304 320s-304-144-304-320c0-112 54.4-211.2 137.6-268.8h-35.2c-102.4 0-179.2-19.2-230.4-60.8-51.2-44.8-70.4-108.8-70.4-185.6h64c0 67.2 16 108.8 48 134.4s89.6 44.8 188.8 44.8zM275.2 627.2c0 140.8 105.6 252.8 236.8 252.8s236.8-112 236.8-252.8c0-140.8-105.6-252.8-236.8-252.8-131.2 3.2-236.8 115.2-236.8 252.8zM1017.6 112c0 76.8-19.2 140.8-70.4 185.6-51.2 41.6-128 60.8-230.4 60.8v-67.2c99.2 0 156.8-19.2 192-44.8 32-25.6 48-67.2 48-134.4v0-108.8h-886.4v108.8h-64v-144c0-19.2 16-35.2 32-35.2h944c19.2 0 32 16 32 35.2l3.2 144zM70.4 112v0 0 0z" />
            <glyph unicode="&#xe95e;" glyph-name="calendar" horiz-adv-x="1126" d="M972.8 883.2h-76.8v76.8h-51.2v-76.8h-563.2v76.8h-51.2v-76.8h-76.8c-70.707 0-128-57.293-128-128v-665.6c0-70.707 57.293-128 128-128h819.2c70.707 0 128 57.293 128 128v665.6c0 70.707-57.293 128-128 128zM153.6 832h76.8v-76.8h51.2v76.8h563.2v-76.8h51.2v76.8h76.8c42.394 0 76.8-34.355 76.8-76.8v-128h-972.8v128c0 42.445 34.355 76.8 76.8 76.8zM972.8 12.8h-819.2c-42.445 0-76.8 34.406-76.8 76.8v486.4h972.8v-486.4c0-42.394-34.406-76.8-76.8-76.8zM409.6 473.6h102.4v-51.2h-102.4zM614.4 473.6h102.4v-51.2h-102.4zM819.2 473.6h102.4v-51.2h-102.4zM409.6 320h102.4v-51.2h-102.4zM204.8 320h102.4v-51.2h-102.4zM614.4 320h102.4v-51.2h-102.4zM819.2 320h102.4v-51.2h-102.4zM409.6 166.4h102.4v-51.2h-102.4zM204.8 166.4h102.4v-51.2h-102.4zM614.4 166.4h102.4v-51.2h-102.4z" />
            <glyph unicode="&#xe95f;" glyph-name="alert" horiz-adv-x="1178" d="M1159.578 6.554l-537.549 921.6c-6.912 11.776-19.507 19.046-33.229 19.046-13.67 0-26.266-7.27-33.126-19.046l-537.651-921.6c-6.912-11.827-6.963-26.573-0.102-38.451 6.81-11.93 19.507-19.302 33.28-19.302h1075.2c13.773 0 26.47 7.373 33.28 19.302 6.861 11.878 6.81 26.573-0.102 38.451zM1059.482 25.6h-941.414l470.733 807.014 470.682-807.014zM550.451 558.899v-233.728c0-21.197 17.203-38.4 38.4-38.4s38.4 17.203 38.4 38.4v233.728c0 21.197-17.203 38.4-38.4 38.4s-38.4-17.203-38.4-38.4zM649.421 167.424c0-33.169-27.141-60.058-60.621-60.058s-60.621 26.889-60.621 60.058c0 33.169 27.141 60.058 60.621 60.058s60.621-26.889 60.621-60.058z" />
            <glyph unicode="&#xe960;" glyph-name="open_picker" horiz-adv-x="1186" d="M633.263 906.105c0 22.324-18.097 40.421-40.421 40.421s-40.421-18.097-40.421-40.421h80.842zM592.842 286.316l-28.582-28.58 28.582-28.586 28.582 28.586-28.582 28.58zM863.95 500.26c15.785 15.785 15.785 41.379 0 57.164s-41.379 15.785-57.164 0l57.164-57.164zM378.898 557.424c-15.785 15.785-41.379 15.785-57.164 0s-15.785-41.379 0-57.164l57.164 57.164zM552.421 906.105v-619.789h80.842v619.789h-80.842zM621.424 257.735l242.526 242.525-57.164 57.164-242.526-242.528 57.164-57.161zM621.424 314.896l-242.526 242.528-57.164-57.164 242.526-242.525 57.164 57.161zM1172.211 528.842c0 22.324-18.098 40.421-40.421 40.421s-40.421-18.097-40.421-40.421h80.842zM94.316 528.842c0 22.324-18.097 40.421-40.421 40.421s-40.421-18.097-40.421-40.421h80.842zM1091.368 528.842v-323.368h80.842v323.368h-80.842zM916.211 30.316h-646.737v-80.842h646.737v80.842zM94.316 205.474v323.368h-80.842v-323.368h80.842zM1091.368 205.474c0-96.737-78.422-175.158-175.158-175.158v-80.842c141.387 0 256 114.615 256 256h-80.842zM269.474 30.316c-96.737 0-175.158 78.421-175.158 175.158h-80.842c0-141.385 114.615-256 256-256v80.842z" />
            <glyph unicode="&#xe961;" glyph-name="form" horiz-adv-x="1291" d="M445.217 838.901c-24.589 0-44.522-19.933-44.522-44.522s19.933-44.522 44.522-44.522v89.043zM1246.609 749.857c24.589 0 44.522 19.933 44.522 44.522s-19.932 44.522-44.522 44.522v-89.043zM445.217 749.857h801.391v89.043h-801.391v-89.043zM445.217 482.727c-24.589 0-44.522-19.933-44.522-44.522s19.933-44.522 44.522-44.522v89.043zM1246.609 393.683c24.589 0 44.522 19.933 44.522 44.522s-19.932 44.522-44.522 44.522v-89.043zM445.217 393.683h801.391v89.043h-801.391v-89.043zM445.217 126.553c-24.589 0-44.522-19.933-44.522-44.522s19.933-44.522 44.522-44.522v89.043zM1246.609 37.51c24.589 0 44.522 19.933 44.522 44.522s-19.932 44.522-44.522 44.522v-89.043zM445.217 37.51h801.391v89.043h-801.391v-89.043zM178.087 82.031c0-24.588-19.933-44.522-44.522-44.522v-89.043c73.766 0 133.565 59.799 133.565 133.565h-89.043zM133.565 37.51c-24.588 0-44.522 19.933-44.522 44.522h-89.043c0-73.766 59.799-133.565 133.565-133.565v89.043zM89.043 82.031c0 24.588 19.933 44.522 44.522 44.522v89.043c-73.766 0-133.565-59.799-133.565-133.565h89.043zM133.565 126.553c24.588 0 44.522-19.933 44.522-44.522h89.043c0 73.766-59.799 133.565-133.565 133.565v-89.043zM178.087 438.205c0-24.588-19.933-44.522-44.522-44.522v-89.043c73.766 0 133.565 59.799 133.565 133.565h-89.043zM133.565 393.683c-24.588 0-44.522 19.933-44.522 44.522h-89.043c0-73.766 59.799-133.565 133.565-133.565v89.043zM89.043 438.205c0 24.588 19.933 44.522 44.522 44.522v89.043c-73.766 0-133.565-59.799-133.565-133.565h89.043zM133.565 482.727c24.588 0 44.522-19.933 44.522-44.522h89.043c0 73.766-59.799 133.565-133.565 133.565v-89.043zM178.087 794.379c0-24.588-19.933-44.522-44.522-44.522v-89.043c73.766 0 133.565 59.799 133.565 133.565h-89.043zM133.565 749.857c-24.588 0-44.522 19.933-44.522 44.522h-89.043c0-73.766 59.799-133.565 133.565-133.565v89.043zM89.043 794.379c0 24.588 19.933 44.522 44.522 44.522v89.043c-73.766 0-133.565-59.799-133.565-133.565h89.043zM133.565 838.901c24.588 0 44.522-19.933 44.522-44.522h89.043c0 73.766-59.799 133.565-133.565 133.565v-89.043z" />
            <glyph unicode="&#xe962;" glyph-name="HideList" d="M1007.744 249.184l-462.976 463.072c-18.048 18.048-47.424 18.048-65.472 0l-463.040-463.072c-18.048-17.92-18.048-47.392 0-65.504 18.016-17.92 47.424-17.92 65.472 0l430.272 430.336 430.272-430.336c17.92-17.92 47.392-17.92 65.472 0 18.016 18.112 18.112 47.424 0 65.504z" />
            <glyph unicode="&#xe963;" glyph-name="ShowList" d="M16.256 646.848l462.976-463.040c18.048-18.048 47.424-18.048 65.504 0l463.040 463.040c18.016 17.92 18.016 47.392 0 65.504-18.016 17.92-47.424 17.92-65.472 0l-430.304-430.304-430.272 430.304c-17.92 17.92-47.392 17.92-65.472 0-18.016-18.080-18.112-47.392 0-65.504z" />
            <glyph unicode="&#xe964;" glyph-name="Lock" horiz-adv-x="904" d="M843.294 597.022h-108.062v49.393c0 156.552-126.856 283.467-283.467 283.467-156.552 0-283.467-126.916-283.467-283.467v-49.393h-108.062c-16.625 0-30.118-13.493-30.118-30.118v-570.669c0-16.565 13.493-30.118 30.118-30.118h783.059c16.565 0 30.118 13.553 30.118 30.118v570.669c0 16.625-13.553 30.118-30.118 30.118zM451.765 869.647c123.302 0 223.232-99.93 223.232-223.232v-79.511c0-16.625 13.493-30.118 30.118-30.118h108.062v-510.434h-722.824v510.434h108.062c16.625 0 30.118 13.493 30.118 30.118v79.511c0 123.302 99.93 223.232 223.232 223.232zM451.765 417.882c-49.875 0-90.353-38.551-90.353-86.076 0-31.804 18.191-59.633 45.176-74.511v-95.413c0-24.937 20.239-45.176 45.176-45.176s45.176 20.239 45.176 45.176v95.413c26.985 14.878 45.176 42.707 45.176 74.511 0 47.526-40.478 86.076-90.353 86.076zM336.715 536.787h230.34c16.565 0 30.118 13.493 30.118 30.118 0 30.72 3.795 83.727-12.71 129.205-8.373 22.528-27.226 47.224-47.285 63.789-22.167 17.649-50.598 27.347-85.293 27.347s-63.127-9.698-85.353-27.347c-20.058-16.565-37.466-39.213-45.779-61.741-16.504-45.478-14.155-100.533-14.155-131.253 0-16.625 13.493-30.118 30.118-30.118zM404.058 712.794c10.18 8.072 24.937 14.216 47.827 14.216s37.647-6.144 47.827-14.216c12.288-9.216 22.046-20.179 28.19-37.286 8.734-24.094 7.77-52.405 8.614-78.487h-169.201c0.783 26.142 1.325 56.44 10.059 80.595 6.024 17.047 14.336 25.961 26.684 35.177z" />
            <glyph unicode="&#xe965;" glyph-name="update" d="M972.8 435.2c-21.197 0-38.4-17.203-38.4-38.4 0-202.547-176.794-371.2-400.589-371.2-143.821 0-268.493 70.502-338.995 174.541h107.674v76.8h-247.808v-247.859h76.8v128.051c85.043-125.542 233.626-208.333 402.33-208.333 261.069 0 477.389 198.093 477.389 448 0 21.197-17.203 38.4-38.4 38.4zM89.6 499.2c0 202.547 176.794 371.2 400.589 371.2 143.821 0 268.442-70.502 338.995-174.541h-107.674v-76.8h247.808v247.859h-76.8v-128c-84.992 125.491-233.626 208.282-402.33 208.282-261.12 0-477.389-198.144-477.389-448 0-21.197 17.203-38.4 38.4-38.4s38.4 17.203 38.4 38.4z" />
            <glyph unicode="&#xe966;" glyph-name="menu" d="M128 725.334h768q17.667 0 30.167-12.5t12.5-30.167-12.5-30.167-30.167-12.5h-768q-17.667 0-30.167 12.5t-12.5 30.167 12.5 30.167 30.167 12.5zM128 213.334h768q17.667 0 30.167-12.5t12.5-30.167-12.5-30.167-30.167-12.5h-768q-17.667 0-30.167 12.5t-12.5 30.167 12.5 30.167 30.167 12.5zM128 469.334h768q17.667 0 30.167-12.5t12.5-30.167-12.5-30.167-30.167-12.5h-768q-17.667 0-30.167 12.5t-12.5 30.167 12.5 30.167 30.167 12.5z" />
            <glyph unicode="&#xe967;" glyph-name="MM_Content" d="M882.272 697.92c-16.352 14.336-38.944 18.080-62.784 18.080h-304.48c-14.496-0.32-24.928 3.136-35.936 11.808l-56.608 42.688c-17.6 12.864-42.688 21.184-64.832 21.472h-153.152c-23.744 0-46.88-3.744-63.392-19.296-16.928-15.904-21.088-38.688-21.088-61.664v-489.024c0-23.008 4.16-45.76 21.088-61.696 16.512-15.552 39.648-19.328 63.392-19.328h615.008c52.448 0 77.888 33.888 83.68 55.84l0.8 6.144v437.056c0.032 21.28-4.48 42.816-21.696 57.92zM174.016 737.792c2.592 2.432 9.664 6.208 30.464 6.208h153.152c14.496 0.32 24.928-3.136 35.936-11.808l56.64-42.688c17.6-12.864 42.688-21.184 64.832-21.472h304.48c20.736 0 28.384-3.744 31.136-6.176 1.92-1.696 5.344-6.144 5.344-21.856v-40h-688v111.008c0 18.976 3.808 24.704 6.016 26.784zM819.488 188.992h-615.008c-20.8 0-27.904 3.776-30.496 6.208-2.176 2.080-6.016 7.808-6.016 26.784v330.016h688v-344.864c-2.624-5.568-12-18.144-36.48-18.144z" />
            <glyph unicode="&#xe968;" glyph-name="messenger-outline" d="M512 931.556c-264.988 0-483.556-199.396-483.556-449.82 0-137.33 66.446-259.3 169.586-341.447v-195.47l188.075 103.196c39.936-9.899 82.83-16.043 125.895-16.1 264.988 0 483.556 199.339 483.556 449.82 0 250.425-218.567 449.82-483.556 449.82zM512 88.804c-43.406-0.114-83.399 5.575-122.937 16.555v0l-11.15 3.129-10.126-5.575-112.811-61.952v126.862l-11.435 8.476c-96.996 72.476-158.208 182.67-158.208 305.436 0 214.983 188.928 392.932 426.667 392.932 237.796 0 426.667-177.948 426.667-392.932s-188.871-392.932-426.667-392.932zM469.959 580.722l-217.657-231.083 197.86 108.203 101.376-108.203 217.657 231.083-195.356-108.146z" />
            <glyph unicode="&#xe969;" glyph-name="folder" horiz-adv-x="1216" d="M454.278 871.457v0zM537.983 808.543v0zM1152 56l30.925-8.23 1.075 4.045v4.186h-32zM1152 597.333v0zM1062.592 32h-909.185v-64h909.185v64zM612.452 752h450.14v64h-450.14v-64zM435.052 845.877l83.705-62.915 38.453 51.16-83.705 62.915-38.453-51.16zM153.407 864h226.403v64h-226.403v-64zM96 812c0 28.216 5.644 37.852 9.926 41.874 4.843 4.55 16.508 10.126 47.481 10.126v64c-34.865 0-67.903-5.497-91.304-27.482-23.962-22.513-30.103-54.878-30.103-88.518h64zM1184 700c0 33.64-6.138 66.004-30.106 88.518-23.398 21.986-56.435 27.482-91.302 27.482v-64c30.976 0 42.637-5.576 47.482-10.125 4.282-4.023 9.926-13.658 9.926-41.875h64zM153.407 32c-30.973 0-42.638 5.574-47.481 10.125-4.282 4.026-9.926 13.658-9.926 41.875h-64c0-33.638 6.141-66.003 30.103-88.518 23.401-21.984 56.439-27.482 91.304-27.482v64zM612.452 816c-21.997-0.404-38.514 5.018-55.242 18.123l-38.453-51.16c25.546-18.669 61.555-30.558 93.695-30.963v64zM473.505 897.037c-25.546 18.67-61.555 30.558-93.696 30.963v-64c21.997 0.405 38.514-5.018 55.243-18.123l38.453 51.16zM1062.592-32c75.674 0 112.051 48.659 120.333 79.77l-61.85 16.461c-1.658-6.221-14.944-32.23-58.483-32.23v-64zM96 84v513.333h-64v-513.333h64zM96 597.333v214.667h-64v-214.667h64zM1184 56v541.333h-64v-541.333h64zM64 565.333h1088v64h-1088v-64zM1120 700v-102.667h64v102.667h-64z" />
            </font>
</defs>
</svg>
